<svg width="231" height="84" viewBox="0 0 231 84" fill="none" xmlns="http://www.w3.org/2000/svg">
<path d="M107.927 13.2957C107.527 13.2957 107.192 13.2957 106.919 13.2957L106.235 13.2665C106.093 13.2574 105.952 13.2412 105.811 13.2178C105.728 13.2062 105.646 13.1844 105.569 13.1528V12.1915C105.874 12.2587 106.183 12.3043 106.495 12.3279C106.837 12.3539 107.199 12.3669 107.564 12.3669C107.865 12.3669 108.159 12.3669 108.449 12.3279C108.709 12.3062 108.964 12.2561 109.212 12.1785C109.407 12.1211 109.585 12.0223 109.734 11.8895C109.801 11.8304 109.854 11.7583 109.888 11.6781C109.923 11.598 109.939 11.5117 109.936 11.4251C109.935 11.3259 109.91 11.2283 109.864 11.1393C109.78 10.9974 109.672 10.87 109.543 10.7626C109.305 10.5553 109.051 10.3643 108.784 10.191C108.443 9.96364 107.988 9.67785 107.418 9.3336C106.847 8.98935 106.392 8.70031 106.081 8.47298C105.834 8.29809 105.606 8.10127 105.398 7.88516C105.272 7.76136 105.182 7.60943 105.135 7.44348C105.106 7.30221 105.093 7.15862 105.094 7.0148C105.09 6.72452 105.193 6.44207 105.384 6.21588C105.604 5.9582 105.885 5.75437 106.204 5.62156C106.607 5.44511 107.032 5.32059 107.469 5.25134C108.002 5.16027 108.543 5.11678 109.085 5.12143C109.396 5.12143 109.632 5.12143 109.792 5.14416C109.954 5.16004 110.115 5.18389 110.274 5.21561V6.1899C109.776 6.0365 109.253 5.96511 108.73 5.9788C108.453 5.97983 108.177 5.99719 107.903 6.03077C107.649 6.06094 107.4 6.12094 107.161 6.20939C106.96 6.28194 106.776 6.39241 106.621 6.53415C106.554 6.59555 106.501 6.66927 106.466 6.7508C106.43 6.83233 106.412 6.91995 106.413 7.0083C106.413 7.2129 106.587 7.46946 106.936 7.78124C107.479 8.22127 108.063 8.61265 108.682 8.95038C109.328 9.32711 109.827 9.63888 110.185 9.8857C110.473 10.0742 110.737 10.292 110.975 10.5352C111.11 10.663 111.215 10.8169 111.282 10.9866C111.319 11.1092 111.337 11.236 111.337 11.3634C111.334 11.601 111.28 11.8354 111.176 12.0519C111.058 12.297 110.881 12.5126 110.66 12.6819C110.381 12.8911 110.062 13.0467 109.721 13.1398C109.258 13.2658 108.777 13.3249 108.296 13.3152L107.927 13.2957Z" fill="#646567"/>
<path d="M118.511 13.2354V12.5904C118.147 13.075 117.492 13.3192 116.498 13.3192C115.464 13.3192 114.693 13.1078 114.186 12.6852C113.938 12.4839 113.738 12.221 113.605 11.919C113.471 11.617 113.408 11.2849 113.419 10.9508V6.14844H114.685V10.805C114.677 11.0598 114.735 11.312 114.852 11.5338C114.958 11.7218 115.106 11.8783 115.283 11.9892C115.47 12.1036 115.677 12.1791 115.89 12.2115C116.115 12.2517 116.342 12.2724 116.569 12.2734C116.797 12.2731 117.024 12.2512 117.248 12.2079C117.467 12.1672 117.678 12.0884 117.873 11.9747C118.052 11.8691 118.205 11.7176 118.317 11.5338C118.444 11.3158 118.505 11.0616 118.494 10.805V6.14844H119.661V13.2354H118.511Z" fill="#646567"/>
<path d="M120.722 12.2013C120.797 12.2391 120.88 12.2635 120.964 12.2732C121.082 12.2904 121.201 12.3012 121.32 12.3056C121.467 12.3056 121.653 12.3056 121.872 12.3307L122.682 12.3703C123.191 12.4115 123.702 12.3221 124.161 12.1115C124.277 12.0552 124.375 11.9718 124.446 11.8692C124.518 11.7666 124.56 11.6483 124.57 11.5256C124.554 11.4124 124.515 11.3035 124.454 11.2053C124.393 11.107 124.311 11.0216 124.214 10.9541C123.826 10.6442 123.408 10.3698 122.966 10.1346C122.637 9.94407 122.338 9.77514 122.077 9.59901C121.837 9.45021 121.613 9.28054 121.407 9.09221C121.235 8.92998 121.091 8.74322 120.979 8.53868C120.875 8.32474 120.824 8.09131 120.828 7.85575C120.809 7.51932 120.924 7.18848 121.15 6.92841C121.37 6.7019 121.642 6.52611 121.944 6.41442C122.276 6.2945 122.623 6.22065 122.977 6.19516C123.355 6.16281 123.7 6.14844 124.018 6.14844C124.335 6.14844 124.612 6.14844 124.805 6.1736L125.319 6.22751V7.21237C124.844 7.08694 124.352 7.02524 123.859 7.02905C123.659 7.02957 123.459 7.04278 123.261 7.06859C123.08 7.09043 122.903 7.13641 122.735 7.20518C122.591 7.26384 122.462 7.35082 122.357 7.46038C122.259 7.57359 122.209 7.71695 122.217 7.86294C122.245 8.00131 122.319 8.12737 122.428 8.22238C122.597 8.39647 122.775 8.56204 122.962 8.7184C123.176 8.89332 123.415 9.07304 123.677 9.25755L124.434 9.78592L125.085 10.2352C125.218 10.3262 125.344 10.4259 125.463 10.5335C125.616 10.6816 125.733 10.8594 125.807 11.0547C125.876 11.2481 125.909 11.451 125.906 11.655C125.896 11.9083 125.812 12.1541 125.665 12.3653C125.517 12.5765 125.311 12.7449 125.069 12.8519C124.509 13.1646 123.651 13.3192 122.485 13.3192C122.107 13.3192 121.763 13.3192 121.46 13.2868C121.205 13.2717 120.953 13.2393 120.703 13.1898L120.722 12.2013Z" fill="#646567"/>
<path d="M131.109 13.264C130.853 13.3087 130.592 13.3253 130.332 13.3135C130.073 13.3092 129.815 13.2796 129.562 13.2252C129.276 13.1595 129.007 13.0394 128.77 12.8718C128.511 12.6943 128.298 12.4623 128.146 12.1933C127.967 11.8462 127.881 11.4608 127.897 11.0732V7.10482H126.947V6.39809H127.897V4.34148L129.21 4.09766V6.40162H130.798V7.10836H129.203V10.9954C129.193 11.2364 129.234 11.4768 129.324 11.7022C129.391 11.867 129.504 12.0111 129.65 12.1191C129.787 12.2147 129.943 12.2821 130.108 12.317C130.276 12.3513 130.447 12.3679 130.618 12.3665H130.867L131.109 12.3311V13.264Z" fill="#646567"/>
<path d="M137.669 13.262L137.065 12.729C136.407 13.1438 135.651 13.3476 134.888 13.316C134.51 13.3197 134.132 13.2798 133.761 13.1972C133.452 13.1315 133.158 13.0031 132.894 12.819C132.658 12.6471 132.469 12.4109 132.347 12.1349C132.211 11.809 132.145 11.4545 132.155 11.0978C132.129 10.7454 132.183 10.3915 132.314 10.0665C132.444 9.74161 132.647 9.45538 132.904 9.23247C133.47 8.80976 134.151 8.59835 134.841 8.6311C135.242 8.6311 135.641 8.65271 136.032 8.68872C136.418 8.72667 136.8 8.79528 137.176 8.89398V8.37183C137.176 8.01173 136.96 7.72365 136.525 7.50399C135.935 7.24986 135.301 7.13559 134.665 7.1691C134.412 7.1691 134.19 7.1691 133.991 7.19791C133.818 7.21177 133.648 7.2419 133.481 7.28794V6.20764C133.645 6.16807 133.812 6.14993 133.98 6.15362C134.262 6.15362 134.656 6.15362 135.165 6.15362C135.987 6.11125 136.803 6.32924 137.51 6.7802C137.788 6.96327 138.015 7.22102 138.17 7.52758C138.324 7.83414 138.401 8.1787 138.391 8.52667V13.262H137.669ZM137.163 9.74021L136.724 9.65018C136.596 9.62144 136.466 9.601 136.336 9.58897C136.197 9.58897 136.039 9.56736 135.86 9.56376H135.145C133.957 9.56376 133.363 10.0691 133.363 11.0798C133.353 11.3106 133.413 11.5386 133.532 11.7316C133.642 11.8968 133.793 12.0274 133.967 12.1097C134.154 12.197 134.352 12.2563 134.554 12.2861C134.766 12.3148 134.979 12.3293 135.192 12.3293C135.426 12.3298 135.659 12.3106 135.89 12.2717C136.106 12.2362 136.319 12.1795 136.525 12.1025C136.692 12.0421 136.848 11.952 136.987 11.836C137.04 11.794 137.083 11.7398 137.114 11.6775C137.144 11.6151 137.161 11.5462 137.163 11.4759V9.74021Z" fill="#646567"/>
<path d="M140.5 5.3635C140.239 5.36505 139.983 5.30164 139.766 5.1817C139.669 5.13821 139.588 5.07522 139.529 4.99871C139.471 4.92221 139.437 4.83476 139.432 4.74469C139.431 4.65055 139.46 4.55784 139.516 4.4757C139.573 4.39355 139.655 4.32479 139.753 4.27621C139.974 4.15545 140.235 4.09317 140.5 4.09791C140.753 4.0936 141.002 4.15615 141.208 4.27621C141.303 4.32722 141.381 4.39686 141.434 4.47872C141.487 4.56059 141.514 4.65205 141.513 4.74469C141.509 4.83223 141.48 4.91778 141.427 4.99394C141.374 5.07009 141.299 5.13454 141.208 5.1817C141.003 5.30441 140.754 5.36834 140.5 5.3635ZM139.642 13.3172V6.51722H141.238V13.3172H139.642Z" fill="#646567"/>
<path d="M148.62 13.3192V8.64793C148.629 8.39606 148.581 8.14555 148.478 7.91919C148.385 7.72988 148.247 7.57029 148.079 7.45644C147.893 7.33707 147.688 7.25441 147.475 7.21231C147.229 7.16293 146.979 7.13853 146.729 7.13943C146.245 7.1129 145.762 7.22477 145.331 7.46372C145.156 7.5868 145.015 7.75982 144.925 7.96367C144.835 8.16751 144.799 8.39424 144.821 8.61878V13.3192H143.596V6.23215H144.852V6.73134C145.141 6.50071 145.476 6.34601 145.831 6.27952C146.363 6.17794 146.904 6.13521 147.445 6.15199C147.755 6.15209 148.063 6.2012 148.36 6.29774C148.637 6.38217 148.898 6.51778 149.133 6.69854C149.359 6.88474 149.541 7.12617 149.663 7.40299C149.786 7.67981 149.846 7.98411 149.838 8.29085V13.3192H148.62Z" fill="#646567"/>
<path d="M157.43 13.2625L156.826 12.7295C156.171 13.1415 155.42 13.3452 154.66 13.3165C154.28 13.3202 153.901 13.2803 153.529 13.1977C153.221 13.132 152.928 13.0036 152.666 12.8195C152.428 12.6478 152.239 12.4116 152.116 12.1353C151.982 11.8086 151.918 11.4545 151.927 11.0982C151.9 10.746 151.954 10.3922 152.084 10.0672C152.214 9.7422 152.416 9.45581 152.672 9.23271C153.239 8.80994 153.921 8.59856 154.613 8.63131C155.014 8.63131 155.412 8.65291 155.804 8.68893C156.189 8.72747 156.572 8.79607 156.948 8.8942V8.37202C156.948 8.01189 156.732 7.7238 156.296 7.50412C155.707 7.25063 155.072 7.13638 154.437 7.16921C154.181 7.16921 153.961 7.16921 153.762 7.19802C153.59 7.21218 153.42 7.2423 153.253 7.28805V6.20768C153.418 6.16795 153.586 6.14981 153.755 6.15366C154.034 6.15366 154.429 6.15366 154.94 6.15366C155.761 6.11113 156.576 6.32917 157.282 6.78027C157.559 6.96336 157.787 7.22113 157.941 7.52771C158.096 7.83428 158.172 8.17887 158.162 8.52687V13.2625H157.43ZM156.921 9.74049L156.485 9.65045C156.356 9.62172 156.225 9.60128 156.094 9.58923C155.956 9.58923 155.797 9.56763 155.618 9.56402H154.903C153.715 9.56402 153.124 10.0682 153.124 11.0801C153.114 11.3106 153.172 11.5386 153.29 11.732C153.401 11.8981 153.553 12.0288 153.728 12.1101C153.915 12.1984 154.113 12.2578 154.316 12.2866C154.526 12.3153 154.738 12.3297 154.95 12.3298C155.184 12.3303 155.417 12.311 155.648 12.2722C155.865 12.2362 156.079 12.1795 156.286 12.1029C156.452 12.0426 156.608 11.9525 156.745 11.8364C156.799 11.795 156.842 11.741 156.873 11.6784C156.903 11.6159 156.92 11.5467 156.921 11.4763V9.74049Z" fill="#646567"/>
<path d="M160.244 13.2753V4.33789L161.521 4.09766V7.02224C162.115 6.57442 162.843 6.35619 163.578 6.40599C163.978 6.40234 164.377 6.44674 164.767 6.53829C165.112 6.61882 165.429 6.7932 165.685 7.04313C165.967 7.33249 166.17 7.69258 166.275 8.08762C166.43 8.66084 166.501 9.25463 166.485 9.84934C166.503 10.4534 166.416 11.056 166.228 11.6285C166.089 12.0286 165.856 12.3874 165.55 12.6729C165.265 12.9224 164.925 13.0979 164.561 13.1848C164.184 13.2729 163.798 13.3172 163.412 13.3171C163.008 13.3199 162.605 13.2707 162.213 13.1708C161.833 13.0706 161.47 12.9096 161.139 12.6938L160.613 13.2613L160.244 13.2753ZM161.491 11.5345C161.893 12.0405 162.51 12.2923 163.341 12.29C163.635 12.2932 163.928 12.2699 164.218 12.2203C164.448 12.1822 164.661 12.07 164.825 11.9C165.001 11.6901 165.118 11.435 165.164 11.1619C165.248 10.7242 165.286 10.2781 165.275 9.83193C165.289 9.37342 165.246 8.91502 165.15 8.46712C165.094 8.19032 164.957 7.93773 164.757 7.74294C164.57 7.58159 164.34 7.48102 164.096 7.45396C163.784 7.41209 163.469 7.39231 163.155 7.39477C162.839 7.3735 162.523 7.42892 162.232 7.55656C161.941 7.68419 161.684 7.88044 161.481 8.1294H161.464V11.5345H161.491Z" fill="#646567"/>
<path d="M168.6 5.36343C168.337 5.3657 168.079 5.30225 167.862 5.18163C167.765 5.13814 167.683 5.07514 167.625 4.99864C167.566 4.92214 167.533 4.83468 167.527 4.74461C167.526 4.65048 167.556 4.55777 167.612 4.47562C167.668 4.39347 167.75 4.32472 167.849 4.27613C168.072 4.15613 168.333 4.09395 168.6 4.09783C168.852 4.09403 169.099 4.15656 169.304 4.27613C169.399 4.32714 169.476 4.39678 169.53 4.47865C169.583 4.56051 169.61 4.65197 169.608 4.74461C169.605 4.83215 169.576 4.91771 169.522 4.99387C169.469 5.07002 169.394 5.13447 169.304 5.18163C169.1 5.30384 168.853 5.36776 168.6 5.36343ZM167.742 13.3172V6.51716H169.338V13.3172H167.742Z" fill="#646567"/>
<path d="M171.689 13.3172V4.33179L172.73 4.09766V13.3172H171.689Z" fill="#646567"/>
<path d="M175.885 5.36343C175.622 5.3657 175.365 5.30225 175.147 5.18163C175.05 5.13814 174.969 5.07514 174.91 4.99864C174.851 4.92214 174.818 4.83468 174.813 4.74461C174.812 4.65048 174.841 4.55777 174.897 4.47562C174.954 4.39347 175.035 4.32472 175.134 4.27613C175.357 4.15613 175.619 4.09395 175.885 4.09783C176.137 4.09403 176.384 4.15656 176.589 4.27613C176.684 4.32714 176.761 4.39678 176.815 4.47865C176.868 4.56051 176.895 4.65197 176.894 4.74461C176.89 4.83215 176.861 4.91771 176.808 4.99387C176.755 5.07002 176.679 5.13447 176.589 5.18163C176.385 5.30384 176.138 5.36776 175.885 5.36343ZM175.027 13.3172V6.51716H176.623V13.3172H175.027Z" fill="#646567"/>
<path d="M182.09 13.2641C181.834 13.3086 181.573 13.3252 181.313 13.3136C181.054 13.3093 180.797 13.2797 180.544 13.2253C180.257 13.1592 179.987 13.0391 179.749 12.8719C179.492 12.6943 179.28 12.4622 179.13 12.1934C178.948 11.8468 178.863 11.4611 178.881 11.0732V7.10485H177.932V6.39811H178.881V4.34148L180.192 4.09766V6.40164H181.782V7.10839H180.192V10.9955C180.185 11.2364 180.226 11.4764 180.313 11.7022C180.382 11.8673 180.496 12.0113 180.643 12.1192C180.78 12.2148 180.936 12.2822 181.101 12.3171C181.268 12.3514 181.439 12.368 181.61 12.3666H181.859L182.094 12.3454L182.09 13.2641Z" fill="#646567"/>
<path d="M185.06 15.368L186.061 12.6495H185.52L183.137 6.16178H184.533L186.326 12.0924L188.166 6.14844H189.38L186.096 15.3546L185.06 15.368Z" fill="#646567"/>
<path d="M106.135 35.8552V23.5625H113.419V24.9722H107.873V28.7784H111.283V30.2234H107.873V34.4243H113.419V35.8552H106.135Z" fill="#646567"/>
<path d="M123.049 34.825V28.8114C123.061 28.4957 122.987 28.1823 122.835 27.8994C122.697 27.655 122.491 27.4495 122.237 27.3047C121.958 27.1499 121.651 27.0435 121.331 26.9907C120.96 26.9277 120.584 26.8964 120.207 26.8971C119.479 26.8629 118.754 27.0069 118.106 27.3147C117.593 27.5887 117.339 28.082 117.341 28.7947V34.8083H115.5V25.7245H117.388V26.3693C117.821 26.0718 118.324 25.8716 118.856 25.7846C119.656 25.6526 120.468 25.5933 121.28 25.6075C121.747 25.6048 122.211 25.6679 122.657 25.7946C123.07 25.9076 123.458 26.0874 123.802 26.3258C124.141 26.565 124.414 26.8746 124.598 27.2293C124.783 27.584 124.874 27.9738 124.864 28.3671V34.825H123.049Z" fill="#646567"/>
<path d="M128.972 35.845L125.906 26.6289H127.747L129.52 32.5023L130.068 34.6473L130.617 32.5023L132.39 26.6323H134.231L131.165 35.8484L128.972 35.845Z" fill="#646567"/>
<path d="M137.379 24.2261C137.115 24.2274 136.858 24.1415 136.641 23.9799C136.545 23.9218 136.464 23.8378 136.406 23.7358C136.348 23.6338 136.315 23.5174 136.311 23.3977C136.31 23.2727 136.339 23.1496 136.396 23.0405C136.452 22.9314 136.533 22.8402 136.632 22.7756C136.853 22.6154 137.113 22.5329 137.379 22.5394C137.632 22.5329 137.88 22.6158 138.086 22.7756C138.181 22.8429 138.259 22.9352 138.312 23.0439C138.366 23.1527 138.393 23.2744 138.392 23.3977C138.388 23.5146 138.359 23.6289 138.306 23.7304C138.252 23.832 138.177 23.9177 138.086 23.9799C137.881 24.1444 137.633 24.2309 137.379 24.2261ZM136.516 34.8317V25.7697H138.107V34.8317H136.516Z" fill="#646567"/>
<path d="M141.514 34.825V25.7389H142.866V26.6695C143.648 25.9895 144.644 25.6123 145.676 25.6055V26.8596C145.05 26.8338 144.428 26.968 143.867 27.2499C143.659 27.3449 143.482 27.4986 143.357 27.6927C143.233 27.8868 143.167 28.1129 143.167 28.344V34.825H141.514Z" fill="#646567"/>
<path d="M152.508 34.8245C151.834 34.8312 151.162 34.769 150.504 34.6391C149.948 34.5323 149.434 34.2923 149.013 33.9437C148.575 33.555 148.255 33.069 148.084 32.5332C147.845 31.7807 147.736 30.9987 147.762 30.2154C147.735 29.4245 147.844 28.6347 148.084 27.8744C148.255 27.3383 148.58 26.8536 149.024 26.4705C149.453 26.132 149.968 25.8984 150.522 25.7917C151.176 25.66 151.845 25.5978 152.515 25.6063C153.18 25.5973 153.844 25.6596 154.494 25.7917C155.036 25.8989 155.536 26.1393 155.941 26.4871C156.365 26.8821 156.669 27.3717 156.823 27.9076C157.041 28.6634 157.141 29.4438 157.12 30.2253C157.141 31.0057 157.048 31.7851 156.845 32.5431C156.708 33.0719 156.415 33.5563 155.998 33.9437C155.596 34.2913 155.094 34.5278 154.551 34.6258C153.88 34.7587 153.195 34.8253 152.508 34.8245ZM152.508 33.4636C152.871 33.4651 153.234 33.4396 153.593 33.3875C153.93 33.3426 154.245 33.2092 154.501 33.0034C154.791 32.7406 155 32.413 155.109 32.0531C155.278 31.4793 155.354 30.8857 155.333 30.2916C155.349 29.693 155.286 29.0948 155.145 28.5102C155.054 28.1316 154.861 27.7798 154.584 27.487C154.342 27.2546 154.029 27.0933 153.687 27.0235C153.296 26.9465 152.897 26.9099 152.497 26.9142C152.085 26.9115 151.674 26.937 151.267 26.9904C150.921 27.036 150.6 27.1796 150.348 27.4009C150.062 27.6798 149.862 28.0223 149.766 28.3943C149.61 29.005 149.542 29.6317 149.563 30.2585C149.542 30.8716 149.614 31.4844 149.777 32.0796C149.875 32.4401 150.082 32.7682 150.373 33.0266C150.631 33.2313 150.952 33.3575 151.292 33.3875C151.695 33.4386 152.101 33.4673 152.508 33.4736V33.4636Z" fill="#646567"/>
<path d="M166.753 34.825V28.8115C166.764 28.4955 166.689 28.182 166.535 27.8994C166.399 27.6553 166.194 27.4497 165.941 27.3047C165.661 27.15 165.353 27.0435 165.032 26.9907C164.662 26.9278 164.286 26.8965 163.909 26.8972C163.181 26.8634 162.456 27.0074 161.808 27.3148C161.296 27.5887 161.041 28.082 161.043 28.7948V34.8083H159.203V25.7245H161.091V26.3693C161.525 26.0712 162.028 25.871 162.561 25.7847C163.361 25.6525 164.173 25.5932 164.985 25.6076C165.45 25.6048 165.913 25.6679 166.358 25.7947C166.771 25.9068 167.159 26.0867 167.503 26.3259C167.828 26.5541 168.094 26.8463 168.282 27.1811C168.476 27.5468 168.574 27.9498 168.568 28.3571V34.815L166.753 34.825Z" fill="#646567"/>
<path d="M183.442 34.8083V28.5828C183.461 28.3382 183.427 28.0925 183.34 27.8619C183.254 27.6313 183.117 27.4212 182.94 27.2454C182.606 26.9467 181.99 26.7974 181.093 26.7974C180.225 26.7974 179.629 26.9479 179.301 27.2454C179.128 27.4234 178.995 27.6342 178.911 27.8645C178.827 28.0947 178.794 28.3394 178.813 28.5828V34.8083H176.986V28.5828C176.99 28.3238 176.959 28.0655 176.896 27.8138C176.839 27.5985 176.719 27.4035 176.55 27.2521C176.345 27.088 176.102 26.9734 175.841 26.9178C175.093 26.7663 174.32 26.7663 173.572 26.9178C173.31 26.9755 173.065 27.0898 172.856 27.2521C172.674 27.4034 172.544 27.6037 172.482 27.8272C172.41 28.0752 172.375 28.3319 172.378 28.5895V34.815H170.648V25.7008H172.378V26.4898C172.705 26.1631 173.114 25.9235 173.565 25.7944C174.063 25.6614 174.578 25.5983 175.094 25.6071C175.661 25.5936 176.226 25.6623 176.772 25.8111C177.224 25.9481 177.652 26.1535 178.038 26.4196C178.442 26.1462 178.893 25.9437 179.37 25.8211C179.909 25.6809 180.465 25.6123 181.024 25.6172C181.551 25.6161 182.078 25.6586 182.598 25.7442C183.066 25.8166 183.517 25.9659 183.933 26.1856C184.312 26.3857 184.633 26.6742 184.867 27.0248C185.116 27.428 185.236 27.8932 185.213 28.3621V34.825L183.442 34.8083Z" fill="#646567"/>
<path d="M196.353 34.7193C195.532 34.807 194.705 34.8402 193.879 34.8186H193.309C192.552 34.8322 191.796 34.7509 191.063 34.577C190.47 34.4334 189.934 34.1385 189.516 33.7266C189.077 33.2634 188.771 32.7073 188.625 32.1084C188.416 31.2698 188.32 30.4106 188.341 29.5504C188.341 28.273 188.78 27.2968 189.66 26.6217C190.54 25.9467 191.717 25.608 193.19 25.6058C193.817 25.5996 194.441 25.6754 195.044 25.8308C195.582 25.9675 196.076 26.2206 196.486 26.5688C196.9 26.936 197.211 27.3903 197.391 27.8925C197.612 28.5343 197.717 29.205 197.701 29.878V30.8708H190.216C190.219 31.2959 190.304 31.7172 190.468 32.115C190.606 32.4368 190.841 32.7158 191.146 32.9191C191.484 33.1354 191.869 33.2811 192.275 33.346C192.803 33.4374 193.341 33.4795 193.879 33.4718C194.284 33.4724 194.689 33.4503 195.091 33.4056C195.502 33.3626 195.924 33.2997 196.353 33.2203V34.7193ZM195.924 29.9177C195.913 29.371 195.829 28.8275 195.675 28.2995C195.575 27.9587 195.383 27.6467 195.116 27.3928C194.883 27.188 194.59 27.051 194.272 26.999C193.907 26.9392 193.536 26.9104 193.165 26.913C192.631 26.8922 192.098 26.9698 191.597 27.1413C191.244 27.2701 190.939 27.4882 190.717 27.77C190.503 28.0543 190.361 28.3788 190.302 28.7198C190.227 29.1157 190.182 29.516 190.169 29.9177H195.924Z" fill="#646567"/>
<path d="M207.335 34.825V28.8115C207.346 28.4959 207.272 28.1828 207.122 27.8994C206.983 27.6558 206.777 27.4505 206.524 27.3047C206.245 27.1494 205.937 27.043 205.615 26.9907C205.246 26.9278 204.872 26.8965 204.496 26.8972C203.767 26.8631 203.042 27.0071 202.392 27.3148C201.885 27.5887 201.628 28.0832 201.628 28.7948V34.8083H199.785V25.7245H201.672V26.3693C202.099 26.0742 202.595 25.8741 203.12 25.7847C203.92 25.6525 204.731 25.5932 205.543 25.6076C206.008 25.6048 206.471 25.6679 206.915 25.7947C207.329 25.9068 207.718 26.0868 208.063 26.3259C208.395 26.5526 208.669 26.8448 208.863 27.1811C209.06 27.5463 209.158 27.9496 209.15 28.3571V34.815L207.335 34.825Z" fill="#646567"/>
<path d="M215.365 34.7589C215.043 34.8208 214.715 34.8434 214.388 34.8262C214.067 34.8217 213.747 34.7812 213.434 34.7051C213.083 34.6244 212.75 34.4712 212.457 34.2547C212.135 34.0186 211.87 33.7092 211.683 33.3504C211.459 32.8879 211.352 32.3743 211.373 31.8578V26.5563H210.191V25.6184H211.373V22.8752L213.001 22.5391V25.6083H214.977V26.5462H213.001V31.7233C212.989 32.0432 213.04 32.3622 213.151 32.6612C213.237 32.8798 213.377 33.0711 213.558 33.2159C213.727 33.3456 213.921 33.4351 214.128 33.4781C214.341 33.5264 214.56 33.5501 214.779 33.5487C214.893 33.5487 214.997 33.5487 215.104 33.5487C215.212 33.5487 215.293 33.5487 215.394 33.5218L215.365 34.7589Z" fill="#646567"/>
<path d="M225.742 34.7549L224.837 34.0664C223.853 34.5986 222.722 34.8606 221.58 34.8211C221.01 34.8264 220.441 34.7753 219.883 34.6688C219.419 34.5857 218.978 34.4204 218.583 34.1822C218.228 33.9616 217.944 33.6574 217.762 33.3017C217.56 32.8854 217.462 32.433 217.476 31.9776C217.476 30.8919 217.85 30.0919 218.598 29.5777C219.444 29.0359 220.461 28.7637 221.493 28.8031C222.097 28.8031 222.695 28.8296 223.281 28.8793C223.86 28.9285 224.434 29.0159 225 29.1408V28.4787C225 28.0197 224.674 27.6479 224.023 27.3632C223.136 27.0368 222.183 26.89 221.229 26.9329C220.867 26.9329 220.505 26.9329 220.226 26.966C219.968 26.9848 219.713 27.0247 219.463 27.0851V25.6882C219.71 25.6367 219.963 25.6144 220.215 25.622C220.639 25.622 221.229 25.6055 221.992 25.6055C223.457 25.6055 224.631 25.8736 225.514 26.4098C225.931 26.6456 226.273 26.9778 226.506 27.3729C226.738 27.7681 226.853 28.2123 226.838 28.6608V34.7549H225.742ZM224.978 30.2199L224.323 30.104C224.13 30.0689 223.936 30.0435 223.74 30.0279C223.53 30.0279 223.295 30.0014 223.017 29.9948C222.738 29.9882 222.387 29.9948 221.931 29.9948C220.15 29.9948 219.26 30.6447 219.26 31.9445C219.244 32.2408 219.332 32.5341 219.51 32.782C219.675 32.9965 219.901 33.165 220.165 33.2686C220.445 33.3837 220.743 33.4606 221.048 33.497C221.364 33.5366 221.684 33.5565 222.003 33.5566C222.355 33.5559 222.706 33.5305 223.053 33.4805C223.378 33.4367 223.698 33.3635 224.008 33.262C224.257 33.1879 224.491 33.076 224.699 32.931C224.777 32.8782 224.841 32.81 224.886 32.7315C224.932 32.6529 224.957 32.5661 224.96 32.4775L224.978 30.2199Z" fill="#646567"/>
<path d="M228.918 35.8561V22.8888L230.999 22.5391V35.8282L228.918 35.8561Z" fill="#646567"/>
<path d="M106.135 58.3903V46.0977H113.419V47.509H107.873V51.3196H111.283V52.7521H107.873V56.9508H113.419V58.3798L106.135 58.3903Z" fill="#646567"/>
<path d="M119.652 57.2863C119.329 57.3517 119 57.3754 118.671 57.3569C118.349 57.3525 118.028 57.3119 117.714 57.2358C117.361 57.155 117.028 57.0016 116.734 56.785C116.411 56.5479 116.145 56.2384 115.956 55.88C115.731 55.4171 115.624 54.9031 115.645 54.3862V49.0907H114.459V48.1521H115.645V45.4067L117.279 45.0703V48.142H119.26V49.0806H117.279V54.2583C117.267 54.5785 117.319 54.8977 117.43 55.197C117.514 55.4158 117.656 55.6066 117.838 55.7487C118.007 55.8795 118.203 55.9703 118.41 56.0145C118.618 56.0605 118.831 56.0831 119.044 56.0818C119.158 56.0818 119.263 56.0818 119.371 56.0818C119.479 56.0818 119.56 56.0818 119.662 56.0549L119.652 57.2863Z" fill="#646567"/>
<path d="M130.338 57.363V51.3908C130.338 50.6742 130.071 50.1776 129.536 49.9011C128.885 49.6299 128.178 49.4896 127.462 49.4896C126.746 49.4896 126.039 49.6299 125.387 49.9011C124.88 50.1765 124.622 50.6675 124.622 51.3743V57.3464H122.783V45.4021L124.695 45.0703V48.9257C125.122 48.6305 125.619 48.4316 126.145 48.345C126.949 48.2083 127.766 48.1483 128.583 48.1659C129.053 48.1633 129.521 48.2259 129.972 48.3517C130.377 48.467 130.758 48.6467 131.096 48.8825C131.415 49.1148 131.675 49.4081 131.858 49.7419C132.056 50.1041 132.155 50.5048 132.148 50.9098V57.3199L130.338 57.363Z" fill="#646567"/>
<path d="M135.299 46.7586C135.036 46.7611 134.778 46.6763 134.561 46.5155C134.465 46.4574 134.384 46.3733 134.326 46.2712C134.268 46.1692 134.235 46.0527 134.23 45.9329C134.23 45.8072 134.259 45.6834 134.315 45.5737C134.371 45.464 134.453 45.3721 134.552 45.3069C134.773 45.1479 135.033 45.0655 135.299 45.0705C135.551 45.0654 135.799 45.1483 136.005 45.3069C136.101 45.3748 136.179 45.4677 136.232 45.5772C136.286 45.6866 136.313 45.8089 136.311 45.9329C136.308 46.0499 136.279 46.1642 136.225 46.2659C136.172 46.3675 136.097 46.4532 136.005 46.5155C135.801 46.679 135.552 46.7644 135.299 46.7586ZM134.432 57.363V48.2968H136.024V57.363H134.432Z" fill="#646567"/>
<path d="M142.446 57.3637C141.876 57.3692 141.308 57.307 140.751 57.1783C140.274 57.0711 139.833 56.8297 139.476 56.4799C139.1 56.0887 138.825 55.6035 138.676 55.0698C138.469 54.3173 138.374 53.5357 138.396 52.7527C138.374 51.9614 138.471 51.1715 138.685 50.4124C138.842 49.8793 139.125 49.3965 139.507 49.009C139.873 48.6704 140.316 48.4367 140.792 48.3304C141.366 48.2005 141.951 48.1383 142.537 48.145H142.723C143.014 48.1445 143.306 48.1622 143.595 48.198V49.6246C143.451 49.5543 143.297 49.5085 143.139 49.4889C142.939 49.4645 142.738 49.4534 142.537 49.4558C142.179 49.4531 141.821 49.4786 141.466 49.532C141.165 49.5756 140.885 49.7194 140.666 49.9424C140.417 50.2208 140.242 50.5634 140.159 50.9354C140.024 51.546 139.965 52.1724 139.983 52.7991C139.963 53.4132 140.026 54.0272 140.169 54.6229C140.253 54.984 140.433 55.3125 140.688 55.5696C140.914 55.7731 141.193 55.899 141.488 55.9304C141.836 55.9724 142.187 55.9923 142.537 55.99C142.696 55.99 142.855 55.9789 143.013 55.9569C143.18 55.9337 143.372 55.9073 143.595 55.8708V57.3008C143.28 57.3339 142.95 57.3505 142.619 57.3505L142.446 57.3637Z" fill="#646567"/>
<path d="M154.993 57.2939L154.091 56.6054C153.105 57.1379 151.973 57.4 150.828 57.3601C150.259 57.3656 149.69 57.3145 149.132 57.2078C148.666 57.1252 148.223 56.9598 147.827 56.7212C147.473 56.4989 147.189 56.1952 147.004 55.8407C146.802 55.4244 146.704 54.972 146.718 54.5166C146.718 53.4309 147.093 52.6298 147.842 52.1134C148.689 51.5728 149.708 51.3017 150.741 51.3422C151.347 51.3422 151.945 51.3687 152.536 51.4183C153.114 51.4667 153.689 51.553 154.254 51.6765V51.0145C154.254 50.5543 153.927 50.1836 153.275 49.8956C152.384 49.5657 151.426 49.4155 150.466 49.4554C150.082 49.4554 149.741 49.4554 149.462 49.4885C149.204 49.5067 148.948 49.5466 148.697 49.6076V48.2306C148.943 48.1786 149.195 48.1552 149.447 48.1611C149.872 48.1611 150.466 48.1445 151.227 48.1445C152.696 48.1445 153.872 48.4138 154.754 48.9522C155.171 49.1877 155.514 49.5194 155.747 49.9139C155.979 50.3084 156.095 50.7519 156.081 51.1998V57.2939H154.993ZM154.228 52.7622L153.569 52.6464C153.376 52.6113 153.181 52.5859 152.985 52.5702C152.778 52.5537 152.539 52.5405 152.26 52.5371C151.981 52.5338 151.629 52.5371 151.173 52.5371C149.389 52.5371 148.498 53.1859 148.498 54.4835C148.482 54.7809 148.57 55.0751 148.748 55.3243C148.916 55.5363 149.142 55.7042 149.404 55.8109C149.685 55.926 149.983 56.0029 150.288 56.0393C150.606 56.0762 150.925 56.095 151.245 56.0956C151.597 56.0966 151.949 56.0711 152.296 56.0195C152.622 55.9751 152.942 55.9031 153.253 55.8043C153.503 55.7302 153.737 55.6183 153.946 55.4733C154.024 55.4205 154.088 55.3524 154.134 55.2739C154.18 55.1954 154.206 55.1086 154.21 55.0198L154.228 52.7622Z" fill="#646567"/>
<path d="M158.162 58.3874V45.42L160.243 45.0703V58.3594L158.162 58.3874Z" fill="#646567"/>
<path d="M106.135 79.9021V67.6094H113.419V69.0207H107.873V72.8313H111.283V74.2638H107.873V78.466H113.419V79.8985L106.135 79.9021Z" fill="#646567"/>
<path d="M119.54 79.9066C118.973 79.9129 118.407 79.8519 117.853 79.7246C117.378 79.616 116.938 79.375 116.581 79.0267C116.206 78.6358 115.931 78.1509 115.783 77.6176C115.575 76.866 115.481 76.0847 115.503 75.3022C115.48 74.5103 115.578 73.7196 115.792 72.9603C115.945 72.4276 116.227 71.9455 116.609 71.5612C116.977 71.2173 117.423 70.9802 117.904 70.8732C118.475 70.7437 119.059 70.6816 119.644 70.6879H119.833C120.123 70.6881 120.414 70.7046 120.703 70.7376V72.1632C120.557 72.0955 120.402 72.0509 120.244 72.0309C120.045 72.0062 119.844 71.9952 119.644 71.9978C119.288 71.9942 118.932 72.0185 118.579 72.0706C118.278 72.1166 117.999 72.2613 117.781 72.484C117.532 72.7623 117.357 73.1045 117.272 73.4764C117.139 74.0867 117.079 74.7125 117.096 75.3386C117.077 75.9513 117.14 76.5639 117.285 77.1578C117.369 77.5196 117.548 77.8488 117.803 78.1072C118.027 78.3104 118.304 78.4363 118.598 78.4677C118.945 78.5095 119.294 78.5294 119.644 78.5272C119.804 78.5262 119.963 78.514 120.122 78.4909C120.288 78.471 120.48 78.4412 120.703 78.4082V79.8338C120.389 79.8669 120.059 79.8834 119.729 79.8834L119.54 79.9066Z" fill="#646567"/>
<path d="M127.533 79.9064C126.859 79.9138 126.187 79.8527 125.529 79.7245C124.974 79.6147 124.46 79.3741 124.038 79.0266C123.602 78.6374 123.281 78.1522 123.109 77.6175C122.871 76.8656 122.762 76.0846 122.787 75.3022C122.762 74.5111 122.871 73.7213 123.109 72.9604C123.28 72.4251 123.607 71.9419 124.053 71.5613C124.477 71.2188 124.99 70.9819 125.543 70.8733C126.197 70.7433 126.864 70.6812 127.533 70.6881C128.199 70.6808 128.864 70.7429 129.515 70.8733C130.058 70.979 130.559 71.2193 130.962 71.5679C131.387 71.9625 131.691 72.4516 131.845 72.9869C132.066 73.7471 132.167 74.5323 132.145 75.3187C132.164 76.0982 132.072 76.8766 131.87 77.6341C131.729 78.1619 131.437 78.6459 131.024 79.0365C130.62 79.3815 130.119 79.6164 129.577 79.7146C128.905 79.8464 128.22 79.9108 127.533 79.9064ZM127.533 78.5503C127.896 78.5501 128.259 78.5247 128.618 78.4742C128.955 78.4297 129.269 78.2951 129.522 78.0872C129.812 77.826 130.022 77.4998 130.13 77.1413C130.303 76.5675 130.38 75.9731 130.358 75.3783C130.373 74.7802 130.309 74.1826 130.166 73.5988C130.077 73.2201 129.884 72.8684 129.606 72.5767C129.365 72.3449 129.054 72.1847 128.712 72.117C128.32 72.0404 127.919 72.0037 127.518 72.0078C127.108 72.0042 126.698 72.0286 126.292 72.0806C125.946 72.1267 125.624 72.2713 125.373 72.494C125.086 72.7723 124.884 73.1145 124.787 73.4863C124.633 74.0967 124.565 74.7224 124.584 75.3485C124.562 75.9613 124.635 76.5738 124.802 77.1677C124.898 77.5287 125.104 77.8576 125.395 78.117C125.654 78.3196 125.974 78.4453 126.314 78.4775C126.718 78.5243 127.125 78.5486 127.533 78.5503Z" fill="#646567"/>
<path d="M142.82 79.9003V73.9035C142.832 73.5867 142.759 73.2722 142.606 72.9881C142.467 72.7451 142.261 72.5401 142.008 72.3934C141.73 72.2383 141.423 72.1329 141.102 72.0827C140.732 72.0182 140.356 71.9868 139.979 71.9892C139.251 71.954 138.526 72.097 137.877 72.4034C137.365 72.6818 137.11 73.1763 137.112 73.8868V79.9003H135.271V70.8032H137.16V71.4513C137.593 71.1538 138.095 70.9536 138.627 70.8666C139.427 70.7346 140.239 70.6753 141.052 70.6896C141.518 70.6884 141.982 70.7515 142.429 70.8767C142.843 70.9892 143.231 71.1704 143.574 71.4112C143.9 71.6405 144.165 71.9353 144.35 72.2732C144.546 72.6395 144.644 73.0439 144.636 73.4525V79.907L142.82 79.9003Z" fill="#646567"/>
<path d="M151.47 79.9064C150.796 79.9141 150.124 79.8531 149.465 79.7244C148.909 79.6146 148.395 79.374 147.973 79.0265C147.535 78.6382 147.215 78.1527 147.043 77.6175C146.803 76.8659 146.695 76.0846 146.721 75.3022C146.694 74.511 146.803 73.7209 147.043 72.9604C147.214 72.4253 147.539 71.942 147.984 71.5613C148.409 71.2194 148.922 70.9826 149.476 70.8733C150.131 70.7432 150.8 70.681 151.47 70.6881C152.136 70.6808 152.8 70.7429 153.45 70.8733C153.993 70.9803 154.494 71.2204 154.898 71.5679C155.322 71.9634 155.626 72.4522 155.782 72.9869C156.001 73.7473 156.101 74.5325 156.078 75.3187C156.1 76.0982 156.007 76.8768 155.803 77.634C155.665 78.1629 155.372 78.6476 154.956 79.0365C154.553 79.3826 154.051 79.6177 153.508 79.7145C152.839 79.846 152.155 79.9104 151.47 79.9064ZM151.47 78.5502C151.834 78.5501 152.197 78.5247 152.556 78.4742C152.893 78.4297 153.208 78.295 153.461 78.0872C153.754 77.8271 153.965 77.5006 154.073 77.1412C154.243 76.5669 154.318 75.9728 154.297 75.3783C154.315 74.7801 154.25 74.1823 154.106 73.5988C154.018 73.2204 153.826 72.8686 153.548 72.5767C153.305 72.3455 152.993 72.1854 152.65 72.117C152.259 72.0403 151.86 72.0037 151.459 72.0078C151.048 72.0041 150.636 72.0285 150.229 72.0806C149.882 72.1267 149.56 72.2713 149.309 72.494C149.022 72.7718 148.821 73.1142 148.726 73.4863C148.571 74.0964 148.502 74.7224 148.523 75.3485C148.5 75.961 148.572 76.5735 148.737 77.1677C148.835 77.529 149.042 77.858 149.334 78.1169C149.593 78.3202 149.914 78.4461 150.254 78.4775C150.657 78.5242 151.064 78.5485 151.47 78.5502Z" fill="#646567"/>
<path d="M170.914 79.8936V73.6738C170.934 73.4293 170.9 73.1834 170.813 72.9528C170.727 72.7222 170.59 72.5122 170.412 72.3369C170.078 72.0361 169.462 71.8857 168.565 71.8857C167.697 71.8857 167.102 72.0361 166.773 72.3369C166.6 72.5145 166.467 72.7252 166.383 72.9554C166.299 73.1857 166.265 73.4304 166.285 73.6738V79.8936H164.459V73.6738C164.462 73.4138 164.432 73.1544 164.369 72.9017C164.312 72.6872 164.192 72.4932 164.023 72.3436C163.823 72.1807 163.586 72.0661 163.331 72.0094C162.961 71.9282 162.582 71.8911 162.203 71.8991C161.819 71.891 161.435 71.9315 161.061 72.0194C160.798 72.0764 160.552 72.1907 160.342 72.3536C160.173 72.5052 160.053 72.7 159.996 72.9151C159.923 73.1629 159.888 73.4196 159.892 73.6771V79.897H158.162V70.7928H159.892V71.5715C160.219 71.2449 160.628 71.0054 161.079 70.8763C161.577 70.7451 162.091 70.6821 162.608 70.6892C163.174 70.6756 163.74 70.7443 164.286 70.8931C164.737 71.0308 165.164 71.2373 165.548 71.5047C165.954 71.2333 166.406 71.032 166.884 70.9098C167.423 70.7712 167.979 70.7027 168.537 70.7059C169.065 70.7048 169.591 70.7473 170.111 70.8329C170.579 70.9081 171.03 71.0572 171.447 71.2741C171.825 71.4751 172.146 71.7632 172.381 72.113C172.63 72.5161 172.75 72.9811 172.727 73.4498V79.907L170.914 79.8936Z" fill="#646567"/>
<path d="M175.881 69.2976C175.618 69.3002 175.36 69.2154 175.143 69.0546C175.047 68.9962 174.966 68.912 174.908 68.81C174.85 68.7081 174.817 68.5917 174.813 68.4719C174.811 68.3462 174.84 68.2223 174.897 68.1125C174.953 68.0028 175.035 67.9109 175.134 67.846C175.355 67.687 175.615 67.6045 175.881 67.6096C176.133 67.6045 176.381 67.6873 176.587 67.846C176.683 67.9136 176.761 68.0065 176.815 68.116C176.868 68.2255 176.895 68.3479 176.893 68.4719C176.89 68.5889 176.86 68.7031 176.807 68.8047C176.754 68.9063 176.678 68.9921 176.587 69.0546C176.383 69.218 176.134 69.3035 175.881 69.2976ZM175.015 79.9021V70.8359H176.624V79.9021H175.015Z" fill="#646567"/>
<path d="M184.057 79.9066C183.489 79.913 182.922 79.852 182.367 79.7246C181.891 79.6145 181.452 79.3737 181.094 79.0267C180.719 78.6358 180.445 78.1509 180.296 77.6176C180.09 76.8657 179.996 76.0846 180.017 75.3022C179.995 74.5104 180.092 73.72 180.306 72.9604C180.461 72.4279 180.743 71.9462 181.126 71.5612C181.492 71.2162 181.939 70.9789 182.42 70.8732C182.992 70.7434 183.576 70.6813 184.161 70.688H184.346C184.637 70.688 184.927 70.7046 185.216 70.7376V72.1632C185.072 72.0956 184.918 72.051 184.761 72.0309C184.562 72.0065 184.361 71.9954 184.161 71.9978C183.803 71.9942 183.446 72.0185 183.093 72.0706C182.792 72.1167 182.513 72.2614 182.295 72.4841C182.045 72.7618 181.871 73.1043 181.789 73.4764C181.654 74.0865 181.594 74.7125 181.613 75.3386C181.594 75.9511 181.657 76.5634 181.798 77.1578C181.883 77.5192 182.063 77.8482 182.316 78.1072C182.541 78.3104 182.82 78.4363 183.115 78.4677C183.462 78.5095 183.811 78.5294 184.161 78.5272C184.319 78.5262 184.478 78.514 184.635 78.4909C184.802 78.471 184.996 78.4412 185.216 78.4082V79.8338C184.902 79.8669 184.588 79.8834 184.242 79.8834L184.057 79.9066Z" fill="#646567"/>
<path d="M195.568 79.8367L194.659 79.1471C193.675 79.6805 192.545 79.943 191.402 79.903C190.833 79.9079 190.266 79.8579 189.708 79.7538C189.244 79.6686 188.802 79.5032 188.406 79.2665C188.052 79.0425 187.768 78.7372 187.584 78.3812C187.382 77.9643 187.284 77.5111 187.298 77.055C187.298 75.9674 187.672 75.1662 188.42 74.6512C189.267 74.1096 190.284 73.8381 191.315 73.8786C191.92 73.8786 192.517 73.9018 193.107 73.9516C193.684 74.0028 194.258 74.0903 194.822 74.2135V73.5504C194.822 73.0928 194.496 72.7182 193.845 72.433C192.959 72.1087 192.008 71.9628 191.055 72.0053C190.671 72.0053 190.331 72.0053 190.052 72.0385C189.794 72.0561 189.539 72.0949 189.289 72.1545V70.7553C189.534 70.7035 189.786 70.6812 190.038 70.689C190.461 70.689 191.055 70.689 191.818 70.689C193.28 70.689 194.453 70.9576 195.336 71.4947C195.753 71.7311 196.095 72.0639 196.328 72.4596C196.56 72.8553 196.675 73.3001 196.661 73.7493V79.8533L195.568 79.8367ZM194.804 75.2977L194.145 75.1783C193.964 75.1452 193.783 75.122 193.563 75.1021C193.342 75.0822 193.118 75.0756 192.839 75.0689H191.753C189.973 75.0689 189.082 75.7188 189.082 77.0185C189.067 77.3162 189.155 77.6108 189.332 77.8606C189.501 78.0738 189.728 78.242 189.991 78.348C190.271 78.4611 190.567 78.537 190.87 78.5735C191.187 78.6132 191.506 78.6331 191.826 78.6332C192.177 78.6325 192.528 78.607 192.875 78.5569C193.201 78.5131 193.521 78.4398 193.831 78.3381C194.08 78.2652 194.314 78.153 194.522 78.0065C194.601 77.9542 194.665 77.8861 194.711 77.8074C194.757 77.7287 194.782 77.6414 194.786 77.5523L194.804 75.2977Z" fill="#646567"/>
<path d="M198.744 79.903V66.9357L200.825 66.5859V79.8785L198.744 79.903Z" fill="#646567"/>
<path d="M41.8792 83.9998C33.5962 83.9964 25.5001 81.5464 18.6139 76.9594C11.7276 72.3724 6.36029 65.8542 3.19009 58.2285C0.0198965 50.6028 -0.810899 42.2117 0.802684 34.1156C2.41627 26.0196 6.40181 18.5818 12.2557 12.7421C16.1204 8.75567 20.7429 5.57601 25.8537 3.38859C30.9645 1.20117 36.4612 0.0497808 42.0232 0.00157884C47.5852 -0.0466231 53.1012 1.00933 58.2493 3.10784C63.3975 5.20636 68.0748 8.30542 72.0085 12.2243C75.9422 16.1431 79.0534 20.8033 81.1607 25.933C83.268 31.0626 84.3293 36.5591 84.2825 42.1018C84.2357 47.6445 83.0819 53.1225 80.8884 58.2161C78.6948 63.3098 75.5054 67.9172 71.5062 71.7695C67.6248 75.6592 63.0077 78.7429 57.9222 80.8423C52.8367 82.9416 47.3838 84.0149 41.8792 83.9998Z" fill="white"/>
<path d="M6.24219 62.4844C9.91102 68.7082 15.2119 73.8813 21.6076 77.4792C28.0033 81.0772 35.2666 82.9722 42.6612 82.9722C50.0558 82.9722 57.319 81.0772 63.7148 77.4792C70.1105 73.8813 75.4114 68.7082 79.0802 62.4844H6.24219Z" fill="#97BF29"/>
<path d="M60.3523 53.4324H52.7059C52.666 53.4359 52.6259 53.4359 52.5859 53.4324H52.0373C51.8309 53.4324 51.6329 53.3499 51.4869 53.2031C51.341 53.0562 51.259 52.857 51.259 52.6494V46.2678C51.2599 46.0604 51.3422 45.8618 51.4879 45.7152C51.6337 45.5685 51.8312 45.4857 52.0373 45.4848H60.3523V39.5138H52.0373C51.8306 39.5128 51.6326 39.4296 51.4867 39.2822C51.3409 39.1348 51.259 38.9353 51.259 38.7273V32.3561C51.259 32.1484 51.341 31.9493 51.4869 31.8024C51.6329 31.6556 51.8309 31.5731 52.0373 31.5731H60.3523V25.6055H44.7441V59.4104H60.3523V53.4324Z" fill="#97BF29"/>
<path d="M34.6457 59.3724C35.9766 59.2562 37.2162 58.6438 38.1216 57.6554C39.027 56.6669 39.5328 55.3737 39.5398 54.0293V48.5482C39.5328 47.2038 39.027 45.9106 38.1216 44.9221C37.2162 43.9337 35.9766 43.3213 34.6457 43.2051C34.4741 43.1904 34.3143 43.1112 34.198 42.9833C34.0817 42.8554 34.0175 42.6882 34.0181 42.5148V42.463C34.0175 42.2897 34.0817 42.1224 34.198 41.9945C34.3143 41.8666 34.4741 41.7875 34.6457 41.7727C35.9766 41.6565 37.2162 41.0442 38.1216 40.0557C39.027 39.0673 39.5328 37.774 39.5398 36.4297V30.9692C39.5328 29.6249 39.027 28.3317 38.1216 27.3432C37.2162 26.3547 35.9766 25.7424 34.6457 25.6262C34.6029 25.6229 34.5605 25.616 34.5188 25.6055H23.9316V31.5767H32.245C32.4518 31.5767 32.6502 31.6592 32.7967 31.806C32.9433 31.9528 33.0261 32.1521 33.027 32.3602V38.7319C33.027 38.8352 33.0067 38.9375 32.9674 39.033C32.9281 39.1285 32.8705 39.2153 32.7979 39.2883C32.7253 39.3614 32.6391 39.4194 32.5443 39.4589C32.4494 39.4985 32.3477 39.5188 32.245 39.5188H23.9316V45.4935H32.245C32.4518 45.4935 32.6502 45.576 32.7967 45.7228C32.9433 45.8697 33.0261 46.0689 33.027 46.2771V52.6521C33.027 52.8609 32.9446 53.061 32.7979 53.2086C32.6513 53.3562 32.4524 53.4391 32.245 53.4391H31.6997C31.6609 53.4427 31.6219 53.4427 31.5831 53.4391H23.9316V59.4104H34.4468C34.5123 59.383 34.5818 59.3666 34.6526 59.362" fill="#4FB4E2"/>
<path d="M19.6697 66.7294H22.3049C22.4647 66.7181 22.6139 66.6517 22.7228 66.5435C22.8317 66.4354 22.8922 66.2934 22.8922 66.146C22.8922 65.9986 22.8317 65.8566 22.7228 65.7484C22.6139 65.6402 22.4647 65.5738 22.3049 65.5625H19.6697C19.4093 65.5625 19.1515 65.6097 18.911 65.7015C18.6705 65.7932 18.4521 65.9277 18.2681 66.0972C18.0842 66.2667 17.9384 66.4679 17.8391 66.6893C17.7398 66.9107 17.689 67.1479 17.6895 67.3874V69.8771C17.688 70.1171 17.7381 70.3551 17.837 70.5773C17.9358 70.7994 18.0814 71.0015 18.2655 71.1717C18.4495 71.3419 18.6683 71.477 18.9093 71.5692C19.1502 71.6614 19.4087 71.7088 19.6697 71.7088H22.3049C22.4647 71.6975 22.6139 71.6311 22.7228 71.523C22.8317 71.4148 22.8922 71.2728 22.8922 71.1254C22.8922 70.978 22.8317 70.836 22.7228 70.7278C22.6139 70.6196 22.4647 70.5532 22.3049 70.5419H19.6697C19.48 70.5419 19.298 70.4726 19.1639 70.3492C19.0297 70.2258 18.9544 70.0585 18.9544 69.884V69.2191H22.079C22.1659 69.2253 22.2532 69.2149 22.3356 69.1886C22.4179 69.1622 22.4934 69.1205 22.5574 69.066C22.6213 69.0116 22.6724 68.9455 22.7073 68.8721C22.7422 68.7986 22.7602 68.7193 22.7602 68.6391C22.7602 68.559 22.7422 68.4796 22.7073 68.4062C22.6724 68.3327 22.6213 68.2667 22.5574 68.2122C22.4934 68.1578 22.4179 68.116 22.3356 68.0897C22.2532 68.0634 22.1659 68.0529 22.079 68.0591H18.9544V67.3943C18.9544 67.2198 19.0297 67.0525 19.1639 66.9291C19.298 66.8057 19.48 66.7364 19.6697 66.7364" fill="#1A171B"/>
<path d="M29.6415 70.3953C29.7628 70.1569 29.8263 69.894 29.8272 69.6274V67.2845C29.8276 67.0583 29.7827 66.8341 29.695 66.625C29.6074 66.4159 29.4787 66.2259 29.3163 66.0659C29.154 65.9059 28.9611 65.7791 28.7489 65.6927C28.5367 65.6063 28.3093 65.5621 28.0797 65.5625H26.7202C26.4905 65.5621 26.2631 65.6063 26.0509 65.6927C25.8387 65.7791 25.6459 65.9059 25.4835 66.0659C25.3212 66.2259 25.1925 66.4159 25.1048 66.625C25.0171 66.8341 24.9722 67.0583 24.9727 67.2845V69.6274C24.9721 69.8532 25.0169 70.0769 25.1045 70.2855C25.1922 70.4942 25.3209 70.6836 25.4833 70.8429C25.8076 71.175 26.2525 71.3666 26.7202 71.3755H28.0896C28.3594 71.3763 28.6254 71.3135 28.8655 71.1926L29.227 71.5487C29.3319 71.6513 29.4738 71.7088 29.6216 71.7088C29.7316 71.7076 29.8389 71.6744 29.9299 71.6134C30.021 71.5524 30.0918 71.4664 30.1335 71.366C30.1753 71.2656 30.1861 71.1554 30.1646 71.049C30.1432 70.9426 30.0904 70.8448 30.0129 70.7678L29.6415 70.3953ZM27.9072 70.2384V70.2548H26.7202C26.637 70.2543 26.5547 70.2378 26.478 70.206C26.4014 70.1742 26.3318 70.1279 26.2733 70.0697C26.2148 70.0114 26.1685 69.9424 26.1371 69.8665C26.1056 69.7906 26.0897 69.7093 26.0901 69.6274V67.2845C26.0892 67.1187 26.155 66.9593 26.2731 66.8411C26.3911 66.7229 26.5519 66.6556 26.7202 66.6539H28.0896C28.2579 66.6556 28.4186 66.7229 28.5367 66.8411C28.6548 66.9593 28.7205 67.1187 28.7196 67.2845V69.4738C28.6154 69.3702 28.4737 69.3117 28.3257 69.3111C28.1777 69.3105 28.0356 69.3678 27.9305 69.4705C27.8254 69.5732 27.766 69.7129 27.7654 69.8587C27.7647 70.0045 27.8229 70.1447 27.9271 70.2482" fill="#1A171B"/>
<path d="M35.7818 65.5625C35.6145 65.5634 35.4543 65.625 35.336 65.7339C35.2177 65.8428 35.1508 65.9902 35.1498 66.1442V69.8771C35.1498 69.9635 35.1313 70.049 35.0954 70.1288C35.0595 70.2087 35.0068 70.2812 34.9405 70.3423C34.8741 70.4034 34.7953 70.4518 34.7086 70.4849C34.6219 70.518 34.5289 70.535 34.435 70.535H33.1974C33.0075 70.535 32.8253 70.4658 32.6906 70.3425C32.556 70.2192 32.4799 70.0519 32.4789 69.8771V66.1442C32.4789 65.9899 32.4123 65.842 32.2938 65.7329C32.1752 65.6238 32.0145 65.5625 31.8469 65.5625C31.6793 65.5625 31.5185 65.6238 31.4 65.7329C31.2815 65.842 31.2149 65.9899 31.2149 66.1442V69.8771C31.2134 70.1174 31.2636 70.3557 31.3626 70.5781C31.4616 70.8005 31.6075 71.0026 31.7918 71.1729C31.976 71.3432 32.1951 71.4782 32.4364 71.5702C32.6776 71.6622 32.9363 71.7093 33.1974 71.7088H34.435C34.9608 71.7088 35.4651 71.5166 35.8369 71.1743C36.2087 70.8321 36.4176 70.368 36.4176 69.884V66.1442C36.4166 65.9896 36.3491 65.8417 36.23 65.7327C36.1109 65.6237 35.9498 65.5625 35.7818 65.5625Z" fill="#1A171B"/>
<path d="M41.719 65.5625H40.4818C40.2214 65.562 39.9635 65.6087 39.7228 65.6996C39.4822 65.7906 39.2635 65.9242 39.0794 66.0927C38.8952 66.2612 38.7493 66.4613 38.6499 66.6815C38.5504 66.9018 38.4995 67.1378 38.5 67.3761V71.0825C38.5 71.2359 38.5666 71.3829 38.685 71.4914C38.8035 71.5998 38.9642 71.6607 39.1318 71.6607C39.2993 71.6607 39.46 71.5998 39.5785 71.4914C39.697 71.3829 39.7635 71.2359 39.7635 71.0825V69.3962H42.4335V71.0825C42.4268 71.1624 42.4382 71.2428 42.467 71.3184C42.4958 71.3941 42.5413 71.4636 42.6008 71.5224C42.6603 71.5812 42.7325 71.6281 42.8127 71.6602C42.893 71.6923 42.9796 71.7088 43.0672 71.7088C43.1548 71.7088 43.2414 71.6923 43.3216 71.6602C43.4019 71.6281 43.474 71.5812 43.5335 71.5224C43.593 71.4636 43.6386 71.3941 43.6674 71.3184C43.6962 71.2428 43.7076 71.1624 43.7008 71.0825V67.3761C43.7013 67.1378 43.6504 66.9018 43.551 66.6815C43.4516 66.4613 43.3056 66.2612 43.1215 66.0927C42.9374 65.9242 42.7187 65.7906 42.478 65.6996C42.2374 65.6087 41.9794 65.562 41.719 65.5625ZM40.4818 66.7223H41.719C41.9085 66.7223 42.0903 66.7912 42.2243 66.9138C42.3583 67.0364 42.4335 67.2027 42.4335 67.3761V68.2296H39.7635V67.3658C39.7645 67.1921 39.8407 67.0258 39.9752 66.9032C40.1098 66.7807 40.292 66.7119 40.4818 66.7119" fill="#1A171B"/>
<path d="M48.3332 70.5406H45.9785V66.1449C45.9785 65.9904 45.9134 65.8423 45.7977 65.7331C45.682 65.6239 45.525 65.5625 45.3613 65.5625C45.1976 65.5625 45.0406 65.6239 44.9249 65.7331C44.8092 65.8423 44.7441 65.9904 44.7441 66.1449V71.1299C44.7451 71.2838 44.8106 71.431 44.9262 71.5395C45.0418 71.648 45.1983 71.7088 45.3613 71.7088H48.3332C48.4891 71.6975 48.6348 71.631 48.741 71.5227C48.8473 71.4144 48.9063 71.2723 48.9063 71.1247C48.9063 70.9771 48.8473 70.835 48.741 70.7267C48.6348 70.6184 48.4891 70.5519 48.3332 70.5406Z" fill="#1A171B"/>
<path d="M50.4671 65.5625C50.3297 65.5625 50.1978 65.6233 50.1003 65.7316C50.0028 65.84 49.9477 65.987 49.9469 66.1407V71.0825C49.9413 71.1624 49.9507 71.2428 49.9742 71.3184C49.9978 71.3941 50.0351 71.4636 50.0838 71.5224C50.1325 71.5812 50.1916 71.6281 50.2573 71.6602C50.323 71.6923 50.3939 71.7088 50.4656 71.7088C50.5373 71.7088 50.6082 71.6923 50.6739 71.6602C50.7396 71.6281 50.7986 71.5812 50.8473 71.5224C50.8961 71.4636 50.9334 71.3941 50.9569 71.3184C50.9805 71.2428 50.9898 71.1624 50.9843 71.0825V66.1407C50.9843 66.0647 50.9709 65.9896 50.9449 65.9194C50.919 65.8493 50.8809 65.7855 50.8328 65.7318C50.7848 65.6782 50.7278 65.6356 50.665 65.6065C50.6023 65.5775 50.535 65.5625 50.4671 65.5625Z" fill="#1A171B"/>
<path d="M55.7089 65.5625H52.508C52.3772 65.5738 52.2551 65.6397 52.1659 65.7472C52.0768 65.8548 52.0273 65.9959 52.0273 66.1424C52.0273 66.2889 52.0768 66.43 52.1659 66.5375C52.2551 66.645 52.3772 66.711 52.508 66.7223H53.577V71.0825C53.5715 71.1624 53.5808 71.2428 53.6044 71.3184C53.628 71.3941 53.6653 71.4636 53.7141 71.5224C53.7628 71.5812 53.8219 71.6281 53.8876 71.6602C53.9534 71.6923 54.0244 71.7088 54.0961 71.7088C54.1678 71.7088 54.2388 71.6923 54.3046 71.6602C54.3703 71.6281 54.4294 71.5812 54.4781 71.5224C54.5269 71.4636 54.5642 71.3941 54.5878 71.3184C54.6114 71.2428 54.6207 71.1624 54.6152 71.0825V66.7223H55.7089C55.8397 66.711 55.9618 66.645 56.0509 66.5375C56.14 66.43 56.1895 66.2889 56.1895 66.1424C56.1895 65.9959 56.14 65.8548 56.0509 65.7472C55.9618 65.6397 55.8397 65.5738 55.7089 65.5625Z" fill="#1A171B"/>
<path d="M60.4565 65.5625H59.2128C58.9525 65.5624 58.6947 65.6092 58.4541 65.7002C58.2136 65.7911 57.995 65.9244 57.8109 66.0925C57.6255 66.2604 57.4787 66.4605 57.3791 66.6809C57.2794 66.9013 57.2289 67.1377 57.2305 67.3761V71.0825C57.2305 71.2359 57.2972 71.3829 57.4159 71.4914C57.5347 71.5998 57.6957 71.6607 57.8636 71.6607C58.0316 71.6607 58.1926 71.5998 58.3113 71.4914C58.4301 71.3829 58.4968 71.2359 58.4968 71.0825V69.3962H61.1613V71.0825C61.1545 71.1624 61.1659 71.2428 61.1948 71.3184C61.2236 71.3941 61.2693 71.4636 61.3289 71.5224C61.3886 71.5812 61.4608 71.6281 61.5413 71.6602C61.6217 71.6923 61.7085 71.7088 61.7963 71.7088C61.884 71.7088 61.9709 71.6923 62.0513 71.6602C62.1317 71.6281 62.204 71.5812 62.2636 71.5224C62.3233 71.4636 62.3689 71.3941 62.3978 71.3184C62.4266 71.2428 62.438 71.1624 62.4313 71.0825V67.3761C62.4318 67.1378 62.3808 66.9018 62.2811 66.6815C62.1815 66.4613 62.0352 66.2612 61.8507 66.0927C61.6662 65.9242 61.447 65.7906 61.2058 65.6996C60.9646 65.6087 60.7062 65.562 60.4452 65.5625H60.4565ZM59.2015 66.7223H60.4452C60.6351 66.7223 60.8172 66.7912 60.9515 66.9138C61.0858 67.0364 61.1613 67.2027 61.1613 67.3761V68.2296H58.4855V67.3658C58.4865 67.1927 58.5622 67.0269 58.6963 66.9044C58.8304 66.782 59.0119 66.7128 59.2015 66.7119" fill="#1A171B"/>
<path d="M68.0947 68.5289C67.7239 68.1794 67.222 67.9823 66.6982 67.9804H65.4561C65.3654 67.9868 65.2742 67.9755 65.1883 67.9471C65.1024 67.9186 65.0236 67.8738 64.9569 67.8153C64.8902 67.7568 64.8369 67.6859 64.8005 67.6071C64.7641 67.5283 64.7454 67.4433 64.7454 67.3573C64.7454 67.2713 64.7641 67.1862 64.8005 67.1074C64.8369 67.0286 64.8902 66.9578 64.9569 66.8993C65.0236 66.8408 65.1024 66.7959 65.1883 66.7675C65.2742 66.7391 65.3654 66.7277 65.4561 66.7341H67.7603C67.9163 66.7228 68.062 66.6562 68.1683 66.5478C68.2746 66.4393 68.3336 66.297 68.3336 66.1492C68.3336 66.0014 68.2746 65.859 68.1683 65.7506C68.062 65.6422 67.9163 65.5756 67.7603 65.5642H65.4561C65.1998 65.5536 64.9439 65.5921 64.7038 65.6774C64.4637 65.7627 64.2443 65.893 64.059 66.0606C63.8737 66.2281 63.7262 66.4294 63.6254 66.6523C63.5246 66.8751 63.4727 67.1149 63.4727 67.3573C63.4727 67.5996 63.5246 67.8394 63.6254 68.0623C63.7262 68.2852 63.8737 68.4864 64.059 68.654C64.2443 68.8215 64.4637 68.9519 64.7038 69.0372C64.9439 69.1225 65.1998 69.161 65.4561 69.1503H66.7019C66.8968 69.1503 67.0838 69.2235 67.2216 69.3537C67.3595 69.4839 67.4369 69.6605 67.4369 69.8446C67.4369 70.0288 67.3595 70.2054 67.2216 70.3356C67.0838 70.4658 66.8968 70.5389 66.7019 70.5389H64.2397C64.0837 70.5503 63.938 70.6169 63.8317 70.7253C63.7255 70.8337 63.6664 70.9761 63.6664 71.1239C63.6664 71.2717 63.7255 71.414 63.8317 71.5225C63.938 71.6309 64.0837 71.6975 64.2397 71.7088H66.7019C66.9617 71.708 67.2187 71.6588 67.4583 71.5641C67.6979 71.4694 67.9154 71.331 68.0984 71.1569C68.282 70.9853 68.4276 70.7809 68.5267 70.5556C68.6257 70.3303 68.6763 70.0886 68.6753 69.8446C68.677 69.5985 68.6268 69.3545 68.5278 69.1269C68.4287 68.8992 68.2828 68.6924 68.0984 68.5185" fill="#1A171B"/>
<path d="M42.7554 83.9998C34.2989 83.9989 26.0326 81.5296 19.0016 76.904C11.9706 72.2784 6.49069 65.7043 3.25467 58.0129C0.0186509 50.3215 -0.828133 41.8582 0.821385 33.6931C2.4709 25.5279 6.54265 18.0276 12.5218 12.1405C20.5582 4.32912 31.4073 -0.0352046 42.7007 0.000213906C53.9941 0.0356325 64.8147 4.46791 72.8004 12.3295C80.7861 20.1911 85.2883 30.8436 85.3243 41.9615C85.3603 53.0794 80.9271 63.7599 72.9924 71.6714C69.0305 75.5922 64.3181 78.7005 59.128 80.8167C53.9379 82.9328 48.373 84.0147 42.7554 83.9998ZM42.7554 0.700223C34.4775 0.701343 26.3858 3.11872 19.5034 7.64673C12.621 12.1747 7.25683 18.61 4.08918 26.139C0.921529 33.668 0.0926132 41.9526 1.70723 49.9453C3.32185 57.938 7.3075 65.2799 13.1603 71.0429C21.0334 78.6587 31.6434 82.9048 42.681 82.857C53.7186 82.8093 64.2903 78.4716 72.0951 70.788C79.8999 63.1045 84.3061 52.6971 84.3546 41.831C84.4031 30.9649 80.0899 20.5198 72.354 12.769C68.4757 8.93104 63.8628 5.88825 58.7823 3.81667C53.7018 1.74509 48.2544 0.685844 42.7554 0.700223Z" fill="#1A171B"/>
<path d="M12.3437 51.388C12.6185 51.2763 12.9136 51.2188 13.2117 51.2188C13.5098 51.2188 13.8049 51.2763 14.0798 51.388C14.6403 51.6113 15.0864 52.0407 15.3204 52.582L16.6153 55.5932C16.6584 55.6926 16.659 55.8045 16.617 55.9043C16.5749 56.0041 16.4937 56.0836 16.391 56.1254C16.2884 56.1672 16.1728 56.1678 16.0697 56.1271C15.9666 56.0864 15.8844 56.0077 15.8412 55.9083L14.5464 52.8936C14.3805 52.5834 14.1009 52.3445 13.7624 52.2235C13.4239 52.1026 13.051 52.1085 12.7167 52.24C12.3825 52.3716 12.1111 52.6193 11.9558 52.9345C11.8004 53.2497 11.7724 53.6098 11.8771 53.944L12.5354 55.4741C12.6456 55.7289 12.7028 56.0021 12.7039 56.2783C12.7051 56.5545 12.65 56.8281 12.5418 57.0837C12.4337 57.3393 12.2746 57.5717 12.0736 57.7677C11.8727 57.9638 11.6338 58.1196 11.3707 58.2263C11.1076 58.3329 10.8253 58.3884 10.54 58.3895C10.2547 58.3905 9.97203 58.3372 9.70804 58.2325C9.44405 58.1278 9.20395 57.9738 9.00144 57.7793C8.79894 57.5848 8.63799 57.3535 8.5278 57.0988L7.31612 54.2732C7.29471 54.224 7.28353 54.1712 7.28321 54.1178C7.28289 54.0644 7.29345 54.0115 7.31428 53.9621C7.33511 53.9126 7.36579 53.8677 7.40459 53.8297C7.44338 53.7918 7.48953 53.7616 7.54037 53.7409C7.64355 53.7002 7.75915 53.7006 7.86208 53.7419C7.96501 53.7832 8.04696 53.8621 8.09015 53.9615L9.30182 56.7837C9.35999 56.9522 9.45345 57.1073 9.57634 57.2393C9.69924 57.3712 9.84893 57.4772 10.0161 57.5507C10.1832 57.6241 10.3642 57.6634 10.5477 57.666C10.7312 57.6687 10.9133 57.6347 11.0827 57.5661C11.252 57.4976 11.4049 57.3959 11.5318 57.2676C11.6587 57.1392 11.7569 56.9869 11.8203 56.8201C11.8836 56.6534 11.9108 56.4758 11.9 56.2984C11.8892 56.121 11.8408 55.9477 11.7577 55.7893L11.1031 54.2697C10.8735 53.7266 10.8735 53.118 11.1031 52.575C11.2179 52.3068 11.3868 52.0634 11.5998 51.859C11.8128 51.6547 12.0656 51.4933 12.3437 51.3845" fill="#1A171B"/>
<path d="M12.3437 51.388C12.6185 51.2763 12.9136 51.2188 13.2117 51.2188C13.5098 51.2188 13.8049 51.2763 14.0798 51.388C14.6403 51.6113 15.0864 52.0407 15.3204 52.582L16.6153 55.5932C16.6584 55.6926 16.659 55.8045 16.617 55.9043C16.5749 56.0041 16.4936 56.0836 16.391 56.1254C16.2884 56.1672 16.1728 56.1678 16.0697 56.1271C15.9666 56.0864 15.8844 56.0077 15.8412 55.9083L14.5464 52.8936C14.3805 52.5834 14.1009 52.3445 13.7624 52.2235C13.4239 52.1026 13.051 52.1085 12.7167 52.24C12.3825 52.3716 12.1111 52.6193 11.9558 52.9345C11.8004 53.2497 11.7724 53.6098 11.8771 53.944L12.5354 55.4741C12.6456 55.7289 12.7028 56.0021 12.7039 56.2783C12.7051 56.5545 12.65 56.8281 12.5418 57.0837C12.4337 57.3393 12.2746 57.5717 12.0736 57.7677C11.8727 57.9638 11.6338 58.1196 11.3707 58.2263C11.1076 58.3329 10.8253 58.3884 10.54 58.3895C10.2547 58.3905 9.97203 58.3372 9.70804 58.2325C9.44405 58.1278 9.20395 57.9738 9.00144 57.7793C8.79894 57.5848 8.63799 57.3535 8.5278 57.0988L7.31612 54.2732C7.29471 54.224 7.28353 54.1712 7.28321 54.1178C7.28289 54.0644 7.29345 54.0115 7.31428 53.9621C7.33511 53.9126 7.36579 53.8677 7.40459 53.8297C7.44338 53.7918 7.48953 53.7616 7.54037 53.7409C7.64355 53.7002 7.75915 53.7006 7.86208 53.7419C7.96501 53.7832 8.04696 53.8621 8.09015 53.9615L9.30182 56.7837C9.35999 56.9522 9.45345 57.1073 9.57634 57.2393C9.69924 57.3712 9.84893 57.4772 10.0161 57.5507C10.1832 57.6241 10.3642 57.6634 10.5477 57.666C10.7312 57.6687 10.9133 57.6347 11.0827 57.5661C11.252 57.4976 11.4049 57.3959 11.5318 57.2676C11.6587 57.1392 11.7569 56.9869 11.8203 56.8201C11.8836 56.6534 11.9108 56.4758 11.9 56.2984C11.8892 56.121 11.8408 55.9477 11.7577 55.7893L11.1031 54.2697C10.8735 53.7266 10.8735 53.118 11.1031 52.575C11.2183 52.3074 11.3874 52.0647 11.6003 51.861C11.8133 51.6572 12.066 51.4964 12.3437 51.388V51.388Z" stroke="#1A171B" stroke-width="0.95" stroke-miterlimit="10"/>
<path d="M5.56935 44.7774L10.8003 44.0686C11.0825 44.03 11.3701 44.0429 11.6468 44.1065C11.9236 44.1701 12.1839 44.2831 12.4131 44.4391C12.6422 44.5951 12.8356 44.791 12.9823 45.0157C13.1289 45.2403 13.2259 45.4893 13.2678 45.7484L13.5004 47.2146C13.5438 47.4739 13.5308 47.7385 13.4622 47.9931C13.3935 48.2477 13.2706 48.4873 13.1005 48.698C12.9303 48.9087 12.7164 49.0863 12.471 49.2206C12.2257 49.3549 11.9537 49.4432 11.671 49.4803L6.44353 50.1892C6.33602 50.2038 6.2266 50.1785 6.13934 50.1191C6.05209 50.0596 5.99414 49.9707 5.97824 49.872C5.96235 49.7733 5.98982 49.6728 6.0546 49.5927C6.11938 49.5125 6.21618 49.4593 6.32369 49.4447L11.5547 48.7391C11.7301 48.7154 11.8988 48.6601 12.0509 48.5765C12.2031 48.4929 12.3359 48.3825 12.4416 48.2518C12.5474 48.121 12.624 47.9724 12.6672 47.8145C12.7103 47.6565 12.7192 47.4923 12.6932 47.3312L12.457 45.8649C12.4316 45.7037 12.3717 45.5486 12.2808 45.4086C12.1898 45.2686 12.0696 45.1466 11.9271 45.0494C11.7846 44.9523 11.6226 44.8819 11.4504 44.8425C11.2782 44.803 11.0992 44.7952 10.9237 44.8195L5.69625 45.5251C5.64157 45.5359 5.58506 45.5363 5.53021 45.5263C5.47535 45.5163 5.42332 45.496 5.37733 45.4668C5.33134 45.4375 5.29237 45.4 5.26284 45.3563C5.2333 45.3127 5.21382 45.264 5.20561 45.2132C5.19739 45.1624 5.20062 45.1106 5.21508 45.061C5.22954 45.0114 5.25494 44.965 5.28969 44.9248C5.32445 44.8845 5.36782 44.8513 5.41714 44.827C5.46646 44.8028 5.52066 44.7881 5.5764 44.7839" fill="#1A171B"/>
<path d="M5.56935 44.7774L10.8003 44.0686C11.0825 44.03 11.3701 44.0429 11.6468 44.1065C11.9236 44.1701 12.1839 44.2831 12.4131 44.4391C12.6422 44.5951 12.8356 44.791 12.9823 45.0157C13.1289 45.2403 13.2259 45.4893 13.2678 45.7484L13.5004 47.2146C13.5438 47.4739 13.5308 47.7385 13.4622 47.9931C13.3935 48.2477 13.2706 48.4873 13.1005 48.698C12.9303 48.9087 12.7164 49.0863 12.471 49.2206C12.2257 49.3549 11.9537 49.4432 11.671 49.4803L6.44353 50.1892C6.33602 50.2038 6.2266 50.1785 6.13934 50.1191C6.05209 50.0596 5.99414 49.9707 5.97824 49.872C5.96235 49.7733 5.98982 49.6728 6.0546 49.5927C6.11938 49.5125 6.21618 49.4593 6.32369 49.4447L11.5547 48.7391C11.7301 48.7154 11.8988 48.6601 12.0509 48.5765C12.2031 48.4929 12.3359 48.3825 12.4416 48.2518C12.5474 48.121 12.624 47.9724 12.6672 47.8145C12.7103 47.6565 12.7192 47.4923 12.6932 47.3312L12.457 45.8649C12.4316 45.7037 12.3717 45.5486 12.2808 45.4086C12.1898 45.2686 12.0696 45.1466 11.9271 45.0494C11.7846 44.9523 11.6226 44.8819 11.4504 44.8425C11.2782 44.803 11.0992 44.7952 10.9237 44.8195L5.69625 45.5251C5.64157 45.5359 5.58506 45.5363 5.53021 45.5263C5.47535 45.5163 5.42332 45.496 5.37733 45.4668C5.33134 45.4375 5.29237 45.4 5.26284 45.3563C5.2333 45.3127 5.21382 45.264 5.20561 45.2132C5.19739 45.1624 5.20062 45.1106 5.21508 45.061C5.22954 45.0114 5.25494 44.965 5.28969 44.9248C5.32445 44.8845 5.36782 44.8513 5.41714 44.827C5.46646 44.8028 5.52066 44.7881 5.5764 44.7839L5.56935 44.7774Z" stroke="#1A171B" stroke-width="0.95" stroke-miterlimit="10"/>
<path d="M11.4492 35.9735C11.7494 36.0008 12.041 36.0849 12.307 36.2212C12.573 36.3575 12.8081 36.5431 12.9986 36.7673C13.3875 37.2228 13.5731 37.8072 13.5151 38.3933L13.1781 41.649C13.1617 41.7533 13.1045 41.8477 13.0181 41.913C12.9316 41.9782 12.8225 42.0094 12.7129 42.0002C12.6033 41.9862 12.5038 41.9317 12.4354 41.8485C12.367 41.7652 12.3351 41.6596 12.3466 41.5542L12.6836 38.2985C12.6971 37.9424 12.5688 37.5946 12.3249 37.3257C12.081 37.0568 11.7396 36.8868 11.3699 36.8502C11.0002 36.8136 10.6298 36.9131 10.3337 37.1285C10.0376 37.344 9.83797 37.6593 9.77524 38.0105L9.60308 39.6647C9.54722 40.2231 9.2623 40.7374 8.81098 41.0944C8.35967 41.4513 7.77894 41.6218 7.19655 41.5682C6.61416 41.5147 6.07781 41.2415 5.70549 40.8088C5.33318 40.376 5.1554 39.8192 5.21126 39.2608L5.52993 36.2088C5.5437 36.1041 5.59972 36.0086 5.68599 35.943C5.77226 35.8774 5.88191 35.8467 5.99145 35.8576C6.10396 35.8683 6.20751 35.9212 6.27954 36.0047C6.35158 36.0883 6.38627 36.1957 6.37606 36.3037L6.05739 39.3556C6.03983 39.5247 6.05717 39.6954 6.10841 39.858C6.15966 40.0206 6.2438 40.1719 6.35605 40.3034C6.46829 40.4348 6.60643 40.5437 6.76259 40.624C6.91874 40.7042 7.08985 40.7542 7.26615 40.771C7.44244 40.7878 7.62047 40.7712 7.79006 40.7221C7.95965 40.6729 8.11749 40.5923 8.25456 40.4846C8.39164 40.377 8.50526 40.2446 8.58895 40.0948C8.67263 39.9451 8.72474 39.7811 8.7423 39.612L8.91445 37.9684C8.94336 37.675 9.03232 37.39 9.17626 37.1297C9.32019 36.8693 9.51627 36.6388 9.75326 36.4512C9.98773 36.2657 10.2586 36.1272 10.55 36.0439C10.8413 35.9607 11.1471 35.9344 11.4492 35.9665" fill="#1A171B"/>
<path d="M11.4492 35.9735C11.7494 36.0008 12.041 36.0849 12.307 36.2212C12.573 36.3575 12.8081 36.5431 12.9986 36.7673C13.3875 37.2228 13.5731 37.8072 13.5151 38.3933L13.1781 41.649C13.1617 41.7533 13.1045 41.8477 13.0181 41.913C12.9316 41.9782 12.8225 42.0094 12.7129 42.0002C12.6033 41.9862 12.5038 41.9317 12.4354 41.8485C12.367 41.7652 12.3351 41.6596 12.3466 41.5542L12.6836 38.2985C12.6971 37.9424 12.5688 37.5946 12.3249 37.3257C12.081 37.0568 11.7396 36.8868 11.3699 36.8502C11.0002 36.8136 10.6298 36.9131 10.3337 37.1285C10.0376 37.344 9.83796 37.6593 9.77524 38.0105L9.60308 39.6647C9.54722 40.2231 9.2623 40.7374 8.81098 41.0944C8.35967 41.4513 7.77894 41.6218 7.19655 41.5682C6.61416 41.5147 6.07781 41.2415 5.70549 40.8088C5.33318 40.376 5.1554 39.8192 5.21126 39.2608L5.52993 36.2088C5.5437 36.1041 5.59972 36.0086 5.68599 35.943C5.77226 35.8774 5.88191 35.8467 5.99145 35.8576C6.10396 35.8683 6.20751 35.9212 6.27954 36.0047C6.35158 36.0883 6.38627 36.1957 6.37606 36.3037L6.05739 39.3556C6.03983 39.5247 6.05717 39.6954 6.10841 39.858C6.15966 40.0206 6.2438 40.1719 6.35605 40.3034C6.46829 40.4348 6.60643 40.5437 6.76259 40.624C6.91874 40.7042 7.08985 40.7542 7.26615 40.771C7.44244 40.7878 7.62047 40.7712 7.79006 40.7221C7.95965 40.6729 8.11749 40.5923 8.25456 40.4846C8.39164 40.377 8.50526 40.2446 8.58895 40.0948C8.67263 39.9451 8.72474 39.7811 8.7423 39.612L8.91445 37.9684C8.94336 37.675 9.03232 37.39 9.17626 37.1297C9.32019 36.8693 9.51627 36.6388 9.75326 36.4512C9.98829 36.2669 10.2595 36.1297 10.5508 36.0477C10.8421 35.9656 11.1476 35.9404 11.4492 35.9735Z" stroke="#1A171B" stroke-width="0.95" stroke-miterlimit="10"/>
<path d="M8.56424 27.6736C8.61472 27.6905 8.66137 27.7172 8.70151 27.7522C8.74166 27.7872 8.77451 27.8298 8.79819 27.8775C8.82188 27.9252 8.83593 27.9771 8.83955 28.0302C8.84317 28.0833 8.83628 28.1366 8.81928 28.1871L8.05766 30.4718L14.2903 32.5679C14.3923 32.6022 14.4764 32.6755 14.5242 32.7718C14.572 32.8681 14.5797 32.9795 14.5454 33.0814C14.5111 33.1833 14.4377 33.2675 14.3414 33.3153C14.2451 33.3631 14.1337 33.3707 14.0318 33.3364L7.79913 31.2404L7.04101 33.4901C7.02762 33.5446 7.00305 33.5958 6.96887 33.6403C6.9347 33.6848 6.89165 33.7217 6.84245 33.7487C6.79326 33.7757 6.739 33.7922 6.6831 33.7971C6.6272 33.8021 6.57088 33.7953 6.51772 33.7774C6.46456 33.7594 6.4157 33.7306 6.37425 33.6928C6.33281 33.6549 6.29966 33.6089 6.27693 33.5576C6.2542 33.5063 6.24237 33.4508 6.24219 33.3947C6.24201 33.3386 6.25349 33.2831 6.2759 33.2316L8.05766 27.9286C8.07461 27.8781 8.10135 27.8315 8.13634 27.7913C8.17133 27.7512 8.21389 27.7183 8.26159 27.6946C8.30928 27.671 8.36118 27.6569 8.41431 27.6533C8.46744 27.6497 8.52076 27.6566 8.57123 27.6736" fill="#1A171B"/>
<path d="M8.56424 27.6715C8.61472 27.6885 8.66137 27.7152 8.70151 27.7502C8.74166 27.7852 8.77451 27.8278 8.79819 27.8755C8.82188 27.9232 8.83593 27.9751 8.83955 28.0282C8.84317 28.0814 8.83628 28.1347 8.81928 28.1852L8.05766 30.4707L14.2903 32.5675C14.3923 32.6018 14.4764 32.6751 14.5242 32.7715C14.572 32.8678 14.5797 32.9792 14.5454 33.0812C14.5111 33.1831 14.4377 33.2673 14.3414 33.3151C14.2451 33.363 14.1337 33.3706 14.0318 33.3363L7.79913 31.2395L7.04101 33.49C7.02762 33.5446 7.00305 33.5957 6.96887 33.6402C6.9347 33.6847 6.89165 33.7217 6.84245 33.7487C6.79326 33.7757 6.739 33.7922 6.6831 33.7971C6.6272 33.8021 6.57088 33.7953 6.51772 33.7774C6.46456 33.7594 6.4157 33.7306 6.37425 33.6927C6.33281 33.6549 6.29966 33.6088 6.27693 33.5575C6.2542 33.5062 6.24237 33.4507 6.24219 33.3946C6.24201 33.3385 6.25349 33.2829 6.2759 33.2314L8.05766 27.9266C8.09195 27.8262 8.1642 27.7433 8.2589 27.6956C8.35361 27.648 8.46322 27.6393 8.56424 27.6715Z" stroke="#1A171B" stroke-width="0.95" stroke-miterlimit="10"/>
<path d="M14.2877 21.8275L18.5437 24.5625C18.6316 24.6189 18.6948 24.7102 18.7194 24.8161C18.7439 24.9221 18.7278 25.034 18.6747 25.1274C18.6215 25.2208 18.5355 25.2878 18.4358 25.3139C18.336 25.34 18.2306 25.3229 18.1426 25.2664L15.8721 23.8057L13.7706 27.4875L16.0411 28.9483C16.129 29.0043 16.1924 29.0951 16.2173 29.2007C16.2421 29.3063 16.2265 29.4181 16.1737 29.5115C16.121 29.6048 16.0355 29.6721 15.936 29.6985C15.8365 29.7249 15.7313 29.7083 15.6434 29.6522L11.3906 26.9138C11.1613 26.7666 10.9616 26.573 10.8028 26.3438C10.644 26.1147 10.5294 25.8546 10.4653 25.5783C10.4013 25.3021 10.3892 25.0152 10.4296 24.734C10.4701 24.4527 10.5624 24.1828 10.7012 23.9394L11.4867 22.5596C11.7671 22.0686 12.2195 21.7157 12.7446 21.5785C13.2697 21.4412 13.8247 21.5308 14.2877 21.8275ZM13.8899 22.5315C13.602 22.3462 13.2565 22.29 12.9296 22.3751C12.6026 22.4603 12.3209 22.6798 12.1464 22.9855L11.3608 24.3653C11.274 24.5166 11.2161 24.6846 11.1906 24.8597C11.1651 25.0347 11.1725 25.2134 11.2122 25.3855C11.2519 25.5575 11.3233 25.7195 11.4222 25.8622C11.521 26.0049 11.6455 26.1254 11.7884 26.2168L13.1143 27.0686L15.2158 23.3692L13.8899 22.5315Z" fill="#1A171B"/>
<path d="M14.2877 21.8275L18.5437 24.5625C18.6316 24.6189 18.6948 24.7102 18.7194 24.8161C18.7439 24.9221 18.7278 25.034 18.6747 25.1274C18.6215 25.2208 18.5355 25.2878 18.4358 25.3139C18.336 25.34 18.2306 25.3229 18.1426 25.2664L15.8721 23.8057L13.7706 27.4875L16.0411 28.9483C16.129 29.0043 16.1924 29.0951 16.2173 29.2007C16.2421 29.3063 16.2265 29.4181 16.1737 29.5115C16.121 29.6048 16.0355 29.6721 15.936 29.6985C15.8365 29.7249 15.7313 29.7083 15.6434 29.6522L11.3906 26.9138C11.1613 26.7666 10.9616 26.573 10.8028 26.3438C10.644 26.1147 10.5294 25.8546 10.4653 25.5783C10.4013 25.3021 10.3892 25.0152 10.4296 24.734C10.4701 24.4527 10.5624 24.1828 10.7012 23.9394L11.4867 22.5596C11.7671 22.0686 12.2195 21.7157 12.7446 21.5785C13.2697 21.4412 13.8247 21.5308 14.2877 21.8275ZM13.8899 22.5315C13.602 22.3462 13.2565 22.29 12.9296 22.3751C12.6026 22.4603 12.3209 22.6798 12.1464 22.9855L11.3608 24.3653C11.274 24.5166 11.2161 24.6846 11.1906 24.8597C11.1651 25.0347 11.1725 25.2134 11.2122 25.3855C11.2519 25.5575 11.3233 25.7195 11.4222 25.8622C11.521 26.0049 11.6455 26.1254 11.7884 26.2168L13.1143 27.0686L15.2158 23.3692L13.8899 22.5315Z" stroke="#1A171B" stroke-width="0.95" stroke-miterlimit="10"/>
<path d="M20.1083 22.4395L14.7256 18.0876C14.6806 18.0555 14.6434 18.0155 14.6163 17.97C14.5891 17.9246 14.5727 17.8746 14.5679 17.8232C14.5631 17.7717 14.5701 17.72 14.5884 17.6711C14.6067 17.6222 14.636 17.5772 14.6745 17.5389C14.7129 17.5005 14.7597 17.4697 14.8119 17.4483C14.8641 17.4268 14.9206 17.4152 14.9781 17.4141C15.0355 17.4131 15.0925 17.4226 15.1456 17.4422C15.1988 17.4617 15.2469 17.4908 15.287 17.5277L20.6697 21.8764C20.7528 21.9433 20.8029 22.0371 20.809 22.1373C20.8151 22.2374 20.7768 22.3356 20.7023 22.4102C20.6278 22.4849 20.5234 22.53 20.412 22.5354C20.3006 22.5409 20.1914 22.5064 20.1083 22.4395Z" fill="#1A171B"/>
<path d="M20.1083 22.4395L14.7256 18.0876C14.6806 18.0555 14.6434 18.0155 14.6163 17.97C14.5891 17.9246 14.5727 17.8746 14.5679 17.8232C14.5631 17.7717 14.5701 17.72 14.5884 17.6711C14.6067 17.6222 14.636 17.5772 14.6745 17.5389C14.7129 17.5005 14.7597 17.4697 14.8119 17.4483C14.8641 17.4268 14.9206 17.4152 14.9781 17.4141C15.0355 17.4131 15.0925 17.4226 15.1456 17.4422C15.1988 17.4617 15.2469 17.4908 15.287 17.5277L20.6697 21.8764C20.7528 21.9433 20.8029 22.0371 20.809 22.1373C20.8151 22.2374 20.7768 22.3356 20.7023 22.4102C20.6278 22.4849 20.5234 22.53 20.412 22.5354C20.3006 22.5409 20.1914 22.5064 20.1083 22.4395V22.4395Z" stroke="#1A171B" stroke-width="0.95" stroke-miterlimit="10"/>
<path d="M22.697 11.4241L26.9657 16.7843C27.0324 16.8653 27.0633 16.9678 27.0521 17.0701C27.0409 17.1724 26.9884 17.2666 26.9056 17.3328C26.8516 17.3712 26.7885 17.3962 26.7218 17.4056C26.6551 17.415 26.587 17.4085 26.5237 17.3866L19.164 15.4283L22.7006 19.8632C22.7331 19.904 22.7568 19.9506 22.7704 20.0002C22.784 20.0498 22.7872 20.1015 22.7798 20.1523C22.7724 20.203 22.7546 20.2519 22.7274 20.2961C22.7001 20.3404 22.664 20.379 22.621 20.41C22.5781 20.4409 22.5291 20.4635 22.477 20.4764C22.4248 20.4893 22.3705 20.4924 22.3172 20.4854C22.2638 20.4783 22.2124 20.4614 22.1659 20.4354C22.1195 20.4095 22.0788 20.3751 22.0463 20.3343L17.7741 14.974C17.7412 14.9332 17.7171 14.8866 17.7032 14.8369C17.6893 14.7872 17.6859 14.7354 17.6931 14.6844C17.7004 14.6334 17.7181 14.5843 17.7454 14.5399C17.7726 14.4955 17.8088 14.4566 17.8519 14.4255C17.9024 14.3911 17.9602 14.3675 18.0213 14.3565C18.0824 14.3454 18.1452 14.3472 18.2055 14.3616L25.5723 16.3301L22.0357 11.8951C22.0033 11.8542 21.9798 11.8075 21.9665 11.7578C21.9532 11.7081 21.9504 11.6564 21.9583 11.6057C21.9662 11.555 21.9846 11.5063 22.0125 11.4624C22.0403 11.4185 22.0771 11.3803 22.1206 11.35C22.1635 11.3188 22.2125 11.2958 22.2647 11.2826C22.3169 11.2694 22.3714 11.2662 22.425 11.273C22.4786 11.2799 22.5302 11.2968 22.5769 11.3227C22.6235 11.3486 22.6644 11.3831 22.697 11.4241Z" fill="#1A171B"/>
<path d="M22.697 11.4241L26.9657 16.7843C27.0324 16.8653 27.0633 16.9678 27.0521 17.0701C27.0409 17.1724 26.9884 17.2666 26.9056 17.3328C26.8516 17.3712 26.7885 17.3962 26.7218 17.4056C26.6551 17.415 26.587 17.4085 26.5237 17.3866L19.164 15.4283L22.7006 19.8632C22.7331 19.904 22.7568 19.9506 22.7704 20.0002C22.784 20.0498 22.7872 20.1015 22.7798 20.1523C22.7724 20.203 22.7546 20.2519 22.7274 20.2961C22.7001 20.3404 22.664 20.379 22.621 20.41C22.5781 20.4409 22.5291 20.4635 22.477 20.4764C22.4248 20.4893 22.3705 20.4924 22.3172 20.4854C22.2638 20.4783 22.2124 20.4614 22.1659 20.4354C22.1195 20.4095 22.0788 20.3751 22.0463 20.3343L17.7741 14.974C17.7412 14.9332 17.7171 14.8866 17.7032 14.8369C17.6893 14.7872 17.6859 14.7354 17.6931 14.6844C17.7004 14.6334 17.7181 14.5843 17.7454 14.5399C17.7726 14.4955 17.8088 14.4566 17.8519 14.4255C17.9024 14.3911 17.9602 14.3675 18.0213 14.3565C18.0824 14.3454 18.1452 14.3472 18.2055 14.3616L25.5723 16.3301L22.0357 11.8951C22.0033 11.8542 21.9798 11.8075 21.9665 11.7578C21.9532 11.7081 21.9504 11.6564 21.9583 11.6057C21.9662 11.555 21.9846 11.5063 22.0125 11.4624C22.0403 11.4185 22.0771 11.3803 22.1206 11.35C22.1635 11.3188 22.2125 11.2958 22.2647 11.2826C22.3169 11.2694 22.3714 11.2662 22.425 11.273C22.4786 11.2799 22.5302 11.2968 22.5769 11.3227C22.6235 11.3486 22.6644 11.3831 22.697 11.4241Z" stroke="#1A171B" stroke-width="0.95" stroke-miterlimit="10"/>
<path d="M32.4534 8.45666L34.3149 13.0806C34.3504 13.177 34.3457 13.2833 34.3017 13.3762C34.2576 13.4691 34.1779 13.541 34.0801 13.5761C34.0316 13.5934 33.9802 13.6012 33.9287 13.599C33.8772 13.5967 33.8266 13.5845 33.7799 13.5631C33.6855 13.5197 33.6125 13.4412 33.577 13.3449L32.5708 10.8908L28.784 12.3837L29.7903 14.841C29.8285 14.9356 29.827 15.0413 29.7861 15.1349C29.7453 15.2284 29.6683 15.3021 29.5722 15.3398C29.4762 15.3774 29.3688 15.376 29.2739 15.3357C29.1789 15.2955 29.104 15.2197 29.0658 15.1251L27.2043 10.5209C27.1026 10.273 27.0518 10.0076 27.0548 9.74022C27.0578 9.47282 27.1146 9.20866 27.2219 8.96298C27.3292 8.71731 27.4848 8.495 27.6798 8.30889C27.8748 8.12278 28.1054 7.97656 28.3581 7.87867L29.7869 7.31719C30.0388 7.21795 30.3081 7.16863 30.5794 7.17204C30.8507 7.17545 31.1186 7.23154 31.3679 7.33708C31.6171 7.44262 31.8428 7.59554 32.0319 7.78709C32.2211 7.97864 32.37 8.20505 32.4701 8.45336L32.4534 8.45666ZM31.749 8.7374C31.6866 8.58213 31.5936 8.44055 31.4753 8.32085C31.3571 8.20115 31.2159 8.1057 31.06 8.03999C30.9041 7.97428 30.7365 7.93962 30.567 7.93801C30.3974 7.93639 30.2292 7.96786 30.072 8.0306L28.6465 8.58878C28.4888 8.65028 28.345 8.74185 28.2233 8.85823C28.1017 8.97461 28.0046 9.11351 27.9375 9.26695C27.8705 9.4204 27.835 9.58536 27.8329 9.75238C27.8308 9.9194 27.8622 10.0852 27.9254 10.2402L28.5057 11.6703L32.3192 10.1774L31.749 8.7374Z" fill="#1A171B"/>
<path d="M32.4534 8.45666L34.3149 13.0806C34.3504 13.177 34.3457 13.2833 34.3017 13.3762C34.2576 13.4691 34.1779 13.541 34.0801 13.5761C34.0316 13.5934 33.9802 13.6012 33.9287 13.599C33.8772 13.5967 33.8266 13.5845 33.7799 13.5631C33.6855 13.5197 33.6125 13.4412 33.577 13.3449L32.5708 10.8908L28.784 12.3837L29.7903 14.841C29.8285 14.9356 29.827 15.0413 29.7861 15.1349C29.7453 15.2284 29.6683 15.3021 29.5722 15.3398C29.4762 15.3774 29.3688 15.376 29.2739 15.3357C29.1789 15.2955 29.104 15.2197 29.0658 15.1251L27.2043 10.5209C27.1026 10.273 27.0518 10.0076 27.0548 9.74022C27.0578 9.47282 27.1146 9.20866 27.2219 8.96298C27.3292 8.71731 27.4848 8.495 27.6798 8.30889C27.8748 8.12278 28.1054 7.97656 28.3581 7.87867L29.7869 7.31719C30.0388 7.21795 30.3081 7.16863 30.5794 7.17204C30.8507 7.17545 31.1186 7.23154 31.3679 7.33708C31.6171 7.44262 31.8428 7.59554 32.0319 7.78709C32.2211 7.97864 32.37 8.20505 32.4701 8.45336L32.4534 8.45666ZM31.7322 8.74071C31.6698 8.58543 31.5768 8.44386 31.4586 8.32416C31.3403 8.20446 31.1992 8.109 31.0433 8.04329C30.8873 7.97758 30.7198 7.94292 30.5502 7.94131C30.3806 7.9397 30.2124 7.97117 30.0552 8.0339L28.6298 8.59208C28.4721 8.65358 28.3282 8.74515 28.2066 8.86153C28.0849 8.97791 27.9878 9.11681 27.9208 9.27026C27.8538 9.4237 27.8182 9.58867 27.8161 9.75568C27.814 9.9227 27.8455 10.0885 27.9086 10.2435L28.4889 11.6736L32.3024 10.1807L31.7322 8.74071Z" stroke="#1A171B" stroke-width="0.95" stroke-miterlimit="10"/>
<path d="M41.3343 9.6473C41.4834 9.90836 41.5769 10.2017 41.6081 10.5062C41.6394 10.7877 41.6183 11.0731 41.5461 11.3457C41.4739 11.6183 41.352 11.8728 41.1876 12.0944C40.8572 12.5437 40.3761 12.8357 39.8476 12.9077L36.5516 13.3144C36.4543 13.3244 36.3571 13.2935 36.2806 13.2281C36.204 13.1627 36.1539 13.068 36.1409 12.9638L35.3812 5.99426C35.3702 5.88923 35.3984 5.7838 35.4594 5.70101C35.5205 5.61823 35.6097 5.56484 35.7073 5.55252L38.9967 5.13533C39.5253 5.06975 40.0565 5.23241 40.4736 5.58758C40.6815 5.76192 40.855 5.97919 40.9838 6.22663C41.1125 6.47407 41.194 6.74669 41.2234 7.02847C41.2572 7.33185 41.2282 7.6395 41.1387 7.92946C41.0555 8.2101 40.9226 8.4708 40.7474 8.69723L40.604 8.86901L40.78 8.99873C40.9978 9.17721 41.1835 9.39702 41.3277 9.6473H41.3343ZM36.4636 8.9812L39.3749 8.63062C39.6934 8.57446 39.9796 8.3885 40.174 8.11138C40.3683 7.83425 40.4559 7.48726 40.4186 7.14249C40.3812 6.79772 40.2218 6.48168 39.9734 6.26001C39.725 6.03835 39.4068 5.9281 39.0848 5.95219L36.1702 6.3203L36.4636 8.9812ZM40.8615 10.6009C40.8434 10.4253 40.793 10.2554 40.7133 10.1009C40.6336 9.94642 40.5263 9.81047 40.3974 9.70092C40.2685 9.59136 40.1207 9.51039 39.9626 9.46267C39.8044 9.41495 39.639 9.40145 39.476 9.42293L36.5647 9.77351L36.8548 12.4519L39.7694 12.1014C39.9328 12.0801 40.0907 12.0244 40.234 11.9375C40.3774 11.8505 40.5034 11.734 40.6048 11.5946C40.7062 11.4553 40.7811 11.2958 40.8252 11.1253C40.8692 10.9547 40.8816 10.7765 40.8615 10.6009Z" fill="#1A171B"/>
<path d="M41.3343 9.6473C41.4834 9.90836 41.5769 10.2017 41.6081 10.5062C41.6394 10.7877 41.6183 11.0731 41.5461 11.3457C41.4739 11.6183 41.352 11.8728 41.1876 12.0944C40.8572 12.5437 40.3761 12.8357 39.8476 12.9077V12.9077L36.5516 13.3144C36.4543 13.3244 36.3571 13.2935 36.2806 13.2281C36.204 13.1627 36.1539 13.068 36.1409 12.9638L35.3812 5.99426C35.3702 5.88923 35.3984 5.7838 35.4594 5.70101C35.5205 5.61823 35.6097 5.56484 35.7073 5.55252L38.9967 5.13533C39.5253 5.06975 40.0565 5.23241 40.4736 5.58758C40.6815 5.76192 40.855 5.97919 40.9838 6.22663C41.1125 6.47407 41.194 6.74669 41.2234 7.02847C41.2572 7.33185 41.2282 7.6395 41.1387 7.92946C41.0555 8.2101 40.9226 8.4708 40.7474 8.69723L40.604 8.86901L40.78 8.99873C41.0002 9.17657 41.188 9.39641 41.3343 9.6473V9.6473ZM36.4701 8.9812L39.3814 8.63062C39.7 8.57446 39.9861 8.3885 40.1805 8.11138C40.3748 7.83425 40.4624 7.48726 40.4251 7.14249C40.3877 6.79772 40.2283 6.48168 39.9799 6.26001C39.7315 6.03835 39.4133 5.9281 39.0913 5.95219L36.1767 6.3203L36.4701 8.9812ZM40.8615 10.6009C40.8434 10.4253 40.793 10.2554 40.7133 10.1009C40.6336 9.94642 40.5263 9.81047 40.3974 9.70092C40.2685 9.59136 40.1207 9.51038 39.9626 9.46267C39.8044 9.41495 39.639 9.40145 39.476 9.42293L36.5647 9.77351L36.8548 12.4519L39.7694 12.1014C39.9328 12.0801 40.0907 12.0244 40.234 11.9375C40.3774 11.8505 40.5034 11.734 40.6048 11.5946C40.7062 11.4553 40.7811 11.2958 40.8252 11.1253C40.8692 10.9547 40.8816 10.7765 40.8615 10.6009V10.6009Z" stroke="#1A171B" stroke-width="0.95" stroke-miterlimit="10"/>
<path d="M48.9058 12.9685C48.892 13.073 48.8373 13.1678 48.7537 13.2324C48.6701 13.2969 48.5642 13.326 48.4592 13.3133L44.0515 12.7788C43.9482 12.7659 43.8541 12.7131 43.7894 12.6319C43.7247 12.5507 43.6945 12.4475 43.7053 12.3444L44.5466 5.49305C44.5504 5.43894 44.5653 5.38617 44.5902 5.33794C44.6152 5.28972 44.6497 5.24705 44.6917 5.21253C44.7337 5.17801 44.7823 5.15237 44.8346 5.13715C44.8869 5.12194 44.9418 5.11747 44.9958 5.12403C45.0499 5.13058 45.1021 5.14802 45.1492 5.17528C45.1962 5.20254 45.2373 5.23906 45.2697 5.28261C45.3022 5.32616 45.3255 5.37583 45.3381 5.4286C45.3506 5.48138 45.3523 5.53615 45.343 5.58959L44.5501 12.0341L48.5561 12.5237C48.661 12.5374 48.7563 12.5919 48.8211 12.6752C48.8859 12.7585 48.9151 12.8639 48.9024 12.9685" fill="#1A171B"/>
<path d="M48.903 12.9685C48.8891 13.073 48.8345 13.1678 48.7509 13.2324C48.6673 13.2969 48.5615 13.326 48.4566 13.3133L44.0513 12.7788C43.9481 12.7659 43.854 12.7131 43.7894 12.6319C43.7247 12.5507 43.6945 12.4475 43.7053 12.3444L44.5462 5.49305C44.55 5.43894 44.5648 5.38617 44.5897 5.33794C44.6147 5.28972 44.6492 5.24705 44.6912 5.21253C44.7331 5.17801 44.7817 5.15237 44.834 5.13715C44.8863 5.12194 44.9411 5.11747 44.9951 5.12403C45.0492 5.13058 45.1013 5.14802 45.1484 5.17528C45.1954 5.20254 45.2364 5.23906 45.2689 5.28261C45.3013 5.32616 45.3246 5.37583 45.3371 5.4286C45.3497 5.48138 45.3514 5.53615 45.3421 5.58959L44.5496 12.0341L48.5534 12.5237C48.6589 12.5366 48.755 12.5907 48.8205 12.6741C48.886 12.7575 48.9157 12.8633 48.903 12.9685Z" stroke="#1A171B" stroke-width="0.95" stroke-miterlimit="10"/>
<path d="M55.8676 15.1085C55.85 15.1568 55.8227 15.2012 55.7872 15.2392C55.7517 15.2772 55.7086 15.3081 55.6606 15.3299C55.6126 15.3518 55.5606 15.3643 55.5075 15.3666C55.4545 15.3689 55.4015 15.3611 55.3516 15.3436L52.4021 14.3364C52.137 14.2449 51.8933 14.1038 51.6851 13.9213C51.4768 13.7388 51.308 13.5184 51.1885 13.2729C51.0689 13.0273 51.0009 12.7615 50.9884 12.4906C50.9759 12.2197 51.0192 11.9491 51.1156 11.6943L52.301 8.53518C52.3961 8.27992 52.5426 8.04527 52.7321 7.84471C52.9217 7.64415 53.1505 7.48164 53.4055 7.36652C53.6604 7.2514 53.9365 7.18594 54.2179 7.1739C54.4992 7.16187 54.7802 7.20349 55.0448 7.29638L57.9908 8.32032C58.0424 8.33648 58.0901 8.36246 58.131 8.39672C58.1719 8.43098 58.2053 8.47282 58.2291 8.51975C58.2529 8.56668 58.2667 8.61774 58.2696 8.66989C58.2724 8.72204 58.2644 8.77422 58.2459 8.82332C58.2275 8.87243 58.1989 8.91745 58.162 8.95571C58.1251 8.99397 58.0805 9.02469 58.031 9.04604C57.9815 9.0674 57.9281 9.07894 57.8739 9.08C57.8196 9.08105 57.7658 9.07159 57.7154 9.05218L54.7694 8.02824C54.6046 7.97058 54.4296 7.94483 54.2544 7.95245C54.0793 7.96008 53.9074 8.00093 53.7487 8.07267C53.59 8.14441 53.4475 8.24563 53.3295 8.37051C53.2115 8.49539 53.1203 8.64148 53.061 8.80039L52.6043 10.0191L56.523 11.3619C56.5753 11.377 56.6237 11.4022 56.6655 11.4359C56.7072 11.4697 56.7414 11.5112 56.7659 11.5581C56.7904 11.605 56.8048 11.6562 56.808 11.7086C56.8113 11.761 56.8034 11.8135 56.7849 11.8628C56.7664 11.9122 56.7376 11.9574 56.7004 11.9957C56.6631 12.034 56.6181 12.0646 56.5681 12.0856C56.5182 12.1066 56.4643 12.1175 56.4098 12.1178C56.3553 12.118 56.3013 12.1076 56.2511 12.0871L52.3324 10.7241L51.8757 11.9427C51.8158 12.1014 51.789 12.2699 51.797 12.4386C51.8049 12.6073 51.8473 12.7728 51.9218 12.9256C51.9963 13.0784 52.1014 13.2156 52.2311 13.3292C52.3608 13.4429 52.5125 13.5307 52.6775 13.5877L55.627 14.5949C55.7271 14.6305 55.8084 14.7026 55.8535 14.7957C55.8985 14.8887 55.9036 14.9951 55.8676 15.0918" fill="#1A171B"/>
<path d="M55.8676 15.1085C55.85 15.1568 55.8227 15.2012 55.7872 15.2392C55.7517 15.2772 55.7086 15.3081 55.6606 15.3299C55.6126 15.3518 55.5606 15.3643 55.5075 15.3666C55.4545 15.3689 55.4015 15.3611 55.3516 15.3436L52.4021 14.3364C52.137 14.2449 51.8933 14.1038 51.6851 13.9213C51.4768 13.7388 51.308 13.5184 51.1885 13.2729C51.0689 13.0273 51.0009 12.7615 50.9884 12.4906C50.9759 12.2197 51.0192 11.9491 51.1156 11.6943L52.301 8.53518C52.3961 8.27992 52.5426 8.04527 52.7321 7.84471C52.9217 7.64415 53.1505 7.48164 53.4055 7.36652C53.6604 7.2514 53.9365 7.18594 54.2179 7.1739C54.4992 7.16187 54.7802 7.20349 55.0448 7.29638L57.9908 8.32032C58.0424 8.33648 58.0901 8.36246 58.131 8.39672C58.1719 8.43098 58.2053 8.47282 58.2291 8.51975C58.2529 8.56668 58.2667 8.61774 58.2696 8.66989C58.2724 8.72204 58.2644 8.77422 58.2459 8.82332C58.2275 8.87243 58.1989 8.91745 58.162 8.95571C58.1251 8.99397 58.0805 9.02469 58.031 9.04604C57.9815 9.0674 57.9281 9.07894 57.8739 9.08C57.8196 9.08105 57.7658 9.07159 57.7154 9.05218L54.7694 8.02824C54.6046 7.97058 54.4296 7.94483 54.2544 7.95245C54.0793 7.96008 53.9074 8.00093 53.7487 8.07267C53.59 8.14441 53.4475 8.24563 53.3295 8.37051C53.2115 8.49539 53.1203 8.64148 53.061 8.80039L52.6043 10.0191L56.523 11.3619C56.5753 11.377 56.6237 11.4022 56.6655 11.4359C56.7072 11.4697 56.7414 11.5112 56.7659 11.5581C56.7904 11.605 56.8048 11.6562 56.808 11.7086C56.8113 11.761 56.8034 11.8135 56.7849 11.8628C56.7664 11.9122 56.7376 11.9574 56.7004 11.9957C56.6631 12.034 56.6181 12.0646 56.5681 12.0856C56.5182 12.1066 56.4643 12.1175 56.4098 12.1178C56.3553 12.118 56.3013 12.1076 56.2511 12.0871L52.3324 10.7241L51.8757 11.9427C51.8158 12.1014 51.789 12.2699 51.797 12.4386C51.8049 12.6073 51.8473 12.7728 51.9218 12.9256C51.9963 13.0784 52.1014 13.2156 52.2311 13.3292C52.3608 13.4429 52.5125 13.5307 52.6775 13.5877L55.627 14.5949C55.6786 14.6124 55.726 14.6398 55.7663 14.6754C55.8066 14.711 55.839 14.7541 55.8615 14.8022C55.884 14.8502 55.8961 14.9021 55.8971 14.9547C55.8982 15.0074 55.8882 15.0597 55.8676 15.1085V15.1085Z" stroke="#1A171B" stroke-width="0.95" stroke-miterlimit="10"/>
<path d="M71.6896 19.2491L67.9797 22.9345C67.7796 23.1328 67.5416 23.2902 67.2794 23.3976C67.0171 23.505 66.7359 23.5603 66.4518 23.5603C66.1677 23.5603 65.8864 23.505 65.6242 23.3976C65.3619 23.2902 65.1239 23.1328 64.9238 22.9345L64.7339 22.7547C64.5139 22.5441 64.3445 22.2878 64.2381 22.0045C64.1346 21.7327 64.0845 21.4442 64.0904 21.154V20.9258H63.8583C63.5638 20.9323 63.2705 20.8854 62.9933 20.7876C62.7036 20.6868 62.4405 20.5238 62.2231 20.3105L62.0368 20.1272C61.8342 19.9311 61.6731 19.6977 61.5625 19.4402C61.452 19.1827 61.3942 18.9064 61.3926 18.6269C61.391 18.3474 61.4455 18.0704 61.553 17.8117C61.6605 17.553 61.819 17.3178 62.0192 17.1194L65.7291 13.434C65.7698 13.3956 65.8177 13.3655 65.8702 13.3453C65.9226 13.3252 65.9786 13.3154 66.035 13.3165C66.0913 13.3176 66.1469 13.3296 66.1985 13.3519C66.2501 13.3741 66.2967 13.4061 66.3357 13.4461C66.3747 13.486 66.4054 13.5331 66.4259 13.5847C66.4464 13.6363 66.4563 13.6914 66.4552 13.7468C66.4541 13.8021 66.4418 13.8567 66.4192 13.9075C66.3966 13.9582 66.3641 14.0041 66.3234 14.0424L62.6135 17.714C62.4882 17.837 62.3889 17.9831 62.3211 18.1438C62.2533 18.3046 62.2184 18.4769 62.2184 18.651C62.2184 18.825 62.2533 18.9973 62.3211 19.1581C62.3889 19.3189 62.4882 19.4649 62.6135 19.5879L62.8034 19.7711C62.9282 19.8942 63.0764 19.9918 63.2396 20.0584C63.4029 20.125 63.5779 20.1593 63.7546 20.1593C63.9313 20.1593 64.1063 20.125 64.2695 20.0584C64.4328 19.9918 64.581 19.8942 64.7058 19.7711L68.4157 16.0857C68.4924 16.0129 68.5949 15.9725 68.7014 15.9731C68.8079 15.9737 68.91 16.0153 68.9858 16.0889C69.0615 16.1625 69.105 16.2623 69.1069 16.367C69.1089 16.4717 69.069 16.573 68.996 16.6492L65.2966 20.3243C65.0445 20.5731 64.9029 20.91 64.9029 21.2612C64.9029 21.6124 65.0445 21.9493 65.2966 22.1981L65.4865 22.3814C65.6113 22.5044 65.7595 22.602 65.9227 22.6686C66.086 22.7352 66.261 22.7695 66.4377 22.7695C66.6144 22.7695 66.7894 22.7352 66.9526 22.6686C67.1159 22.602 67.2641 22.5044 67.3889 22.3814L71.0989 18.6925C71.1753 18.6168 71.2792 18.5741 71.3877 18.5738C71.4962 18.5735 71.6004 18.6155 71.6773 18.6907C71.7543 18.7659 71.7977 18.8681 71.798 18.9747C71.7983 19.0814 71.7556 19.1838 71.6791 19.2594" fill="#1A171B"/>
<path d="M71.6896 19.2491L67.9797 22.9345C67.7796 23.1328 67.5416 23.2902 67.2794 23.3976C67.0171 23.505 66.7359 23.5603 66.4518 23.5603C66.1677 23.5603 65.8864 23.505 65.6242 23.3976C65.3619 23.2902 65.1239 23.1328 64.9238 22.9345L64.7339 22.7547C64.5139 22.5441 64.3445 22.2878 64.2381 22.0045C64.1346 21.7327 64.0845 21.4442 64.0904 21.154V20.9258H63.8583C63.5638 20.9323 63.2705 20.8854 62.9933 20.7876C62.7036 20.6868 62.4405 20.5238 62.2231 20.3105L62.0368 20.1272C61.8342 19.9311 61.6731 19.6977 61.5625 19.4402C61.452 19.1827 61.3942 18.9064 61.3926 18.6269C61.391 18.3474 61.4455 18.0704 61.553 17.8117C61.6605 17.553 61.819 17.3178 62.0192 17.1194L65.7291 13.434C65.7698 13.3956 65.8177 13.3655 65.8702 13.3453C65.9226 13.3252 65.9786 13.3154 66.035 13.3165C66.0913 13.3176 66.1469 13.3296 66.1985 13.3519C66.2501 13.3741 66.2967 13.4061 66.3357 13.4461C66.3747 13.486 66.4054 13.5331 66.4259 13.5847C66.4464 13.6363 66.4563 13.6914 66.4552 13.7468C66.4541 13.8021 66.4418 13.8567 66.4192 13.9075C66.3966 13.9582 66.3641 14.0041 66.3234 14.0424L62.6135 17.714C62.4882 17.837 62.3889 17.9831 62.3211 18.1438C62.2533 18.3046 62.2184 18.4769 62.2184 18.651C62.2184 18.825 62.2533 18.9973 62.3211 19.1581C62.3889 19.3189 62.4882 19.4649 62.6135 19.5879L62.8034 19.7711C62.9282 19.8942 63.0764 19.9918 63.2396 20.0584C63.4029 20.125 63.5779 20.1593 63.7546 20.1593C63.9313 20.1593 64.1063 20.125 64.2695 20.0584C64.4328 19.9918 64.581 19.8942 64.7058 19.7711L68.4157 16.0857C68.4924 16.0129 68.5949 15.9725 68.7014 15.9731C68.8079 15.9737 68.91 16.0153 68.9858 16.0889C69.0615 16.1625 69.105 16.2623 69.1069 16.367C69.1089 16.4717 69.069 16.573 68.996 16.6492L65.2966 20.3243C65.0445 20.5731 64.9029 20.91 64.9029 21.2612C64.9029 21.6124 65.0445 21.9493 65.2966 22.1981L65.4865 22.3814C65.6113 22.5044 65.7595 22.602 65.9227 22.6686C66.086 22.7352 66.261 22.7695 66.4377 22.7695C66.6144 22.7695 66.7894 22.7352 66.9526 22.6686C67.1159 22.602 67.2641 22.5044 67.3889 22.3814L71.0989 18.6925C71.1753 18.6168 71.2792 18.5741 71.3877 18.5738C71.4962 18.5735 71.6004 18.6155 71.6773 18.6907C71.7543 18.7659 71.7977 18.8681 71.798 18.9747C71.7983 19.0814 71.7556 19.1838 71.6791 19.2594L71.6896 19.2491Z" stroke="#1A171B" stroke-width="0.95" stroke-miterlimit="10"/>
<path d="M67.817 25.9721L73.2932 22.595C73.3795 22.5433 73.4836 22.5265 73.5827 22.5485C73.6818 22.5704 73.7678 22.6293 73.8217 22.7121C73.8756 22.7948 73.893 22.8948 73.8702 22.9899C73.8473 23.085 73.786 23.1675 73.6997 23.2192L68.2235 26.5807C68.1807 26.6063 68.1332 26.6236 68.0835 26.6316C68.0339 26.6396 67.983 26.6381 67.934 26.6272C67.8849 26.6163 67.8385 26.5963 67.7975 26.5682C67.7565 26.5402 67.7217 26.5046 67.695 26.4636C67.6683 26.4227 67.6503 26.377 67.642 26.3293C67.6337 26.2817 67.6352 26.2329 67.6465 26.1858C67.6579 26.1387 67.6787 26.0942 67.708 26.0549C67.7372 26.0155 67.7743 25.9821 67.817 25.9565" fill="#1A171B"/>
<path d="M67.817 25.9721L73.2932 22.595C73.3795 22.5433 73.4836 22.5265 73.5827 22.5485C73.6818 22.5704 73.7678 22.6293 73.8217 22.7121C73.8756 22.7948 73.893 22.8948 73.8702 22.9899C73.8473 23.085 73.786 23.1675 73.6997 23.2192L68.2235 26.5807C68.1807 26.6063 68.1332 26.6236 68.0835 26.6316C68.0339 26.6396 67.983 26.6381 67.934 26.6272C67.8849 26.6163 67.8385 26.5963 67.7975 26.5682C67.7565 26.5402 67.7217 26.5046 67.695 26.4636C67.6683 26.4227 67.6503 26.377 67.642 26.3293C67.6337 26.2817 67.6352 26.2329 67.6465 26.1858C67.6579 26.1387 67.6787 26.0942 67.708 26.0549C67.7372 26.0155 67.7743 25.9821 67.817 25.9565V25.9721Z" stroke="#1A171B" stroke-width="0.95" stroke-miterlimit="10"/>
<path d="M77.7787 31.2559L71.176 33.772C71.1259 33.7916 71.0724 33.8013 71.0185 33.8006C70.9646 33.7998 70.9114 33.7887 70.8619 33.7678C70.8125 33.7469 70.7677 33.7167 70.7303 33.6788C70.6929 33.641 70.6636 33.5963 70.6441 33.5473C70.6184 33.4857 70.6095 33.4186 70.6182 33.3526C70.6269 33.2866 70.6529 33.2239 70.6937 33.1706L74.683 26.8146L69.2186 28.8883C69.1183 28.9213 69.0088 28.9153 68.9129 28.8716C68.817 28.8279 68.7421 28.7499 68.7038 28.6538C68.6654 28.5576 68.6665 28.4507 68.7069 28.3554C68.7473 28.26 68.8239 28.1835 68.9207 28.1418L75.5269 25.6326C75.6285 25.5942 75.7416 25.5967 75.8413 25.6394C75.941 25.6822 76.0192 25.7618 76.0588 25.8607C76.0802 25.9168 76.0887 25.9769 76.0838 26.0366C76.0789 26.0963 76.0607 26.1542 76.0305 26.2063L72.0164 32.59L77.4808 30.5162C77.5308 30.4967 77.5843 30.4869 77.6382 30.4877C77.6921 30.4884 77.7454 30.4995 77.7948 30.5204C77.8443 30.5413 77.889 30.5715 77.9264 30.6094C77.9638 30.6472 77.9931 30.6919 78.0127 30.7409C78.0522 30.8404 78.0498 30.951 78.0059 31.0488C77.9621 31.1466 77.8804 31.2235 77.7787 31.2628" fill="#1A171B"/>
<path d="M77.7809 31.2559L71.1766 33.772C71.1265 33.7916 71.073 33.8013 71.0191 33.8006C70.9652 33.7998 70.912 33.7887 70.8625 33.7678C70.813 33.7469 70.7683 33.7167 70.7309 33.6788C70.6935 33.641 70.6641 33.5963 70.6446 33.5473C70.6189 33.4857 70.61 33.4186 70.6187 33.3526C70.6274 33.2866 70.6534 33.2239 70.6942 33.1706L74.6845 26.8146L69.2187 28.8883C69.1184 28.9213 69.0089 28.9153 68.913 28.8716C68.8171 28.8279 68.7421 28.7499 68.7038 28.6538C68.6654 28.5576 68.6665 28.4507 68.7069 28.3554C68.7474 28.26 68.8239 28.1835 68.9208 28.1418L75.5286 25.6326C75.6302 25.5942 75.7433 25.5967 75.8431 25.6394C75.9428 25.6822 76.0211 25.7618 76.0607 25.8607C76.0821 25.9168 76.0906 25.9769 76.0857 26.0366C76.0808 26.0963 76.0626 26.1542 76.0323 26.2063L72.0172 32.59L77.483 30.5162C77.533 30.4967 77.5866 30.4869 77.6405 30.4877C77.6944 30.4884 77.7476 30.4995 77.7971 30.5204C77.8466 30.5413 77.8913 30.5715 77.9287 30.6094C77.9661 30.6472 77.9955 30.6919 78.015 30.7409C78.0524 30.8395 78.0488 30.9485 78.0051 31.0446C77.9614 31.1408 77.881 31.2165 77.7809 31.2559Z" stroke="#1A171B" stroke-width="0.95" stroke-miterlimit="10"/>
<path d="M72.6271 41.9915C72.5191 42.0032 72.4105 41.9737 72.3248 41.9094C72.2391 41.8451 72.1831 41.751 72.1688 41.6474L71.8107 38.5717C71.7781 38.2953 71.8032 38.0155 71.8843 37.7485C71.9655 37.4815 72.1011 37.2327 72.2834 37.0166C72.6511 36.5793 73.1841 36.2998 73.7658 36.2391L77.3285 35.8675C77.9096 35.8077 78.4917 35.972 78.9469 36.3242C79.402 36.6764 79.6931 37.1877 79.7562 37.746L80.1143 40.8217C80.1247 40.8757 80.1234 40.9312 80.1104 40.9847C80.0975 41.0382 80.0732 41.0885 80.0391 41.1326C80.0049 41.1767 79.9617 41.2135 79.9121 41.2407C79.8625 41.268 79.8076 41.2851 79.7507 41.2911C79.6939 41.297 79.6364 41.2916 79.5819 41.2752C79.5273 41.2588 79.4769 41.2318 79.4337 41.1958C79.3906 41.1598 79.3556 41.1157 79.331 41.0661C79.3064 41.0166 79.2927 40.9626 79.2907 40.9078L78.9327 37.832C78.9135 37.6598 78.8592 37.493 78.7728 37.341C78.6865 37.189 78.5698 37.0549 78.4295 36.9462C78.2891 36.8376 78.1279 36.7566 77.955 36.7079C77.782 36.6591 77.6008 36.6437 77.4216 36.6623L76.0467 36.8068L76.5086 40.894C76.5189 40.9475 76.5176 41.0025 76.5048 41.0555C76.492 41.1085 76.468 41.1585 76.4342 41.2022C76.4004 41.2458 76.3576 41.2824 76.3085 41.3094C76.2593 41.3365 76.2049 41.3535 76.1486 41.3595C76.0923 41.3654 76.0353 41.3601 75.9812 41.3439C75.9271 41.3277 75.8771 41.301 75.8343 41.2654C75.7914 41.2297 75.7567 41.186 75.7322 41.1369C75.7078 41.0878 75.6942 41.0344 75.6922 40.98L75.2303 36.8928L73.8589 37.0338C73.6797 37.0523 73.506 37.1045 73.3479 37.1874C73.1897 37.2704 73.05 37.3825 72.937 37.5173C72.8239 37.6522 72.7396 37.8071 72.6889 37.9732C72.6382 38.1394 72.6221 38.3135 72.6414 38.4857L72.9995 41.5614C73.0108 41.6651 72.9798 41.7689 72.913 41.8511C72.8462 41.9332 72.7489 41.9872 72.6414 42.0018" fill="#1A171B"/>
<path d="M72.6271 41.9993C72.5191 42.011 72.4105 41.9815 72.3248 41.9171C72.2391 41.8527 72.1831 41.7585 72.1688 41.6548L71.8107 38.5752C71.7781 38.2984 71.8032 38.0182 71.8843 37.7509C71.9655 37.4836 72.1011 37.2345 72.2834 37.0181C72.6511 36.5803 73.1841 36.3003 73.7658 36.2396L77.3285 35.8675C77.9096 35.8077 78.4917 35.9721 78.9469 36.3248C79.402 36.6774 79.6931 37.1894 79.7562 37.7484L80.1143 40.8281C80.1247 40.8821 80.1234 40.9377 80.1104 40.9912C80.0975 41.0448 80.0732 41.0952 80.0391 41.1393C80.0049 41.1834 79.9617 41.2203 79.9121 41.2476C79.8625 41.2749 79.8076 41.292 79.7507 41.298C79.6939 41.3039 79.6364 41.2985 79.5819 41.2821C79.5273 41.2657 79.4769 41.2386 79.4337 41.2026C79.3906 41.1666 79.3556 41.1224 79.331 41.0727C79.3064 41.0231 79.2927 40.9691 79.2907 40.9142L78.9327 37.8345C78.9135 37.6621 78.8592 37.4951 78.7728 37.3429C78.6865 37.1907 78.5698 37.0564 78.4295 36.9476C78.2891 36.8388 78.1279 36.7577 77.955 36.709C77.782 36.6602 77.6008 36.6447 77.4216 36.6633L76.0467 36.808L76.5086 40.9004C76.5189 40.954 76.5176 41.009 76.5048 41.0621C76.492 41.1152 76.468 41.1652 76.4342 41.2089C76.4004 41.2527 76.3576 41.2893 76.3085 41.3164C76.2593 41.3435 76.2049 41.3605 76.1486 41.3665C76.0923 41.3724 76.0353 41.3671 75.9812 41.3509C75.9271 41.3347 75.8771 41.3079 75.8343 41.2722C75.7914 41.2366 75.7567 41.1928 75.7322 41.1436C75.7078 41.0945 75.6942 41.041 75.6922 40.9865L75.2303 36.8941L73.8589 37.0353C73.6797 37.0538 73.506 37.106 73.3479 37.1891C73.1897 37.2722 73.05 37.3844 72.937 37.5194C72.8239 37.6544 72.7396 37.8096 72.6889 37.9759C72.6382 38.1423 72.6221 38.3167 72.6414 38.489L72.9995 41.5687C73.0076 41.6729 72.9733 41.7761 72.9038 41.8564C72.8343 41.9367 72.7351 41.988 72.6271 41.9993V41.9993Z" stroke="#1A171B" stroke-width="0.95" stroke-miterlimit="10"/>
<path d="M75.5902 48.2732L75.4662 48.094L75.2836 48.2308C75.0626 48.4031 74.8072 48.5316 74.5326 48.6086C74.2461 48.6916 73.9438 48.7138 73.6472 48.6738L72.1417 48.4751C72.0897 48.4682 72.0396 48.4518 71.9943 48.4266C71.949 48.4015 71.9094 48.3681 71.8778 48.3285C71.8461 48.2889 71.823 48.2438 71.8098 48.1957C71.7965 48.1477 71.7935 48.0976 71.8007 48.0484C71.8079 47.9992 71.8253 47.9519 71.8519 47.909C71.8785 47.8662 71.9138 47.8288 71.9557 47.7988C71.9976 47.7689 72.0453 47.747 72.0962 47.7345C72.147 47.722 72.2 47.7191 72.252 47.726L73.754 47.9246C74.1002 47.9701 74.4514 47.8839 74.7305 47.6848C75.0095 47.4857 75.1936 47.1901 75.2423 46.8629L75.6419 44.1498L72.8342 43.7785C72.7791 43.7755 72.7252 43.7617 72.6759 43.7381C72.6267 43.7144 72.5832 43.6814 72.5481 43.641C72.5131 43.6006 72.4873 43.5539 72.4723 43.5036C72.4574 43.4533 72.4536 43.4007 72.4612 43.349C72.4689 43.2973 72.4878 43.2476 72.5167 43.2031C72.5457 43.1587 72.5841 43.1204 72.6295 43.0906C72.6749 43.0609 72.7263 43.0404 72.7805 43.0304C72.8347 43.0204 72.8905 43.0212 72.9444 43.0326L79.7725 43.9283C79.825 43.9343 79.8757 43.9501 79.9217 43.975C79.9676 43.9998 80.0078 44.0331 80.04 44.0729C80.0721 44.1126 80.0954 44.1581 80.1087 44.2065C80.1219 44.255 80.1247 44.3054 80.117 44.3549L79.6622 47.4426C79.5834 47.9681 79.2888 48.4432 78.8423 48.765C78.6206 48.9244 78.3674 49.0405 78.0977 49.1065C77.828 49.1725 77.5471 49.1871 77.2714 49.1493L77.0647 49.12C76.7659 49.0851 76.4795 48.9859 76.2275 48.8301C75.9847 48.6829 75.7732 48.494 75.604 48.2732H75.5902ZM77.3816 48.4002C77.7292 48.4467 78.0821 48.3611 78.363 48.162C78.6439 47.963 78.8299 47.6668 78.8802 47.3384L79.2798 44.6253L76.448 44.254L76.0346 46.9703C76.0108 47.1327 76.0211 47.2978 76.0648 47.4564C76.1085 47.615 76.1849 47.7639 76.2895 47.8945C76.3941 48.0252 76.525 48.1351 76.6745 48.2179C76.8241 48.3008 76.9894 48.355 77.1611 48.3774L77.3816 48.4002Z" fill="#1A171B"/>
<path d="M75.5902 48.2732L75.4662 48.094L75.2836 48.2308C75.0626 48.4031 74.8072 48.5316 74.5326 48.6086C74.2461 48.6916 73.9438 48.7138 73.6472 48.6738L72.1417 48.4751C72.0897 48.4682 72.0396 48.4518 71.9943 48.4266C71.949 48.4015 71.9094 48.3681 71.8778 48.3285C71.8461 48.2889 71.823 48.2438 71.8098 48.1957C71.7965 48.1477 71.7935 48.0976 71.8007 48.0484C71.8079 47.9992 71.8253 47.9519 71.8519 47.909C71.8785 47.8662 71.9138 47.8288 71.9557 47.7988C71.9976 47.7689 72.0453 47.747 72.0962 47.7345C72.147 47.722 72.2 47.7191 72.252 47.726L73.754 47.9246C74.1002 47.9702 74.4514 47.8839 74.7305 47.6848C75.0095 47.4857 75.1936 47.1901 75.2423 46.8629L75.6419 44.1498L72.8342 43.7785C72.7791 43.7755 72.7252 43.7617 72.6759 43.7381C72.6267 43.7144 72.5832 43.6814 72.5481 43.641C72.5131 43.6006 72.4873 43.5539 72.4723 43.5036C72.4574 43.4533 72.4536 43.4007 72.4612 43.349C72.4689 43.2973 72.4878 43.2476 72.5167 43.2031C72.5457 43.1587 72.5841 43.1204 72.6295 43.0906C72.6749 43.0609 72.7263 43.0404 72.7805 43.0304C72.8347 43.0204 72.8905 43.0212 72.9444 43.0326L79.7725 43.9283C79.825 43.9343 79.8757 43.9501 79.9217 43.975C79.9676 43.9998 80.0078 44.0331 80.04 44.0729C80.0721 44.1126 80.0954 44.1581 80.1087 44.2065C80.1219 44.255 80.1247 44.3054 80.117 44.3549L79.6622 47.4426C79.5834 47.9681 79.2888 48.4432 78.8423 48.765C78.6206 48.9244 78.3674 49.0405 78.0977 49.1065C77.828 49.1725 77.5471 49.1871 77.2714 49.1493L77.0647 49.12C76.7659 49.0851 76.4795 48.9859 76.2275 48.8301C75.9798 48.6842 75.7635 48.4952 75.5902 48.2732V48.2732ZM77.3678 48.4002C77.7154 48.4467 78.0683 48.3611 78.3492 48.162C78.6301 47.963 78.8161 47.6668 78.8664 47.3384L79.266 44.6253L76.4342 44.254L76.0346 46.9703C76.0108 47.1327 76.0211 47.2978 76.0648 47.4564C76.1085 47.615 76.1849 47.7639 76.2895 47.8945C76.3941 48.0252 76.525 48.1351 76.6745 48.2179C76.8241 48.3008 76.9894 48.355 77.1611 48.3774L77.3678 48.4002Z" stroke="#1A171B" stroke-width="0.95" stroke-miterlimit="10"/>
<path d="M75.1679 58.1934L72.774 54.1899L69.9656 53.0354C69.9171 53.0155 69.8729 52.9861 69.8356 52.9489C69.7983 52.9116 69.7686 52.8673 69.7483 52.8185C69.7071 52.7198 69.7063 52.6087 69.746 52.5094C69.7858 52.4102 69.8628 52.331 69.9602 52.2893C70.0575 52.2475 70.1673 52.2467 70.2652 52.287L73.0772 53.4414L77.5408 52.2588C77.6439 52.2321 77.7531 52.2479 77.8446 52.3029C77.9361 52.3579 78.0023 52.4474 78.0286 52.5518C78.055 52.6562 78.0393 52.7669 77.9851 52.8596C77.9308 52.9523 77.8425 53.0193 77.7394 53.046L73.673 54.1299L75.8543 57.7662C75.882 57.8126 75.9004 57.864 75.9085 57.9176C75.9165 57.9711 75.9141 58.0258 75.9013 58.0784C75.8886 58.131 75.8657 58.1806 75.834 58.2242C75.8023 58.2679 75.7625 58.3048 75.7167 58.3329C75.6709 58.3609 75.6202 58.3795 75.5673 58.3877C75.5144 58.3959 75.4605 58.3934 75.4086 58.3805C75.3566 58.3675 75.3077 58.3443 75.2646 58.3122C75.2215 58.2801 75.1851 58.2398 75.1574 58.1934" fill="#1A171B"/>
<path d="M75.1679 58.1934L72.774 54.1899L69.9656 53.0354C69.9171 53.0155 69.8729 52.9861 69.8356 52.9489C69.7983 52.9116 69.7686 52.8673 69.7483 52.8185C69.7071 52.7198 69.7063 52.6087 69.746 52.5094C69.7858 52.4102 69.8628 52.331 69.9602 52.2893C70.0575 52.2475 70.1673 52.2467 70.2652 52.287L73.0772 53.4414L77.5408 52.2588C77.6439 52.2321 77.7531 52.2479 77.8446 52.3029C77.9361 52.3579 78.0023 52.4474 78.0286 52.5518C78.055 52.6562 78.0393 52.7669 77.9851 52.8596C77.9308 52.9523 77.8425 53.0193 77.7394 53.046L73.673 54.1299L75.8543 57.7662C75.882 57.8126 75.9004 57.864 75.9085 57.9176C75.9165 57.9711 75.9141 58.0258 75.9013 58.0784C75.8886 58.131 75.8657 58.1806 75.834 58.2242C75.8023 58.2679 75.7625 58.3048 75.7167 58.3329C75.6709 58.3609 75.6202 58.3795 75.5673 58.3877C75.5144 58.3959 75.4605 58.3934 75.4086 58.3805C75.3566 58.3675 75.3077 58.3443 75.2646 58.3122C75.2215 58.2801 75.1851 58.2398 75.1574 58.1934H75.1679Z" stroke="#1A171B" stroke-width="0.95" stroke-miterlimit="10"/>
</svg>
