<?xml version="1.0" encoding="UTF-8"?><!DOCTYPE svg PUBLIC "-//W3C//DTD SVG 1.1//EN" "http://www.w3.org/Graphics/SVG/1.1/DTD/svg11.dtd"><svg xmlns="http://www.w3.org/2000/svg" xmlns:xlink="http://www.w3.org/1999/xlink"><symbol id="arrow" viewBox="0 0 16 16"><path d="M1 8.916a.75.75 0 1 0 0 1.5v-1.5Zm14 .75.525.535a.75.75 0 0 0 0-1.07L15 9.666Zm-4.565-5.535A.75.75 0 1 0 9.384 5.2l1.05-1.07Zm-1.051 10a.75.75 0 0 0 1.05 1.07l-1.05-1.07ZM1 10.416h14v-1.5H1v1.5Zm14.525-1.285-5.09-5L9.384 5.2l5.09 5 1.051-1.07Zm-1.05 0-5.091 5 1.05 1.07 5.091-5-1.05-1.07Z"/></symbol><symbol id="battery"><g fill="none"><path d="M2 27.665h12c1.1 0 2-.9 2-2V4.332c0-1.1-.9-2-2-2h-2.667v-.667c0-.733-.6-1.333-1.333-1.333H6c-.733 0-1.333.6-1.333 1.333v.667H2c-1.1 0-2 .9-2 2v21.333c0 1.1.9 2 2 2Zm4-26h4v.667H6v-.667ZM1.333 4.332c0-.367.3-.667.667-.667h12c.367 0 .667.3.667.667v21.333c0 .367-.3.667-.667.667H2a.669.669 0 0 1-.667-.667V4.332Z" fill="#639080"/><path d="M3.335 11.001h9.333c.367 0 .667-.3.667-.666v-4c0-.367-.3-.667-.667-.667H3.335c-.367 0-.667.3-.667.667v4c0 .366.3.666.667.666Zm.666-4h8v2.667h-8V7.001Zm-.666 10.667h9.333c.367 0 .667-.3.667-.667v-4c0-.366-.3-.666-.667-.666H3.335c-.367 0-.667.3-.667.666v4c0 .367.3.667.667.667Zm.666-4h8v2.667h-8v-2.667Zm-.666 10.667h9.333c.367 0 .667-.3.667-.667v-4c0-.367-.3-.667-.667-.667H3.335c-.367 0-.667.3-.667.667v4c0 .367.3.667.667.667Zm.666-4h8V23h-8v-2.666Z" fill="#639080"/></g></symbol><symbol id="bio"><g fill="none"><path d="M16 5.261c-5.741 0-10.412 4.672-10.412 10.413 0 3.438 1.675 6.492 4.252 8.39v1.767c0 .877.6 1.616 1.41 1.83a1.571 1.571 0 0 0 1.436 2.2h.154A1.571 1.571 0 0 0 14.303 32h3.395a1.571 1.571 0 0 0 1.463-2.139h.152a1.571 1.571 0 0 0 1.437-2.2 1.894 1.894 0 0 0 1.41-1.83v-1.768a10.404 10.404 0 0 0 4.253-8.389c0-5.741-4.671-10.412-10.413-10.412ZM17.698 31h-3.396a.57.57 0 0 1 0-1.139h3.396a.57.57 0 0 1 0 1.139Zm1.615-2.139h-6.626a.57.57 0 0 1 0-1.139h6.626a.57.57 0 0 1 0 1.139Zm1.848-3.03c0 .491-.4.891-.892.891h-8.538a.892.892 0 0 1-.891-.891v-1.116A10.35 10.35 0 0 0 16 26.087c1.877 0 3.639-.5 5.16-1.372v1.116ZM16 16.535a4.752 4.752 0 0 1-1.174-3.147c0-1.174.413-2.274 1.173-3.146a4.752 4.752 0 0 1 1.173 3.146A4.752 4.752 0 0 1 16 16.535Zm.5 8.538V22.55a6.143 6.143 0 0 0 4.612-1.621 6.142 6.142 0 0 0 1.957-4.01.5.5 0 0 0-.417-.534 6.142 6.142 0 0 0-5.193 1.554c-.368.34-.689.72-.96 1.13v-1.603a5.83 5.83 0 0 0 1.673-4.076 5.828 5.828 0 0 0-1.83-4.231.5.5 0 0 0-.685 0 5.828 5.828 0 0 0-1.831 4.23 5.83 5.83 0 0 0 1.673 4.077v1.602a6.191 6.191 0 0 0-.959-1.129 6.142 6.142 0 0 0-5.193-1.554.5.5 0 0 0-.417.534 6.142 6.142 0 0 0 1.957 4.01 6.143 6.143 0 0 0 4.612 1.62v2.525c-4.958-.26-8.912-4.377-8.912-9.399 0-5.19 4.222-9.412 9.412-9.412s9.413 4.222 9.413 9.412c0 5.022-3.954 9.139-8.913 9.4Zm.06-3.521c.434-2.42 2.58-4.251 5.081-4.251.123 0 .246.004.368.013-.434 2.419-2.579 4.25-5.08 4.25-.123 0-.246-.004-.369-.012Zm-1.122 0a5.21 5.21 0 0 1-.368.013c-2.502 0-4.647-1.832-5.08-4.251.122-.01.245-.013.367-.013 2.502 0 4.647 1.832 5.081 4.25Zm16.235-5.878a.5.5 0 0 1-.5.5h-2.55a.5.5 0 1 1 0-1h2.55a.5.5 0 0 1 .5.5Zm-4.59-11.083a.5.5 0 0 1 0 .707L25.28 7.1a.498.498 0 0 1-.707 0 .5.5 0 0 1 0-.707l1.803-1.803a.5.5 0 0 1 .707 0ZM15.5 3.05V.5a.5.5 0 0 1 1 0v2.55a.5.5 0 1 1-1 0ZM6.72 7.1 4.918 5.298a.5.5 0 1 1 .707-.707l1.804 1.803a.5.5 0 1 1-.707.707Zm-2.843 8.573a.5.5 0 0 1-.5.5H.827a.5.5 0 0 1 0-1h2.55a.5.5 0 0 1 .5.5Z" fill="#639080"/></g></symbol><symbol id="close" viewBox="0 0 16 16"><path d="M3.163 1.151A1.2 1.2 0 0 0 1.466 2.85L3.163 1.15Zm9.617 13.011a1.2 1.2 0 1 0 1.697-1.697l-1.697 1.697ZM1.466 2.85 12.78 14.162l1.697-1.697L3.163 1.151 1.466 2.85Z"/><path d="M14.163 2.849a1.2 1.2 0 0 0-1.697-1.698l1.697 1.698Zm-13.01 9.616a1.2 1.2 0 1 0 1.696 1.697l-1.697-1.697ZM12.465 1.151 1.152 12.465l1.697 1.697L14.163 2.85 12.466 1.15Z"/></symbol><symbol id="eco"><g fill="none"><path d="M30 22.749c.3-.95.45-1.95.45-3 0-.5-.05-1-.1-1.5 0-.05 0-.15-.05-.2-.3-1.95-1.15-3.7-2.35-5.15l-.05-.05c-1.95-2.3-4.9-3.8-8.15-3.8-2.1 0-4.05.6-5.7 1.65-.05 0-.1.05-.15.1-2.95 1.9-4.9 5.2-4.9 8.95 0 .5.05 1 .1 1.45v.15c.1.5.2 1 .3 1.45-1.1-2.2-1.6-4.7-1.4-7.15.15-1.7.7-3.4 1.6-4.85.05-.1.1-.15.15-.25.1 0 .3.05.6.05 1.15 0 3.65-.35 7.45-2.65 5.35-3.25 9.55-1.1 9.75-1 .2.1.45.05.6-.1.15-.2.15-.45.05-.6-.05-.05-5.5-7.35-14.1-3.7-3.35 1.4-5.05 4-4.85 7.25-.15.2-.25.35-.4.55-.2.25-.35.55-.5.85 0-.65-.1-1.35-.25-2-.1-.45-.25-.85-.45-1.25.75-.8 1.25-2.1-.55-3.9-1.55-1.5-4.85-2.1-5-2.1-.15-.05-.35.05-.45.2-.15.2-.1.4 0 .6.85 1.1 1 1.8 1.2 2.55.15.6.3 1.25.85 2.1l.05.05c.7.8 1.45 1.25 2.2 1.3H6c.3 0 .6-.05.9-.2.1.3.2.6.25.9.3 1.15.45 2.35.45 3.55-.3.85-.45 1.75-.55 2.65-.15 1.85.05 3.75.65 5.5s1.55 3.4 2.8 4.8c.6.7 1.3 1.3 2.05 1.85.05.05.1.1.2.1 1.85 1.6 4.3 2.6 6.95 2.6 4.8 0 8.9-3.2 10.25-7.6.05-.05.05-.1.05-.15 0 .05 0 0 0 0Zm-15.45-19.3c5.55-2.35 9.6.2 11.6 2-1.95-.45-5.15-.55-8.8 1.65-3.45 2.1-5.75 2.45-6.8 2.5.8-.95 1.7-1.75 2.75-2.45 1.45-.95 3.1-1.7 4.8-2.1 1.7-.45 3.5-.65 5.3-.5-3.55-.6-7.35.1-10.55 2-.95.55-1.85 1.25-2.6 2.05.3-2.3 1.75-4.05 4.3-5.15Zm-8.6 4.3c-.45 0-.95-.3-1.45-.9-.45-.7-.55-1.25-.7-1.8-.1-.55-.25-1.15-.65-1.85 1.05.3 2.5.8 3.3 1.55 1.2 1.15 1 1.85.75 2.25-.1-.2-.25-.35-.35-.55-.15-.2-.3-.4-.5-.6l-.55-.5c-.1-.1-.2-.15-.3-.25-.1-.05-.2-.15-.3-.2-.25-.1-.5-.2-.7-.3.15.2.3.4.45.55l.25.25c.05.1.15.2.2.3l.4.55c.1.2.25.4.35.6.15.25.25.45.35.7-.15.15-.35.2-.55.2Zm17.75 10.85c-.3-.25-1.2-.7-2.75.65-1.4 1.25-2.45 1.3-2.8 1.3-.3-.05-.45-.15-.5-.2-.1-.1-.15-.35-.1-.65.05-.3.35-.9 1.35-1.4.95-.5 1.2-1.2 1.4-1.8.25-.75.55-1.5 2.05-2.3 2.4-1.25 4.45-.75 4.95-.55.95 1.2 1.65 2.6 2 4.15-.85.15-2.3.7-3.2 2.7-.5 1.1-1.2 1.25-1.5 1.3-.35 0-.6-.1-.7-.25-.1-.1-.05-.25.05-.45.45-.95.35-2-.25-2.5Zm2.35-6.2c-1.05-.1-2.55.05-4.2.9-1.85.95-2.25 2-2.55 2.85-.2.55-.35.95-.95 1.25-1 .5-1.65 1.25-1.85 2.1-.1.55-.05 1.1.25 1.5.25.35.7.55 1.2.6.65.05 1.95-.05 3.6-1.55.75-.65 1.25-.8 1.45-.6.2.15.25.65-.05 1.2-.25.5-.25 1.05 0 1.45.3.45.85.75 1.45.75h.15c.95-.05 1.8-.75 2.3-1.9.75-1.6 1.85-2.05 2.45-2.15.05.35.05.65.05 1 0 1-.15 1.9-.4 2.8-.3 1-1.65 2.2-2.7 2.7-.45.2-.7.2-.75.2v-.1c0-.7-.2-1.15-.6-1.4-.7-.4-1.6.1-1.75.2 0 0-.05 0-.05.05 0 0-1.25.85-5.2-.35-3.45-1.05-5.2.65-5.95 1.7a9.681 9.681 0 0 1-1.85-4.35s0-.05.05-.05c.1.05.3.15.6.6.5.6.95.8 1.3.8.15 0 .25-.05.35-.05 1.5-.5 1.75-3.85 1.75-5.25 0-2.05 2.6-3.35 4.3-4.2 1.2-.6 1.85-.95 1.85-1.55 0-.2-.1-.5-.55-.75-.6-.3-1.35-.4-2.1-.45.65-.15 1.35-.2 2.05-.2 2.45-.1 4.65.8 6.35 2.25Zm-11.6-.8c.55-.1 3.15-.65 4.65-.1-.3.15-.7.4-1.1.6-1.9.95-4.8 2.45-4.85 5.1-.05 2.9-.65 4.2-1.05 4.35-.1.05-.35-.1-.55-.4-.35-.45-.9-1.05-1.5-.95v-.4c-.05-3.45 1.75-6.45 4.4-8.2Zm5.3 17.85c-2.8 0-5.3-1.2-7.1-3.1.4-.7 1.75-2.5 5-1.55 4.25 1.25 5.8.4 6.1.2.25-.15.6-.25.7-.2.05 0 .1.15.1.5 0 .6.3 1 .85 1.1.5.05 1.2-.15 1.9-.6a9.677 9.677 0 0 1-7.55 3.65Z" fill="#639080"/></g></symbol><symbol id="ecology"><g fill="none"><path d="M15.959 2a.5.5 0 0 0-.324.16s-2.641 2.827-5.285 6.364c-1.322 1.769-2.648 3.715-3.65 5.592C5.695 15.993 5 17.793 5 19.35 5 25.236 9.94 30 16 30s11-4.764 11-10.65c0-1.557-.696-3.357-1.7-5.234-1.002-1.877-2.328-3.823-3.65-5.592-2.644-3.537-5.285-6.363-5.285-6.363A.5.5 0 0 0 15.96 2ZM16 3.283c.328.354 2.426 2.598 4.85 5.84 1.303 1.743 2.602 3.659 3.568 5.466C25.384 16.396 26 18.105 26 19.35 26 24.677 21.538 29 16 29S6 24.678 6 19.35c0-1.245.616-2.954 1.582-4.762.966-1.807 2.265-3.723 3.568-5.466 2.424-3.242 4.522-5.486 4.85-5.84Zm8.508 15.709c-.017 0-.034 0-.051.002a.5.5 0 0 0-.47.476 7.994 7.994 0 0 1-7.49 7.518.5.5 0 1 0 .06.998 9.007 9.007 0 0 0 8.427-8.457.5.5 0 0 0-.476-.537Z" fill="#639080"/></g></symbol><symbol id="ecology_2"><g fill="none"><path d="M15 4a.5.5 0 0 0-.5.5v.506h-1.594c-.208-.58-.76-1-1.406-1-.822 0-1.5.677-1.5 1.5 0 .822.678 1.5 1.5 1.5.646 0 1.197-.422 1.406-1H14.5V6.5a.5.5 0 0 0 .5.5h.5v1.006H15a.5.5 0 0 0-.5.5v1.5h-.75c-.96 0-1.75.79-1.75 1.75v.25H7.096C5.383 12.006 4 13.428 4 15.162v3.344a.5.5 0 0 0 .5.5h3a.5.5 0 0 0 .5-.5v-1.75c0-.424.326-.75.75-.75H12v.25c0 .96.79 1.75 1.75 1.75h4.5c.96 0 1.75-.79 1.75-1.75v-.25h4v2.5a.5.5 0 0 0 .5.5h3a.5.5 0 0 0 .5-.5v-9a.5.5 0 0 0-.5-.5h-3a.5.5 0 0 0-.5.5v2.5h-4v-.25c0-.96-.79-1.75-1.75-1.75h-.75v-1.5a.5.5 0 0 0-.5-.5h-.5V7h.5a.5.5 0 0 0 .5-.5v-.494h1.594c.209.578.76 1 1.406 1 .823 0 1.5-.678 1.5-1.5 0-.823-.677-1.5-1.5-1.5-.647 0-1.198.42-1.406 1H17.5V4.5A.5.5 0 0 0 17 4h-2Zm.5 1h1v1h-1V5Zm-4 .006c.282 0 .5.218.5.5 0 .282-.218.5-.5.5a.493.493 0 0 1-.5-.5c0-.282.218-.5.5-.5Zm9 0c.282 0 .5.218.5.5 0 .282-.218.5-.5.5a.493.493 0 0 1-.5-.5c0-.282.218-.5.5-.5Zm-5 4h.424a.5.5 0 0 0 .146 0h.43v1h-1v-1Zm9.5 1h2v8h-2v-2.422a.5.5 0 0 0 0-.16v-2.84a.5.5 0 0 0 0-.16v-2.418Zm-11.25 1h1.174a.5.5 0 0 0 .146 0h1.854a.5.5 0 0 0 .146 0h1.18c.424 0 .75.326.75.75v4.5c0 .424-.326.75-.75.75h-4.5a.738.738 0 0 1-.75-.75v-4.5c0-.424.326-.75.75-.75Zm-6.654 2H12v2H8.75c-.96 0-1.75.789-1.75 1.75v1.25H5v-2.844c0-1.21.932-2.156 2.096-2.156Zm12.904 0h4v2h-4v-2ZM6.018 20.369c-.017 0-.034 0-.051.002a.5.5 0 0 0-.338.164s-.64.707-1.283 1.596c-.322.444-.647.934-.899 1.422-.252.487-.447.963-.447 1.459a3.004 3.004 0 0 0 3 2.994c1.65 0 3-1.346 3-2.994 0-.496-.195-.972-.447-1.46a11.555 11.555 0 0 0-.899-1.421 21.193 21.193 0 0 0-1.283-1.596.5.5 0 0 0-.353-.166ZM6 21.666c.219.253.424.469.846 1.05.303.42.603.877.82 1.296.217.418.334.806.334 1a1.99 1.99 0 0 1-2 1.994c-1.111 0-2-.887-2-1.994 0-.194.117-.582.334-1 .217-.419.517-.877.82-1.295.422-.582.627-.798.846-1.051Z" fill="#639080"/></g></symbol><symbol id="laboratory"><g fill="none"><path d="m22.126 27.402-6.48-8.823v-6.954h1.758V8.312h-5.598V7.125h1.943c2.456 0 4.436-1.905 4.436-4.263V0h-2.964c-1.704 0-3.187.924-3.936 2.277C10.536.924 9.054 0 7.35 0H4.386v2.862c0 2.358 1.98 4.263 4.436 4.263h1.943v1.187H5.492v3.313H7.38v6.954L.495 27.923c-.321.436-.495.96-.495 1.494 0 1.245.922 2.293 2.146 2.532l18.16.051c1.355 0 2.483-.978 2.662-2.233.138-.852-.172-1.747-.842-2.365ZM11.806 4.275C11.806 2.468 13.34 1 15.221 1h1.923v1.862c0 1.807-1.513 3.263-3.395 3.263h-1.943v-1.85Zm-1.041 1.85H8.822c-1.882 0-3.395-1.456-3.395-3.263V1H7.35c1.882 0 3.415 1.468 3.415 3.275v1.85ZM6.27 21.813h10.456l4.572 6.215.04.035s.614 1.028.614 1.355c0 .056-.05.365-.09.469-.206.549-.714.988-1.332 1.05H2.332a1.612 1.612 0 0 1-1.218-1.08c-.226-.73.218-1.332.269-1.4l4.887-6.645Zm.264-12.5h9.829v1.312h-9.83V9.312Zm1.887 9.584v-7.272h6.184v7.272l1.411 1.916h-9.01l1.415-1.916Z" fill="#639080"/></g></symbol><symbol id="natur"><g fill="none"><path d="M22.38 22.405a.467.467 0 0 1 0-.933h3.588c1.717-.1 3.084-1.552 3.084-3.304a3.311 3.311 0 0 0-3.31-3.304c-.175 0-.352.028-.549.056-.153.021-.35-.023-.453-.13-.104-.107-.201-.25-.176-.397.035-.201.07-.402.07-.637 0-2.84-2.298-5.15-5.12-5.15-1.686 0-3.212.805-4.189 2.211a.466.466 0 0 1-.765-.532 6.043 6.043 0 0 1 4.953-2.613c3.337 0 6.052 2.73 6.052 6.084 0 .061-.001.123-.004.181a4.245 4.245 0 0 1 4.424 4.23 4.24 4.24 0 0 1-3.988 4.237l-3.617.001Z" fill="#639080"/><path d="M19.212 24.326H6.146a.46.46 0 0 1-.21-.054c-2.243-.27-3.916-2.128-3.916-4.372a4.395 4.395 0 0 1 4.68-4.377c.085-3.283 2.785-5.93 6.093-5.93 3.338 0 6.055 2.73 6.055 6.085 0 .058-.002.118-.006.178.058-.002.119-.005.18-.005 2.358 0 4.203 1.861 4.203 4.237 0 2.25-1.75 4.11-3.987 4.236l-.026.002Zm-12.92-.935H19.2a3.303 3.303 0 0 0 3.093-3.304c0-1.852-1.438-3.304-3.27-3.304-.235 0-.438.035-.64.07a.467.467 0 0 1-.54-.524l.02-.134c.027-.185.053-.352.053-.519 0-2.84-2.3-5.15-5.123-5.15-2.847 0-5.161 2.31-5.161 5.15 0 .028.014.114.053.234a.467.467 0 0 1-.501.606l-.152-.02c-.212-.028-.394-.052-.622-.052a3.46 3.46 0 0 0-3.458 3.454c0 1.801 1.376 3.288 3.198 3.456.05.006.099.018.142.037Z" fill="#639080"/></g></symbol><symbol id="target" viewBox="0 0 16 16"><path d="M15.332.167a.5.5 0 0 1 .353.854l-5.5 5.5a.5.5 0 1 1-.707-.707l5.5-5.5a.499.499 0 0 1 .354-.147Z"/><path d="M11.833.001H15.5a.5.5 0 0 1 .5.5v3.667a.5.5 0 0 1-1 0V1.001h-3.167a.5.5 0 0 1 0-1ZM11.5 15.999H1.833A1.835 1.835 0 0 1 0 14.165V6.5c0-.654.353-1.26.92-1.582a.5.5 0 1 1 .493.87.81.81 0 0 0-.413.712v7.666c0 .46.374.834.833.834H11.5c.46 0 .833-.374.833-.834v-1.333a.5.5 0 0 1 1 0v1.333A1.835 1.835 0 0 1 11.5 16Z"/><path d="M14.168 11.333H4.501A1.835 1.835 0 0 1 2.668 9.5V1.833C2.668.822 3.49 0 4.501 0h3.667a.5.5 0 0 1 0 1H4.501a.834.834 0 0 0-.833.833V9.5c0 .46.374.833.833.833h9.667c.46 0 .833-.374.833-.833V7.833a.5.5 0 0 1 1 0V9.5a1.835 1.835 0 0 1-1.833 1.833Z"/></symbol></svg>