<svg width="151" height="296" viewBox="0 0 151 296" fill="none" xmlns="http://www.w3.org/2000/svg">
<path d="M150.944 45.9594C150.502 42.689 147.862 40.4411 142.871 39.0916C133.445 36.6063 123.871 34.7165 114.205 33.4335L116.383 24.7536C117.685 24.4497 118.938 24.1545 120.127 23.8681C120.815 23.766 121.447 23.43 121.914 22.9171C122.12 22.7172 122.268 22.4657 122.343 22.1892C122.418 21.9127 122.416 21.6212 122.339 21.3454C122.015 20.5072 120.841 20.4369 119.769 20.4369H119.473C118.565 20.4011 117.658 20.3566 116.75 20.314C116.107 20.2798 115.464 20.2487 114.82 20.2208C114.757 20.1071 114.655 20.0203 114.532 19.977L73.6112 5.7443C73.5079 5.44569 73.3682 5.1608 73.1954 4.89596L70.3048 0.470547C70.2116 0.318249 70.0785 0.194126 69.9198 0.111532C69.761 0.0289384 69.5827 -0.00899887 69.4039 0.00180026C69.2251 0.018437 69.0539 0.0816207 68.9074 0.185005C68.761 0.28839 68.6444 0.428334 68.5695 0.590775L66.788 4.19082C66.7 4.37088 66.6278 4.55823 66.5723 4.75075L25.7553 21.985C25.647 22.0323 25.5575 22.114 25.5009 22.2174L24.7207 22.2505C22.9054 22.3281 13.851 23.0042 13.851 28.6711C13.851 32.6561 19.1844 34.1319 22.4922 34.6635L27.8793 47.0793L13.4148 49.4899C13.2838 49.5101 0.311768 51.914 0.00649487 54.4117C-0.00216496 54.4855 -0.00216496 54.5601 0.00649487 54.6339C-0.00781205 54.7414 0.00669696 54.8507 0.0485523 54.9507C0.998287 57.0721 2.37241 58.9785 4.08698 60.5534L38.6927 110.961C37.6032 111.777 37.0497 112.65 37.0497 113.563V116.795L37.0782 116.974C37.3543 118.788 39.9952 120.413 44.307 121.699L66.4644 156.31C66.3277 156.37 66.2055 156.458 66.1063 156.569C66.0381 156.656 65.988 156.756 65.9591 156.862C65.9302 156.969 65.9231 157.08 65.938 157.189L65.9468 158.411C65.7817 158.436 65.6306 158.518 65.5202 158.642C65.4098 158.767 65.3473 158.927 65.3438 159.093V163.101C65.3454 163.267 65.4073 163.427 65.5182 163.551C65.6291 163.676 65.7813 163.756 65.9468 163.777V188.605C65.9556 189.692 65.6965 190.763 65.1923 191.727C64.6881 192.69 63.9542 193.515 63.0549 194.13C59.4187 196.775 54.5846 201.3 54.5846 210.023V215.771V271.818V289.812C54.5744 290.37 54.5975 293.246 56.1747 294.878C56.517 295.23 56.9264 295.51 57.379 295.702C57.8316 295.895 58.3182 295.995 58.8102 295.997C58.8604 295.997 58.9093 295.997 58.9602 295.997H85.5562C86.0772 296.017 86.5964 295.927 87.0805 295.735C87.5647 295.543 88.003 295.251 88.3674 294.88C90.0105 293.18 89.9671 290.157 89.9569 289.835V210.023C89.9569 201.302 85.1227 196.777 81.4771 194.122C80.5806 193.506 79.8495 192.681 79.3478 191.718C78.8461 190.755 78.5892 189.685 78.5994 188.6V163.774C78.7645 163.749 78.9156 163.667 79.0259 163.542C79.1362 163.418 79.1988 163.258 79.2025 163.092V159.084C79.2002 158.957 79.1628 158.834 79.0945 158.728C79.0261 158.621 78.9294 158.536 78.8151 158.481L101.302 120.074C103.253 119.043 104.335 117.883 104.335 116.638V113.723L138.353 55.1891C138.976 55.1031 139.602 55.0153 140.232 54.9257C140.616 54.867 141.002 54.8197 141.39 54.7711L141.422 54.767C143.415 54.5151 145.473 54.2543 147.302 53.1325C149.351 51.8735 151.365 49.0914 150.944 45.9594ZM142.606 40.1933C146.036 41.1226 148.217 42.4451 149.246 44.2289C145.218 43.8325 128.894 42.2236 112.409 40.5816L113.926 34.5406C123.596 35.819 133.175 37.7072 142.606 40.1939V40.1933ZM92.9961 118.34L92.937 118.173L95.2063 109.136C100.262 110.4 103.27 112.046 103.27 113.557C103.27 114.888 100.609 116.855 93.188 118.43L93.1935 118.417L92.9961 118.34ZM67.0987 187.921V185.101L68.0614 182.64H77.0839L77.4448 183.942V187.921H67.0987ZM67.0987 163.673L67.077 162.637H66.5146L66.4977 159.555H67.1008V157.301C67.1907 157.289 67.2814 157.283 67.3721 157.284H70.0524L72.7863 167.138L67.1666 181.497H67.1035L67.0987 163.673ZM77.4712 159.553H78.0336L78.0512 162.635H77.4468V179.257L74.1031 167.205L77.4509 158.653L77.4712 159.553ZM76.7677 181.495H68.5118L73.3419 169.15L76.7677 181.495ZM73.5448 165.191L71.3509 157.282H76.6422L73.5448 165.191ZM77.0886 156.136H71.0327L62.23 124.41C64.9232 124.567 67.7561 124.65 70.6928 124.65C77.1347 124.696 83.5704 124.242 89.9413 123.291L77.0886 156.136ZM70.6976 123.518C67.5539 123.518 64.626 123.424 61.9104 123.26L61.361 121.279C64.318 121.469 67.4474 121.571 70.6989 121.571C76.4658 121.595 82.2279 121.236 87.9468 120.496C88.0406 120.547 88.148 120.565 88.2533 120.55C88.3586 120.536 88.4563 120.488 88.5323 120.413C89.4648 120.281 90.366 120.138 91.2356 119.982L90.4284 122.047C83.9039 123.085 77.3033 123.577 70.6962 123.516L70.6976 123.518ZM31.9075 53.6681L29.4341 47.962L65.8729 41.8879L31.9075 53.6681ZM31.9666 56.5049C30.4976 56.4518 29.0504 56.3977 27.6249 56.3428L31.3356 55.0547L31.9666 56.5049ZM67.1069 42.6511L67.1374 42.641C67.2202 42.6668 67.3064 42.6797 67.3932 42.6795H67.944L67.4406 57.5964C66.4407 57.5694 65.4087 57.5399 64.3445 57.5079C55.2026 57.2485 43.839 56.9304 33.1544 56.5481L32.3546 54.7028L67.1069 42.6511ZM72.7673 37.2646L72.7863 37.3517V41.5394H67.4773V32.0341H72.7863V37.0079C72.7613 37.092 72.7555 37.1807 72.7694 37.2673L72.7673 37.2646ZM79.6502 69.8142V71.3643C79.5322 71.4616 79.0302 71.7926 77.3132 72.1019C75.1229 72.4516 72.9069 72.6158 70.6888 72.5929C69.8272 72.5929 68.9867 72.5727 68.1787 72.5328V72.1634L68.0749 72.5261C66.7311 72.4674 65.3923 72.3253 64.0664 72.1006C62.3487 71.7926 61.846 71.4589 61.7286 71.363V69.8156C64.1199 70.8828 69.9819 70.9159 70.6894 70.9159C71.397 70.9159 77.2609 70.8828 79.6522 69.8169L79.6502 69.8142ZM78.98 68.8761C79.1382 68.7961 79.2868 68.6984 79.4229 68.5849L79.5179 68.6363C79.3473 68.7335 79.1678 68.8147 78.982 68.8788L78.98 68.8761ZM91.6929 118.732C90.6753 118.923 89.6157 119.099 88.5187 119.261L87.6267 116.178C87.654 116.069 87.6486 115.954 87.611 115.847C87.5818 115.763 87.5324 115.686 87.4672 115.624L87.3146 115.098L87.3248 115.003C87.3271 114.853 87.272 114.708 87.1708 114.597L86.8994 113.652L86.915 113.524C86.9163 113.444 86.9012 113.364 86.8705 113.29C86.8398 113.216 86.7943 113.149 86.7366 113.093L86.4015 111.934C86.4423 111.82 86.4462 111.696 86.4126 111.58C86.379 111.464 86.3097 111.361 86.2143 111.286L85.9741 110.462C85.9842 110.32 85.9433 110.179 85.8588 110.064L84.9348 106.866L84.9389 106.829C84.9504 106.674 84.9002 106.521 84.7992 106.402L75.2902 73.5088C75.5277 73.4845 75.7651 73.4602 75.991 73.4332L91.8184 118.234L91.6929 118.732ZM42.337 68.1311C47.3428 68.8619 50.9111 69.3657 51.312 69.4218L51.5834 69.4603L53.6715 67.1294L55.2399 84.1462L50.9294 91.5293L42.3384 68.1304L42.337 68.1311ZM41.8927 66.9153L38.5686 57.8645C42.7529 58.0037 47.4358 58.1482 52.8561 58.3069L53.531 65.6326L51.1832 68.2574C50.1785 68.1169 46.6047 67.6069 41.8893 66.916L41.8927 66.9153ZM68.7221 66.2709C65.3824 66.1291 63.4056 65.6461 62.8032 65.3429C63.2577 65.1105 64.5989 64.6783 67.5519 64.4648V65.3327C67.5553 65.5307 67.5553 66.0149 68.7221 66.2716V66.2709ZM68.6203 65.0788V58.7615L72.7639 58.8817V65.0828C71.3992 65.3913 69.9824 65.3913 68.6176 65.0828L68.6203 65.0788ZM67.5553 63.3294C63.5983 63.6057 61.5943 64.2804 61.5943 65.3382V67.5144C61.2375 67.6832 60.6677 68.027 60.6677 68.6363L60.6765 68.7565L60.6677 68.8585V71.4515C60.6677 71.9614 61.0747 72.3741 61.9152 72.7051L56.1598 82.5623L54.6388 66.0453L61.3094 58.596L61.3413 58.5562L67.5553 58.7297V63.3294ZM62.3996 68.8774C62.213 68.8156 62.0328 68.736 61.8616 68.6397L61.9552 68.5883C62.0923 68.7019 62.2421 68.7994 62.4016 68.8788L62.3996 68.8774ZM54.5005 64.558L53.9252 58.3441L59.9051 58.5163L54.5005 64.558ZM62.9762 73.0286C63.4511 73.1461 64.0033 73.2461 64.6267 73.3366L51.5223 98.8746L49.9756 95.3117L62.9762 73.0286ZM64.835 75.298L54.2671 105.212L52.0725 100.157L64.835 75.298ZM66.5859 73.5548C66.8247 73.575 67.0607 73.5933 67.3009 73.6095L56.6102 110.607L54.898 106.66L66.5859 73.5548ZM71.4702 113.664H69.9351C69.4843 113.65 69.0393 113.559 68.6197 113.394L68.5451 113.35L68.6197 108.71L68.6339 108.562L68.6197 108.459V106.171C69.3259 106.204 70.0368 106.221 70.6928 106.221C71.3488 106.221 72.0571 106.204 72.7605 106.171V113.384C72.3498 113.549 71.914 113.644 71.4716 113.665L71.4702 113.664ZM71.9119 118.018C71.1249 118.03 70.3231 118.03 69.5307 118.018L70.3136 114.794H71.072L71.9119 118.018ZM66.0099 117.868L65.7521 117.849L69.0328 115.543L66.0099 117.868ZM68.6129 117.274L68.4399 117.99C68.195 117.981 67.9521 117.973 67.712 117.963L68.6129 117.274ZM68.252 105.019C68.1647 104.989 68.0708 104.984 67.9806 105.003C64.5175 104.794 62.9321 104.237 62.6587 104.021V100.866C64.8804 101.812 70.064 101.839 70.6928 101.839C71.3217 101.839 76.5059 101.809 78.7256 100.866V104.021C78.4542 104.238 76.8681 104.794 73.405 105.003C73.3148 104.984 73.2209 104.989 73.1336 105.019C71.5073 105.103 69.8777 105.103 68.2513 105.02L68.252 105.019ZM67.9942 108.639V108.942L67.6645 108.655C67.7391 108.655 67.8097 108.65 67.8829 108.645L67.9942 108.639ZM64.6321 111.022L65.0046 111.302L62.4043 111.267C63.1252 111.174 63.8676 111.092 64.6315 111.022L64.6321 111.022ZM57.6047 111.007L57.7601 110.472C59.3889 110.07 61.0409 109.769 62.7069 109.569L62.7286 109.586L63.3011 110.016C61.3823 110.222 59.4791 110.553 57.6041 111.008L57.6047 111.007ZM64.3126 109.393C64.3804 109.388 64.4483 109.382 64.5161 109.374L67.1089 111.333H66.883L64.3126 109.393ZM66.1829 109.24C66.5601 109.214 66.9346 109.192 67.3063 109.172L67.5566 109.39V110.275L66.1829 109.24ZM58.123 109.219L58.7119 107.186C61.5421 106.939 64.5148 106.781 67.5587 106.714V108.026C64.3833 108.137 61.2248 108.537 58.1224 109.22L58.123 109.219ZM74.5006 111.331H74.2808L76.8587 109.372C76.9265 109.378 76.9896 109.384 77.054 109.391L74.5006 111.331ZM78.9454 111.268L76.3675 111.304L76.7359 111.023C77.4929 111.094 78.231 111.174 78.9447 111.269L78.9454 111.268ZM73.8303 110.278V109.4L74.0847 109.176C74.4606 109.195 74.831 109.216 75.1966 109.244L73.8303 110.278ZM73.7265 108.652L73.3928 108.946V108.639L73.7265 108.652ZM73.367 105.32L73.2937 105.509L73.367 105.32ZM73.1309 116.087L75.6199 117.851L75.3737 117.868L73.1309 116.087ZM73.7123 117.961C73.4789 117.972 73.2463 117.981 73.0115 117.988L72.8202 117.256L73.7123 117.961ZM72.8664 114.54C73.0007 114.495 73.1312 114.44 73.2564 114.374L79.2832 117.469C78.6489 117.556 77.9943 117.634 77.3267 117.703L72.8664 114.54ZM77.7236 115.408C80.2974 115.451 84.2802 115.519 86.3391 115.555L86.3954 115.754C84.707 116.406 82.9553 116.881 81.1684 117.173L77.7236 115.408ZM75.4388 114.235L74.8283 113.921C76.9564 113.95 80.9174 114.007 83.9593 114.049L85.909 114.077L86.0053 114.415C79.5864 114.304 76.1131 114.245 75.4381 114.235L75.4388 114.235ZM73.827 112.778V112.472L74.5264 112.464C74.6114 112.487 74.7012 112.485 74.7855 112.46L85.3995 112.319L85.5793 112.942C80.6929 112.873 75.4442 112.8 73.827 112.778V112.778ZM84.3935 111.196L84.3216 111.17C82.2667 110.628 80.1729 110.244 78.0587 110.022L78.6225 109.589L78.6496 109.567C80.7927 109.813 82.9098 110.247 84.9762 110.863L85.0725 111.188L84.3935 111.196ZM73.9518 108.033L73.8297 108.027V106.716C77.3376 106.791 80.7404 106.987 83.9532 107.307L84.6078 109.57C81.1236 108.668 77.5498 108.153 73.9518 108.034V108.033ZM77.1816 105.694C79.7913 105.165 79.7913 104.41 79.7913 104.108V99.7324C79.7913 98.6726 77.7853 97.9992 73.829 97.7257V73.6277C73.9538 73.6203 74.0793 73.6135 74.2075 73.6047L83.616 106.139C81.5375 105.941 79.385 105.791 77.1823 105.694L77.1816 105.694ZM78.5804 99.7358C77.9773 100.041 75.989 100.527 72.6283 100.667C73.6716 100.465 73.8283 100.083 73.8283 99.7736V98.8611C76.782 99.0725 78.1245 99.5061 78.5804 99.7371V99.7358ZM72.766 99.475C72.0836 99.6312 71.3838 99.6993 70.684 99.6777C69.991 99.6961 69.2983 99.6308 68.621 99.4832V73.6817C69.3286 73.7101 70.0395 73.7263 70.6928 73.7263C71.3461 73.7263 72.0557 73.7108 72.7646 73.6817L72.766 99.475ZM68.7343 100.667C65.3906 100.525 63.4076 100.042 62.8052 99.7358C63.2598 99.5068 64.6023 99.0711 67.5539 98.8577V99.627L67.537 99.7702C67.539 100.084 67.6964 100.463 68.735 100.668L68.7343 100.667ZM67.5573 97.7216C63.601 97.9965 61.5964 98.6713 61.5964 99.7283V104.104C61.5964 104.404 61.5964 105.163 64.2075 105.692C62.4504 105.771 60.7267 105.881 59.0477 106.021L67.5566 76.5901L67.5573 97.7216ZM57.0736 114.389L56.6272 114.397L56.7222 114.063H56.9318L57.0736 114.389ZM57.56 115.515L58.0911 116.737C57.3761 116.565 56.714 116.378 56.1116 116.177L56.2955 115.537L57.56 115.515ZM57.6061 112.921L57.3558 112.342L66.5967 112.464C66.6805 112.489 66.7699 112.491 66.8545 112.468L67.5553 112.476V112.782C65.8274 112.801 60.1826 112.882 57.6061 112.917V112.921ZM58.0966 114.044L66.5554 113.925L65.9394 114.237C65.1708 114.25 60.9614 114.319 58.2377 114.368L58.0966 114.043V114.044ZM68.1109 114.388C68.2373 114.457 68.3702 114.514 68.5077 114.557L64.0304 117.706C63.3629 117.638 62.7042 117.56 62.0631 117.471L68.1109 114.388ZM66.0893 119.009L66.1673 119.018H66.1917C67.0438 119.074 67.9209 119.112 68.8076 119.137H68.8191H68.8795C69.49 119.151 70.1006 119.16 70.6881 119.16C72.1927 119.16 73.7055 119.111 75.181 119.017H75.2197L75.3092 119.008C80.024 118.692 84.0495 117.923 86.7115 116.838L87.4577 119.412C81.9014 120.123 76.3037 120.466 70.7016 120.438C67.2683 120.438 63.9178 120.323 60.7335 120.1L59.9425 118.276L60.1209 118.308L60.2348 118.328C62.1727 118.657 64.1267 118.883 66.0886 119.006L66.0893 119.009ZM88.9102 106.777L77.0805 73.2947C77.2962 73.2603 77.5004 73.2272 77.6951 73.19C82.4879 83.5011 91.5341 102.998 93.6297 107.623C91.815 107.23 90.1095 106.951 88.9095 106.774L88.9102 106.777ZM89.3375 107.987C91.0681 108.254 92.6888 108.56 94.1649 108.896L92.2933 116.353L89.3375 107.987ZM94.0611 106.725L94.3461 106.595C93.8956 105.608 93.2498 104.202 92.4744 102.519C91.102 99.5412 89.1856 95.3954 86.776 90.1967C83.2857 82.6602 79.792 75.1393 78.771 72.9421C79.0371 72.8679 79.299 72.779 79.5552 72.676L96.156 100.977L94.5998 107.162C94.5265 106.999 94.4417 106.814 94.3454 106.602L94.0611 106.725ZM78.7296 67.7832C78.3382 68.1209 75.6518 68.8463 70.6955 68.8463C65.7393 68.8463 63.0515 68.1189 62.6614 67.7832V66.4783C64.8831 67.4239 70.068 67.4509 70.6955 67.4509C71.323 67.4509 76.5086 67.4205 78.7296 66.4783V67.7832ZM72.6594 66.275C73.6492 66.0588 73.7557 65.6894 73.7958 65.5489C73.8199 65.4817 73.8321 65.4109 73.8317 65.3395V64.4682C76.7854 64.6789 78.1279 65.1112 78.5838 65.3463C77.9793 65.6468 75.9991 66.1284 72.6554 66.2716L72.6594 66.275ZM68.5098 57.6295L69.0159 42.6822H71.0184L71.0415 42.7207C71.5842 43.5643 79.9012 54.0821 83.1113 58.1333H83.1059C81.8394 58.0185 76.356 57.8557 68.5064 57.6288L68.5098 57.6295ZM37.416 57.8287L40.6865 66.7376L37.3699 66.248L33.6639 57.7017C34.9044 57.7441 36.1538 57.7862 37.4119 57.8281L37.416 57.8287ZM41.1322 67.9527L50.23 92.7356L49.4431 94.0824L37.9038 67.4793C39.0163 67.6407 40.097 67.8014 41.1288 67.9521L41.1322 67.9527ZM50.886 100.115L46.9439 107.796C45.191 108.18 43.4692 108.694 41.793 109.333L49.3061 96.4647L50.886 100.115ZM51.4443 101.398L53.702 106.602C51.774 106.86 49.9655 107.161 48.3109 107.501L51.4443 101.398ZM54.375 108.147L56.1449 112.226L54.0629 119.429C52.8615 119.269 51.6885 119.092 50.578 118.894L54.375 108.147ZM55.8036 117.254C56.7405 117.559 57.6929 117.814 58.6569 118.019L59.5198 120.006C58.0131 119.885 56.5444 119.736 55.1375 119.566L55.8036 117.254ZM59.3903 117.021L58.7268 115.492L63.6417 115.41L60.1819 117.172C59.911 117.122 59.646 117.073 59.3869 117.023L59.3903 117.021ZM95.4817 108.046L96.9293 102.287L101.581 110.22C99.6452 109.249 97.5967 108.519 95.4817 108.046ZM96.5305 99.4764L80.465 72.0823C80.6239 71.9108 80.7135 71.6868 80.7166 71.4535V68.6397C80.7166 68.0318 80.1468 67.6873 79.7913 67.5178V65.3402C79.7913 64.2818 77.7867 63.607 73.829 63.3335V58.9155C79.4385 59.0816 82.1941 59.1857 83.0143 59.2606C84.1676 59.3653 85.3656 59.4167 86.6701 59.4167C89.5621 59.4167 92.4581 59.16 95.2585 58.9108C99.2264 58.5609 103.206 58.2732 106.938 58.0151L96.5305 99.4764ZM95.1669 57.7882C91.6525 58.1794 88.1152 58.3297 84.58 58.238L84.5122 58.1523C82.7525 55.9321 74.4409 45.4312 72.3555 42.6809H72.8637C73.1386 42.6665 73.3966 42.5441 73.581 42.3404C73.7653 42.1368 73.8608 41.8686 73.8466 41.5948V40.8268C77.7812 42.4816 94.6052 47.673 108.475 51.866L107.222 56.8642C103.371 57.129 99.2535 57.4241 95.1669 57.7882ZM109.503 52.1781C114.53 53.6964 118.874 54.996 121.665 55.8254C117.641 56.1523 113.732 56.4184 109.935 56.6778L108.347 56.7865L109.503 52.1781ZM108.754 50.7745C88.3763 44.6119 75.7522 40.5755 73.8514 39.6151V37.8198L74.1058 37.8482C74.6695 37.9157 75.4971 38.0028 76.548 38.1129C78.5424 38.3223 81.4717 38.6256 85.2584 39.0065C91.4799 39.6394 100.157 40.508 111.056 41.5921L108.754 50.7745ZM73.8527 36.677V34.5325C77.2365 33.722 81.3774 32.7601 86.8492 31.5113C86.9168 31.5558 86.9944 31.583 87.0751 31.5903C96.679 32.4771 104.755 33.2951 112.867 34.3967L111.34 40.4756C88.9692 38.2527 76.3736 36.9762 73.8527 36.677ZM113.143 33.2904C105.364 32.2306 97.5684 31.437 90.214 30.7433C92.395 30.2462 94.5964 29.7477 96.7794 29.252C103.063 27.8268 109.553 26.3537 115.219 25.0305L113.143 33.2904ZM116.647 21.4447H116.705C117.615 21.4906 118.526 21.5352 119.439 21.5696C119.507 21.5737 119.588 21.5737 119.688 21.5737H119.823C121.012 21.5737 121.291 21.7243 121.348 21.7716C121.295 21.9282 121.211 22.0727 121.101 22.1971C120.774 22.5157 120.35 22.7164 119.895 22.7672C113.297 24.347 104.788 26.2794 96.5589 28.1463C88.5954 29.951 80.3679 31.8193 73.8561 33.3721V32.4008L107.279 21.0982C109.695 21.1657 112.072 21.2441 114.346 21.3359C115.11 21.3677 115.879 21.4062 116.647 21.4447ZM111.435 20.0938C109.996 20.0438 108.59 19.9993 107.236 19.9587H107.226C106.089 19.9286 104.959 19.9018 103.834 19.8783C102.018 19.8426 100.035 19.8169 97.7807 19.7993C97.7319 19.716 97.6617 19.6472 97.5772 19.6001L75.5046 7.59633L111.435 20.0938ZM73.852 7.97187L95.5794 19.7919C91.2845 19.7777 87.0873 19.8135 83.076 19.902C80.3218 19.9608 77.3023 20.0513 73.85 20.1755L73.852 7.97187ZM83.0991 21.032C89.9739 20.8827 96.9429 20.8773 103.815 21.0131H103.989L73.6241 31.2891C73.5375 31.1703 73.4243 31.0733 73.2935 31.0056C73.1627 30.938 73.0178 30.9016 72.8704 30.8993H71.2423L72.2599 21.3656C76.4238 21.2083 79.8788 21.1009 83.0984 21.0306L83.0991 21.032ZM67.4963 5.51736C67.5092 5.4063 67.5294 5.2962 67.5566 5.18775L67.6801 4.81964L67.7276 4.72238L69.4758 1.19123L72.3189 5.54438C72.6284 6.02865 72.7911 6.59144 72.7877 7.16541V20.2154C71.0107 20.2829 69.2411 20.3532 67.4786 20.4261V5.89492C67.5257 5.77411 67.5319 5.64132 67.4963 5.51668V5.51736ZM71.184 21.4095L70.1725 30.8993H67.5451L53.8594 22.137L62.2924 21.7763L62.2795 21.4643L62.3243 21.7763C65.2427 21.6527 68.2106 21.5237 71.184 21.4089V21.4095ZM66.4129 20.4639L62.2747 20.6402L58.4459 20.8037L66.4122 7.66185L66.4129 20.4639ZM57.1468 20.8604L45.5383 21.3562L65.3363 7.34913L57.1468 20.8604ZM63.5738 7.2343L43.5113 21.4291L43.4909 21.4447L28.3881 22.0911L63.5738 7.2343ZM24.7635 23.3771L51.9212 22.2167L66.4963 31.5498C66.443 31.6884 66.4156 31.8356 66.4156 31.9841V34.113L16.7137 25.5547C19.4015 23.6621 24.1909 23.4048 24.7635 23.3805V23.3771ZM14.9167 28.6677C14.9112 27.8883 15.176 27.1308 15.6663 26.5232L66.4156 35.2673V37.9231C59.4778 37.2409 52.6288 36.5594 45.7805 35.8759L45.5132 35.8502C38.3814 35.1383 31.2502 34.4318 24.0233 33.7186C23.6516 33.6814 14.9167 32.7777 14.9167 28.6677ZM23.7391 34.8303L23.9202 34.8492C31.1505 35.5584 38.2796 36.2677 45.4101 36.9809L45.9467 37.0343C52.738 37.7097 59.532 38.3851 66.4122 39.0639V40.6512L28.9708 46.8935L23.7391 34.8303ZM13.5789 50.6084L28.3413 48.1485L30.8879 54.0247L24.543 56.2226C6.5278 55.4863 1.89647 54.8906 1.18552 54.5205L1.13804 54.4948C1.38836 54.2429 2.33064 53.5607 5.76259 52.5023C8.32812 51.7176 10.9382 51.0852 13.5789 50.6084ZM0.747971 54.9933L0.874826 55.0676L4.01982 59.649C2.67317 58.2919 1.56673 56.7178 0.747288 54.9933H0.747971ZM2.21871 55.9071C5.86028 56.486 15.7925 57.0614 32.4692 57.6578L36.1135 66.0595C18.734 63.4578 8.61926 61.7043 6.85004 60.981C6.12167 60.6732 5.44602 60.2541 4.84745 59.7388L2.21871 55.9071ZM6.4118 62.0184L6.46607 62.0414C8.84991 63.0126 24.1529 65.4253 36.6447 67.2888L48.7654 95.2333L40.0895 110.099C39.9226 110.186 39.7598 110.275 39.6031 110.366L6.4118 62.0184ZM39.3386 111.841C39.4349 111.909 39.5513 111.942 39.6689 111.935C39.7865 111.928 39.8982 111.881 39.9857 111.803C40.0515 111.741 40.102 111.665 40.1334 111.58C40.1648 111.495 40.1763 111.404 40.1669 111.315C42.7508 109.862 47.4039 108.618 53.3594 107.788L49.5035 118.696C41.1037 117.092 38.1154 114.932 38.1154 113.559C38.1147 113.015 38.536 112.425 39.3372 111.841H39.3386ZM38.1175 116.637V115.667C40.9362 118.347 49.2077 120.378 60.0334 121.185L60.5829 123.169C46.0274 122.13 38.1188 118.957 38.1188 116.636L38.1175 116.637ZM60.9037 124.324L69.7295 156.137H67.8436L46.1136 122.197C50.9733 123.329 55.9223 124.04 60.9051 124.323L60.9037 124.324ZM80.8096 195.056C84.2429 197.555 88.8064 201.824 88.8064 210.023V289.851C88.8064 289.879 88.8783 292.697 87.5398 294.081C87.2878 294.341 86.9826 294.545 86.6448 294.677C86.307 294.81 85.9446 294.868 85.582 294.849H58.9371C58.5787 294.865 58.221 294.804 57.8878 294.672C57.5546 294.54 57.2535 294.338 57.0044 294.081C55.7154 292.751 55.7324 290.129 55.7385 289.815V271.82H87.6368V251.903L58.0721 251.78V226.089H87.6368V215.771H55.7385V210.023C55.7385 201.824 60.3027 197.555 63.7238 195.065C64.7084 194.388 65.5239 193.496 66.1072 192.456C66.6905 191.417 67.026 190.257 67.0879 189.068H77.457C77.5179 190.255 77.8519 191.412 78.4332 192.451C79.0145 193.489 79.8275 194.38 80.8096 195.056ZM78.4583 156.604C78.4454 156.585 78.4366 156.566 78.4223 156.549C78.3877 156.513 78.3503 156.48 78.3104 156.45L91.3829 123.042C94.0907 122.593 96.7509 121.895 99.3295 120.958L78.4583 156.604ZM103.273 116.634C103.273 118.273 99.3233 120.339 91.876 121.776L92.6589 119.777C92.7606 119.8 92.8668 119.79 92.9628 119.75C93.0308 119.718 93.0912 119.672 93.1399 119.615C96.7747 118.863 101.256 117.593 103.272 115.67L103.273 116.634ZM103.945 112.238C103.847 112.075 103.735 111.921 103.613 111.775C103.624 111.652 103.597 111.528 103.535 111.42L97.3018 100.792L108.058 57.9408L110.009 57.8058C114.773 57.4809 119.701 57.1465 124.694 56.7028H124.755C129.145 56.3131 133.155 55.8788 136.995 55.3762L103.945 112.238ZM146.768 52.1551C145.13 53.1622 143.18 53.4114 141.273 53.6492C140.876 53.6991 140.478 53.7512 140.085 53.8079C135.353 54.4928 130.338 55.0655 124.745 55.564C120.078 54.1787 114.773 52.5921 109.777 51.0819L112.134 41.6974C129.581 43.4319 147.098 45.1583 149.743 45.4191C149.808 45.6517 149.856 45.8887 149.887 46.1283C150.24 48.7374 148.516 51.0812 146.768 52.1551Z" fill="#584D45"/>
</svg>
