<svg viewBox="0 0 16 16" xmlns="http://www.w3.org/2000/svg">
<path d="M1 8.91602C0.585786 8.91602 0.25 9.2518 0.25 9.66602C0.25 10.0802 0.585786 10.416 1 10.416V8.91602ZM15 9.66602L15.5255 10.2011C15.6691 10.0601 15.75 9.86727 15.75 9.66602C15.75 9.46476 15.6691 9.27195 15.5255 9.13093L15 9.66602ZM10.4346 4.13093C10.1391 3.84069 9.66425 3.84496 9.374 4.14048C9.08376 4.436 9.08804 4.91086 9.38356 5.2011L10.4346 4.13093ZM9.38356 14.1309C9.08804 14.4212 9.08376 14.896 9.374 15.1915C9.66425 15.4871 10.1391 15.4913 10.4346 15.2011L9.38356 14.1309ZM1 10.416H15V8.91602H1V10.416ZM15.5255 9.13093L10.4346 4.13093L9.38356 5.2011L14.4745 10.2011L15.5255 9.13093ZM14.4745 9.13093L9.38356 14.1309L10.4346 15.2011L15.5255 10.2011L14.4745 9.13093Z"/>
</svg>
