<svg width="16" height="28" viewBox="0 0 16 28" fill="none" xmlns="http://www.w3.org/2000/svg">
<path d="M2 27.6654H14C15.1 27.6654 16 26.7654 16 25.6654V4.33203C16 3.23203 15.1 2.33203 14 2.33203H11.3333V1.66536C11.3333 0.932031 10.7333 0.332031 10 0.332031H6C5.26667 0.332031 4.66667 0.932031 4.66667 1.66536V2.33203H2C0.9 2.33203 0 3.23203 0 4.33203V25.6654C0 26.7654 0.9 27.6654 2 27.6654ZM6 1.66536H10V2.33203H6V1.66536ZM1.33333 4.33203C1.33333 3.96536 1.63333 3.66536 2 3.66536H5.33333H10.6667H14C14.3667 3.66536 14.6667 3.96536 14.6667 4.33203V25.6654C14.6667 26.032 14.3667 26.332 14 26.332H2C1.63333 26.332 1.33333 26.032 1.33333 25.6654V4.33203Z" fill="#639080"/>
<path d="M3.33464 11.0013H12.668C13.0346 11.0013 13.3346 10.7013 13.3346 10.3346V6.33464C13.3346 5.96797 13.0346 5.66797 12.668 5.66797H3.33464C2.96797 5.66797 2.66797 5.96797 2.66797 6.33464V10.3346C2.66797 10.7013 2.96797 11.0013 3.33464 11.0013ZM4.0013 7.0013H12.0013V9.66797H4.0013V7.0013ZM3.33464 17.668H12.668C13.0346 17.668 13.3346 17.368 13.3346 17.0013V13.0013C13.3346 12.6346 13.0346 12.3346 12.668 12.3346H3.33464C2.96797 12.3346 2.66797 12.6346 2.66797 13.0013V17.0013C2.66797 17.368 2.96797 17.668 3.33464 17.668ZM4.0013 13.668H12.0013V16.3346H4.0013V13.668ZM3.33464 24.3346H12.668C13.0346 24.3346 13.3346 24.0346 13.3346 23.668V19.668C13.3346 19.3013 13.0346 19.0013 12.668 19.0013H3.33464C2.96797 19.0013 2.66797 19.3013 2.66797 19.668V23.668C2.66797 24.0346 2.96797 24.3346 3.33464 24.3346ZM4.0013 20.3346H12.0013V23.0013H4.0013V20.3346Z" fill="#639080"/>
</svg>
