<svg width="32" height="32" viewBox="0 0 32 32" fill="none" xmlns="http://www.w3.org/2000/svg">
<path d="M16.0002 5.2615C10.2587 5.2615 5.58767 9.93256 5.58767 15.6741C5.58767 19.1121 7.26292 22.1658 9.83961 24.0631V25.8307C9.83961 26.7078 10.4397 27.4471 11.2509 27.6601C11.1655 27.8535 11.1178 28.0669 11.1178 28.2915C11.1178 29.1569 11.8219 29.861 12.6873 29.861H12.8396C12.7706 30.0376 12.7327 30.2297 12.7327 30.4305C12.7327 31.2959 13.4368 32 14.3022 32H17.6983C18.5637 32 19.2678 31.2959 19.2678 30.4305C19.2678 30.2297 19.2299 30.0376 19.1609 29.861H19.3132C20.1787 29.861 20.8827 29.1569 20.8827 28.2915C20.8827 28.0669 20.835 27.8534 20.7497 27.6601C21.5608 27.4471 22.1609 26.7078 22.1609 25.8307V24.0631C24.7376 22.1658 26.4129 19.1121 26.4129 15.674C26.4128 9.93256 21.7417 5.2615 16.0002 5.2615ZM17.6982 31H14.3022C13.9882 31 13.7327 30.7445 13.7327 30.4305C13.7327 30.1165 13.9881 29.861 14.3022 29.861H17.6982C18.0122 29.861 18.2677 30.1164 18.2677 30.4305C18.2677 30.7446 18.0123 31 17.6982 31ZM19.3131 28.861H12.6874C12.3734 28.861 12.1179 28.6055 12.1179 28.2915C12.1179 27.9775 12.3733 27.722 12.6874 27.722H19.3132C19.6272 27.722 19.8827 27.9774 19.8827 28.2915C19.8827 28.6056 19.6272 28.861 19.3131 28.861ZM21.1608 25.8307C21.1608 26.3222 20.761 26.722 20.2695 26.722H11.7309C11.2394 26.722 10.8396 26.3222 10.8396 25.8307V24.7153C12.3617 25.5874 14.1237 26.0866 16.0002 26.0866C17.8767 26.0866 19.6387 25.5874 21.1608 24.7153V25.8307ZM16.0002 16.5351C15.2404 15.6629 14.8271 14.5626 14.8271 13.3884C14.8271 12.2142 15.2404 11.1139 16.0002 10.2417C16.7601 11.1139 17.1734 12.2142 17.1734 13.3884C17.1734 14.5626 16.7601 15.6629 16.0002 16.5351ZM16.5002 25.0733V22.5487C16.6432 22.5587 16.7864 22.5648 16.9291 22.5648C18.4851 22.5648 19.9707 21.9832 21.1122 20.9273C22.2471 19.8775 22.9423 18.4536 23.0696 16.9182C23.0911 16.6586 22.9097 16.426 22.6527 16.3836C22.3194 16.3285 21.9794 16.3006 21.6424 16.3006C20.0864 16.3006 18.6009 16.8822 17.4594 17.9381C17.0918 18.2781 16.7712 18.6579 16.5002 19.0674V17.4648C17.5659 16.3832 18.1734 14.9103 18.1734 13.3885C18.1734 11.7931 17.5061 10.2509 16.3426 9.15769C16.1502 8.97687 15.8502 8.97687 15.6578 9.15769C14.4944 10.251 13.827 11.7931 13.827 13.3885C13.827 14.9103 14.4345 16.3832 15.5002 17.4648V19.0674C15.2292 18.6579 14.9086 18.2781 14.541 17.9381C13.3995 16.8821 11.914 16.3006 10.358 16.3006C10.021 16.3006 9.68111 16.3285 9.34767 16.3836C9.09067 16.426 8.9093 16.6586 8.9308 16.9182C9.05811 18.4536 9.7533 19.8774 10.8882 20.9273C12.0297 21.9832 13.5153 22.5648 15.0713 22.5648C15.214 22.5648 15.3571 22.5587 15.5002 22.5487V25.0733C10.5416 24.8125 6.58761 20.6964 6.58761 15.6741C6.58761 10.4839 10.81 6.2615 16.0002 6.2615C21.1902 6.2615 25.4127 10.4839 25.4127 15.6741C25.4128 20.6964 21.4588 24.8125 16.5002 25.0733ZM16.5611 21.5517C16.9955 19.1325 19.1404 17.3006 21.6424 17.3006C21.7648 17.3006 21.8877 17.3049 22.0104 17.3137C21.576 19.7329 19.4311 21.5648 16.9291 21.5648C16.8067 21.5648 16.6839 21.5604 16.5611 21.5517ZM15.4394 21.5517C15.3166 21.5604 15.1937 21.5648 15.0714 21.5648C12.5693 21.5648 10.4244 19.7329 9.99005 17.3137C10.1127 17.3049 10.2357 17.3006 10.358 17.3006C12.8601 17.3006 15.005 19.1325 15.4394 21.5517ZM31.6743 15.6741C31.6743 15.9502 31.4504 16.1741 31.1743 16.1741H28.6237C28.3475 16.1741 28.1237 15.9502 28.1237 15.6741C28.1237 15.3979 28.3475 15.1741 28.6237 15.1741H31.1743C31.4504 15.1741 31.6743 15.3979 31.6743 15.6741ZM27.0835 4.59088C27.2787 4.78613 27.2787 5.10269 27.0835 5.29794L25.2799 7.1015C25.1823 7.19912 25.0544 7.24794 24.9264 7.24794C24.7984 7.24794 24.6704 7.19912 24.5728 7.1015C24.3775 6.90625 24.3775 6.58969 24.5728 6.39444L26.3764 4.59088C26.5716 4.39563 26.8882 4.39563 27.0835 4.59088ZM15.5002 3.05063V0.5C15.5002 0.223875 15.7241 0 16.0002 0C16.2764 0 16.5002 0.223875 16.5002 0.5V3.05063C16.5002 3.32675 16.2764 3.55063 16.0002 3.55063C15.7241 3.55063 15.5002 3.32681 15.5002 3.05063ZM6.72061 7.1015L4.91705 5.29787C4.72173 5.10262 4.7218 4.78606 4.91705 4.59081C5.11236 4.3955 5.42892 4.39556 5.62411 4.59081L7.42767 6.39437C7.62298 6.58962 7.62292 6.90619 7.42767 7.10144C7.33005 7.19906 7.20211 7.24788 7.07411 7.24788C6.94617 7.24794 6.81823 7.19912 6.72061 7.1015ZM3.8768 15.674C3.8768 15.9501 3.65292 16.174 3.3768 16.174H0.826172C0.550047 16.174 0.326172 15.9501 0.326172 15.674C0.326172 15.3979 0.550047 15.174 0.826172 15.174H3.3768C3.65298 15.174 3.8768 15.3979 3.8768 15.674Z" fill="#639080"/>
</svg>
