<svg  viewBox="0 0 16 16" xmlns="http://www.w3.org/2000/svg">
<path d="M3.16298 1.15147C2.69435 0.682843 1.93455 0.682843 1.46592 1.15147C0.997296 1.6201 0.997296 2.3799 1.46592 2.84853L3.16298 1.15147ZM12.7796 14.1622C13.2483 14.6309 14.0081 14.6309 14.4767 14.1622C14.9453 13.6936 14.9453 12.9338 14.4767 12.4652L12.7796 14.1622ZM1.46592 2.84853L12.7796 14.1622L14.4767 12.4652L3.16298 1.15147L1.46592 2.84853Z"/>
<path d="M14.163 2.84853C14.6316 2.3799 14.6316 1.6201 14.163 1.15147C13.6944 0.682843 12.9346 0.682843 12.4659 1.15147L14.163 2.84853ZM1.15222 12.4652C0.683587 12.9338 0.683587 13.6936 1.15222 14.1622C1.62085 14.6309 2.38064 14.6309 2.84927 14.1622L1.15222 12.4652ZM12.4659 1.15147L1.15222 12.4652L2.84927 14.1622L14.163 2.84853L12.4659 1.15147Z"/>
</svg>
