<svg width="32" height="32" viewBox="0 0 32 32" fill="none" xmlns="http://www.w3.org/2000/svg">
<path d="M29.9994 22.7489C30.2994 21.7989 30.4494 20.7989 30.4494 19.7489C30.4494 19.2489 30.3994 18.7489 30.3494 18.2489C30.3494 18.1989 30.3494 18.0989 30.2994 18.0489C29.9994 16.0989 29.1494 14.3489 27.9494 12.8989L27.8994 12.8489C25.9494 10.5489 22.9994 9.04894 19.7494 9.04894C17.6494 9.04894 15.6994 9.64894 14.0494 10.6989C13.9994 10.6989 13.9494 10.7489 13.8994 10.7989C10.9494 12.6989 8.99936 15.9989 8.99936 19.7489C8.99936 20.2489 9.04936 20.7489 9.09936 21.1989C9.09936 21.2489 9.09936 21.2989 9.09936 21.3489C9.19936 21.8489 9.29936 22.3489 9.39936 22.7989C8.29936 20.5989 7.79936 18.0989 7.99936 15.6489C8.14936 13.9489 8.69936 12.2489 9.59936 10.7989C9.64936 10.6989 9.69936 10.6489 9.74936 10.5489C9.84936 10.5489 10.0494 10.5989 10.3494 10.5989C11.4994 10.5989 13.9994 10.2489 17.7994 7.94894C23.1494 4.69894 27.3494 6.84894 27.5494 6.94894C27.7494 7.04894 27.9994 6.99894 28.1494 6.84894C28.2994 6.64894 28.2994 6.39894 28.1994 6.24894C28.1494 6.19894 22.6994 -1.10106 14.0994 2.54894C10.7494 3.94894 9.04936 6.54894 9.24936 9.79894C9.09936 9.99894 8.99936 10.1489 8.84936 10.3489C8.64936 10.5989 8.49936 10.8989 8.34936 11.1989C8.34936 10.5489 8.24936 9.84894 8.09936 9.19894C7.99936 8.74894 7.84936 8.34894 7.64936 7.94894C8.39936 7.14894 8.89936 5.84894 7.09936 4.04894C5.54936 2.54894 2.24936 1.94894 2.09936 1.94894C1.94936 1.89894 1.74936 1.99894 1.64936 2.14894C1.49936 2.34894 1.54936 2.54894 1.64936 2.74894C2.49936 3.84894 2.64936 4.54894 2.84936 5.29894C2.99936 5.89894 3.14936 6.54894 3.69936 7.39894L3.74936 7.44894C4.44936 8.24894 5.19936 8.69894 5.94936 8.74894H5.99936C6.29936 8.74894 6.59936 8.69894 6.89936 8.54894C6.99936 8.84894 7.09936 9.14894 7.14936 9.44894C7.44936 10.5989 7.59936 11.7989 7.59936 12.9989C7.29936 13.8489 7.14936 14.7489 7.04936 15.6489C6.89936 17.4989 7.09936 19.3989 7.69936 21.1489C8.29936 22.8989 9.24936 24.5489 10.4994 25.9489C11.0994 26.6489 11.7994 27.2489 12.5494 27.7989C12.5994 27.8489 12.6494 27.8989 12.7494 27.8989C14.5994 29.4989 17.0494 30.4989 19.6994 30.4989C24.4994 30.4989 28.5994 27.2989 29.9494 22.8989C29.9994 22.8489 29.9994 22.7989 29.9994 22.7489C29.9994 22.7989 29.9994 22.7489 29.9994 22.7489ZM14.5494 3.44894C20.0994 1.09894 24.1494 3.64894 26.1494 5.44894C24.1994 4.99894 20.9994 4.89894 17.3494 7.09894C13.8994 9.19894 11.5994 9.54894 10.5494 9.59894C11.3494 8.64894 12.2494 7.84894 13.2994 7.14894C14.7494 6.19894 16.3994 5.44894 18.0994 5.04894C19.7994 4.59894 21.5994 4.39894 23.3994 4.54894C19.8494 3.94894 16.0494 4.64894 12.8494 6.54894C11.8994 7.09894 10.9994 7.79894 10.2494 8.59894C10.5494 6.29894 11.9994 4.54894 14.5494 3.44894ZM5.94936 7.74894C5.49936 7.74894 4.99936 7.44894 4.49936 6.84894C4.04936 6.14894 3.94936 5.59894 3.79936 5.04894C3.69936 4.49894 3.54936 3.89894 3.14936 3.19894C4.19936 3.49894 5.64936 3.99894 6.44936 4.74894C7.64936 5.89894 7.44936 6.59894 7.19936 6.99894C7.09936 6.79894 6.94936 6.64894 6.84936 6.44894C6.69936 6.24894 6.54936 6.04894 6.34936 5.84894L5.79936 5.34894C5.69936 5.24894 5.59936 5.19894 5.49936 5.09894C5.39936 5.04894 5.29936 4.94894 5.19936 4.89894C4.94936 4.79894 4.69936 4.69894 4.49936 4.59894C4.64936 4.79894 4.79936 4.99894 4.94936 5.14894L5.19936 5.39894C5.24936 5.49894 5.34936 5.59894 5.39936 5.69894L5.79936 6.24894C5.89936 6.44894 6.04936 6.64894 6.14936 6.84894C6.29936 7.09894 6.39936 7.29894 6.49936 7.54894C6.34936 7.69894 6.14936 7.74894 5.94936 7.74894ZM23.6994 18.5989C23.3994 18.3489 22.4994 17.8989 20.9494 19.2489C19.5494 20.4989 18.4994 20.5489 18.1494 20.5489C17.8494 20.4989 17.6994 20.3989 17.6494 20.3489C17.5494 20.2489 17.4994 19.9989 17.5494 19.6989C17.5994 19.3989 17.8994 18.7989 18.8994 18.2989C19.8494 17.7989 20.0994 17.0989 20.2994 16.4989C20.5494 15.7489 20.8494 14.9989 22.3494 14.1989C24.7494 12.9489 26.7994 13.4489 27.2994 13.6489C28.2494 14.8489 28.9494 16.2489 29.2994 17.7989C28.4494 17.9489 26.9994 18.4989 26.0994 20.4989C25.5994 21.5989 24.8994 21.7489 24.5994 21.7989C24.2494 21.7989 23.9994 21.6989 23.8994 21.5489C23.7994 21.4489 23.8494 21.2989 23.9494 21.0989C24.3994 20.1489 24.2994 19.0989 23.6994 18.5989ZM26.0494 12.3989C24.9994 12.2989 23.4994 12.4489 21.8494 13.2989C19.9994 14.2489 19.5994 15.2989 19.2994 16.1489C19.0994 16.6989 18.9494 17.0989 18.3494 17.3989C17.3494 17.8989 16.6994 18.6489 16.4994 19.4989C16.3994 20.0489 16.4494 20.5989 16.7494 20.9989C16.9994 21.3489 17.4494 21.5489 17.9494 21.5989C18.5994 21.6489 19.8994 21.5489 21.5494 20.0489C22.2994 19.3989 22.7994 19.2489 22.9994 19.4489C23.1994 19.5989 23.2494 20.0989 22.9494 20.6489C22.6994 21.1489 22.6994 21.6989 22.9494 22.0989C23.2494 22.5489 23.7994 22.8489 24.3994 22.8489C24.4494 22.8489 24.4994 22.8489 24.5494 22.8489C25.4994 22.7989 26.3494 22.0989 26.8494 20.9489C27.5994 19.3489 28.6994 18.8989 29.2994 18.7989C29.3494 19.1489 29.3494 19.4489 29.3494 19.7989C29.3494 20.7989 29.1994 21.6989 28.9494 22.5989C28.6494 23.5989 27.2994 24.7989 26.2494 25.2989C25.7994 25.4989 25.5494 25.4989 25.4994 25.4989C25.4994 25.4989 25.4994 25.4489 25.4994 25.3989C25.4994 24.6989 25.2994 24.2489 24.8994 23.9989C24.1994 23.5989 23.2994 24.0989 23.1494 24.1989C23.1494 24.1989 23.0994 24.1989 23.0994 24.2489C23.0994 24.2489 21.8494 25.0989 17.8994 23.8989C14.4494 22.8489 12.6994 24.5489 11.9494 25.5989C10.9994 24.3489 10.3494 22.8489 10.0994 21.2489C10.0994 21.2489 10.0994 21.1989 10.1494 21.1989C10.2494 21.2489 10.4494 21.3489 10.7494 21.7989C11.2494 22.3989 11.6994 22.5989 12.0494 22.5989C12.1994 22.5989 12.2994 22.5489 12.3994 22.5489C13.8994 22.0489 14.1494 18.6989 14.1494 17.2989C14.1494 15.2489 16.7494 13.9489 18.4494 13.0989C19.6494 12.4989 20.2994 12.1489 20.2994 11.5489C20.2994 11.3489 20.1994 11.0489 19.7494 10.7989C19.1494 10.4989 18.3994 10.3989 17.6494 10.3489C18.2994 10.1989 18.9994 10.1489 19.6994 10.1489C22.1494 10.0489 24.3494 10.9489 26.0494 12.3989ZM14.4494 11.5989C14.9994 11.4989 17.5994 10.9489 19.0994 11.4989C18.7994 11.6489 18.3994 11.8989 17.9994 12.0989C16.0994 13.0489 13.1994 14.5489 13.1494 17.1989C13.0994 20.0989 12.4994 21.3989 12.0994 21.5489C11.9994 21.5989 11.7494 21.4489 11.5494 21.1489C11.1994 20.6989 10.6494 20.0989 10.0494 20.1989C10.0494 20.0489 10.0494 19.9489 10.0494 19.7989C9.99936 16.3489 11.7994 13.3489 14.4494 11.5989ZM19.7494 29.4489C16.9494 29.4489 14.4494 28.2489 12.6494 26.3489C13.0494 25.6489 14.3994 23.8489 17.6494 24.7989C21.8994 26.0489 23.4494 25.1989 23.7494 24.9989C23.9994 24.8489 24.3494 24.7489 24.4494 24.7989C24.4994 24.7989 24.5494 24.9489 24.5494 25.2989C24.5494 25.8989 24.8494 26.2989 25.3994 26.3989C25.8994 26.4489 26.5994 26.2489 27.2994 25.7989C25.4994 28.0489 22.7494 29.4489 19.7494 29.4489Z" fill="#639080"/>
</svg>
