<svg width="32" height="32" viewBox="0 0 32 32" fill="none" xmlns="http://www.w3.org/2000/svg">
<path d="M15.959 2.00065C15.8347 2.01172 15.7191 2.06884 15.6348 2.1608C15.6348 2.1608 12.9937 4.98718 10.3496 8.52408C9.02756 10.2925 7.70222 12.2387 6.69922 14.1159C5.69622 15.9931 5 17.7927 5 19.3503C5 25.2364 9.93986 30.0006 16 30.0006C22.0601 30.0006 27 25.2364 27 19.3503C27 17.7927 26.3038 15.9931 25.3008 14.1159C24.2978 12.2387 22.9724 10.2925 21.6504 8.52408C19.0063 4.98718 16.3652 2.1608 16.3652 2.1608C16.3197 2.11166 16.2648 2.07216 16.2038 2.04465C16.1427 2.01714 16.0767 2.00218 16.0098 2.00065C15.9928 1.99978 15.9759 1.99978 15.959 2.00065V2.00065ZM16 3.2819C16.3278 3.6361 18.4261 5.88004 20.8496 9.12174C22.1526 10.8646 23.4522 12.781 24.418 14.5885C25.3837 16.396 26 18.1048 26 19.3503C26 24.6774 21.5376 29.0006 16 29.0006C10.4624 29.0006 6 24.6774 6 19.3503C6 18.1048 6.61628 16.396 7.58203 14.5885C8.54778 12.781 9.84744 10.8646 11.1504 9.12174C13.5739 5.88004 15.6722 3.6361 16 3.2819ZM24.5078 18.9909C24.4909 18.9907 24.4739 18.9913 24.457 18.9928C24.3335 19 24.217 19.0526 24.1301 19.1407C24.0432 19.2287 23.9919 19.3458 23.9863 19.4694C23.7494 23.5128 20.5387 26.7361 16.4961 26.987C16.4296 26.9896 16.3643 27.0055 16.304 27.0337C16.2438 27.0619 16.1897 27.1019 16.1451 27.1512C16.1004 27.2006 16.0661 27.2583 16.0441 27.3211C16.0221 27.3839 16.0128 27.4505 16.0168 27.5169C16.0208 27.5833 16.0381 27.6483 16.0675 27.708C16.097 27.7676 16.1381 27.8208 16.1883 27.8644C16.2386 27.908 16.2971 27.9411 16.3603 27.9619C16.4236 27.9826 16.4903 27.9904 16.5566 27.985C21.096 27.7034 24.7183 24.0683 24.9844 19.528C24.9894 19.4612 24.981 19.3941 24.9596 19.3306C24.9382 19.2672 24.9042 19.2087 24.8598 19.1586C24.8153 19.1085 24.7613 19.0678 24.7008 19.039C24.6404 19.0102 24.5747 18.9938 24.5078 18.9909V18.9909Z" fill="#639080"/>
</svg>
