<svg width="32" height="32" viewBox="0 0 32 32" fill="none" xmlns="http://www.w3.org/2000/svg">
<path d="M15 4C14.8674 4.00001 14.7402 4.0527 14.6465 4.14646C14.5527 4.24023 14.5 4.3674 14.5 4.5V5.00586H12.9062C12.6978 4.42683 12.1468 4.00586 11.5 4.00586C10.6775 4.00586 10 4.68336 10 5.50586C10 6.32836 10.6775 7.00586 11.5 7.00586C12.1462 7.00586 12.6973 6.58398 12.9062 6.00586H14.5V6.5C14.5 6.6326 14.5527 6.75977 14.6465 6.85354C14.7402 6.9473 14.8674 6.99999 15 7H15.5V8.00586H15C14.8674 8.00587 14.7402 8.05856 14.6465 8.15232C14.5527 8.24609 14.5 8.37326 14.5 8.50586V10.0059H13.75C12.7891 10.0059 12 10.7951 12 11.7559V12.0059H7.0957C5.38286 12.0059 4 13.4282 4 15.1621V18.5059C4.00001 18.6385 4.0527 18.7656 4.14646 18.8594C4.24023 18.9532 4.3674 19.0058 4.5 19.0059H7.5C7.6326 19.0058 7.75977 18.9532 7.85354 18.8594C7.9473 18.7656 7.99999 18.6385 8 18.5059V16.7559C8 16.3316 8.3258 16.0059 8.75 16.0059H12V16.2559C12 17.2168 12.7891 18.0059 13.75 18.0059H18.25C19.2109 18.0059 20 17.2168 20 16.2559V16.0059H24V18.5059C24 18.6385 24.0527 18.7656 24.1465 18.8594C24.2402 18.9532 24.3674 19.0058 24.5 19.0059H27.5C27.6326 19.0058 27.7598 18.9532 27.8535 18.8594C27.9473 18.7656 28 18.6385 28 18.5059V9.50586C28 9.37326 27.9473 9.24609 27.8535 9.15232C27.7598 9.05856 27.6326 9.00587 27.5 9.00586H24.5C24.3674 9.00587 24.2402 9.05856 24.1465 9.15232C24.0527 9.24609 24 9.37326 24 9.50586V12.0059H20V11.7559C20 10.7951 19.2109 10.0059 18.25 10.0059H17.5V8.50586C17.5 8.37326 17.4473 8.24609 17.3535 8.15232C17.2598 8.05856 17.1326 8.00587 17 8.00586H16.5V7H17C17.1326 6.99999 17.2598 6.9473 17.3535 6.85354C17.4473 6.75977 17.5 6.6326 17.5 6.5V6.00586H19.0938C19.3027 6.58398 19.8538 7.00586 20.5 7.00586C21.3225 7.00586 22 6.32836 22 5.50586C22 4.68336 21.3225 4.00586 20.5 4.00586C19.8532 4.00586 19.3022 4.42683 19.0938 5.00586H17.5V4.5C17.5 4.3674 17.4473 4.24023 17.3535 4.14646C17.2598 4.0527 17.1326 4.00001 17 4H15ZM15.5 5H16.5V6H15.5V5ZM11.5 5.00586C11.7821 5.00586 12 5.22386 12 5.50586C12 5.78796 11.7821 6.00586 11.5 6.00586C11.2179 6.00586 11 5.78796 11 5.50586C11 5.22386 11.2179 5.00586 11.5 5.00586ZM20.5 5.00586C20.7821 5.00586 21 5.22386 21 5.50586C21 5.78796 20.7821 6.00586 20.5 6.00586C20.2179 6.00586 20 5.78796 20 5.50586C20 5.22386 20.2179 5.00586 20.5 5.00586ZM15.5 9.00586H15.9238C15.9724 9.01305 16.0217 9.01305 16.0703 9.00586H16.5V10.0059H15.5V9.00586ZM25 10.0059H27V18.0059H25V15.584C25.0086 15.5309 25.0086 15.4769 25 15.4238V12.584C25.0086 12.5309 25.0086 12.4769 25 12.4238V10.0059ZM13.75 11.0059H14.9238C14.9724 11.0131 15.0217 11.0131 15.0703 11.0059H16.9238C16.9724 11.0131 17.0217 11.0131 17.0703 11.0059H18.25C18.6742 11.0059 19 11.3318 19 11.7559V16.2559C19 16.6801 18.6742 17.0059 18.25 17.0059H13.75C13.3258 17.0059 13 16.6801 13 16.2559V11.7559C13 11.3318 13.3258 11.0059 13.75 11.0059ZM7.0957 13.0059H12V15.0059H8.75C7.78919 15.0059 7 15.795 7 16.7559V18.0059H5V15.1621C5 13.9528 5.93199 13.0059 7.0957 13.0059ZM20 13.0059H24V15.0059H20V13.0059ZM6.01758 20.3691C6.00063 20.3689 5.98368 20.3696 5.9668 20.3711C5.83713 20.3798 5.71594 20.4386 5.62891 20.5352C5.62891 20.5352 4.98924 21.2423 4.3457 22.1309C4.02394 22.5753 3.69948 23.0654 3.44727 23.5527C3.19505 24.04 3 24.516 3 25.0117C3 26.6606 4.34959 28.0059 6 28.0059C7.65043 28.0059 9 26.6605 9 25.0117C9 24.516 8.80495 24.04 8.55273 23.5527C8.30052 23.0654 7.97606 22.5753 7.6543 22.1309C7.01076 21.2423 6.37109 20.5352 6.37109 20.5352C6.32632 20.4852 6.27195 20.4447 6.21121 20.4162C6.15048 20.3877 6.08463 20.3717 6.01758 20.3691ZM6 21.666C6.21873 21.9188 6.42417 22.1347 6.8457 22.7168C7.14894 23.1355 7.44948 23.5933 7.66602 24.0117C7.88255 24.43 8 24.8185 8 25.0117C8 26.1191 7.11094 27.0059 6 27.0059C4.88903 27.0059 4 26.1192 4 25.0117C4 24.8185 4.11745 24.43 4.33398 24.0117C4.55052 23.5933 4.85106 23.1355 5.1543 22.7168C5.57583 22.1347 5.78127 21.9188 6 21.666Z" fill="#639080"/>
</svg>
