<svg width="23" height="32" viewBox="0 0 23 32" fill="none" xmlns="http://www.w3.org/2000/svg">
<path d="M22.1259 27.402L15.6465 18.5793V11.625H17.404V8.3125H11.8061V7.125H13.7489C16.2052 7.125 18.1851 5.22037 18.1851 2.86188V0H15.2211C13.5171 0 12.0343 0.923793 11.2853 2.27679C10.5364 0.923793 9.05353 0 7.34957 0H4.3856V2.86188C4.3856 5.22036 6.36544 7.125 8.82173 7.125H10.7646V8.31249H5.49216V11.625H7.37983V18.5793L0.49492 27.9226C0.173654 28.3592 0 28.8829 0 29.4174C0 30.6619 0.922365 31.7104 2.14631 31.9487C2.15151 31.9498 20.3069 32 20.3069 32C21.6608 32 22.7887 31.0223 22.9676 29.767C23.1061 28.9148 22.7958 28.02 22.1259 27.402ZM11.8061 4.27542C11.8061 2.46835 13.3391 1 15.2211 1H17.1436V2.86188C17.1436 4.66898 15.631 6.125 13.7489 6.125H11.8061V4.27542ZM10.7646 6.125H8.82173C6.93969 6.125 5.42707 4.66898 5.42707 2.86188V1H7.34957C9.23157 1 10.7646 2.46835 10.7646 4.27542V6.125ZM6.27009 21.8125H16.726L21.2979 28.0277L21.3376 28.0625C21.3376 28.0625 21.9516 29.091 21.9516 29.4177C21.9516 29.4735 21.9011 29.7834 21.8622 29.8869C21.6561 30.4357 21.1478 30.875 20.5299 30.9375H2.33219C1.74439 30.8125 1.28007 30.395 1.11359 29.8562C0.888282 29.127 1.33175 28.5247 1.38305 28.4576L6.27009 21.8125ZM6.53363 9.3125H16.3625V10.625H6.53363V9.3125ZM8.42129 18.8969V11.625H14.605V18.8969L16.0161 20.8125H7.00647L8.42129 18.8969Z" fill="#639080"/>
</svg>
