<svg width="32" height="32" viewBox="0 0 32 32" fill="none" xmlns="http://www.w3.org/2000/svg">
<path d="M22.3798 22.4052C22.1225 22.4052 21.9132 22.1959 21.9132 21.9385C21.9132 21.6812 22.1212 21.4719 22.3798 21.4719H25.9678C27.6852 21.3719 29.0518 19.9199 29.0518 18.1679C29.0518 16.3465 27.5665 14.8639 25.7425 14.8639C25.5665 14.8639 25.3905 14.8919 25.1932 14.9199C25.0398 14.9412 24.8438 14.8972 24.7398 14.7905C24.6358 14.6825 24.5385 14.5399 24.5638 14.3932C24.5985 14.1919 24.6332 13.9905 24.6332 13.7559C24.6332 10.9159 22.3358 8.60521 19.5132 8.60521C17.8278 8.60521 16.3025 9.41054 15.3252 10.8172C15.1798 11.0292 14.8852 11.0799 14.6772 10.9345C14.4652 10.7879 14.4132 10.4959 14.5598 10.2852C15.6958 8.64921 17.5465 7.67188 19.5132 7.67188C22.8505 7.67188 25.5652 10.4012 25.5652 13.7559C25.5652 13.8172 25.5638 13.8785 25.5612 13.9372C25.6225 13.9332 25.6825 13.9305 25.7425 13.9305C28.0825 13.9305 29.9852 15.8319 29.9852 18.1679C29.9852 20.4145 28.2345 22.2745 25.9972 22.4039L22.3798 22.4052Z" fill="#639080"/>
<path d="M19.2115 24.3258H6.1462C6.07287 24.3258 6.0022 24.3057 5.93686 24.2724C3.69286 24.0017 2.01953 22.1444 2.01953 19.9004C2.01953 17.4818 3.98886 15.5124 6.4102 15.5124C6.51287 15.5124 6.60753 15.5164 6.70086 15.5231C6.78486 12.2404 9.48486 9.59375 12.7929 9.59375C16.1315 9.59375 18.8475 12.3231 18.8475 15.6778C18.8475 15.7364 18.8462 15.7964 18.8422 15.8564C18.8995 15.8538 18.9609 15.8511 19.0222 15.8511C21.3795 15.8511 23.2249 17.7124 23.2249 20.0884C23.2249 22.3378 21.4742 24.1978 19.2382 24.3244C19.2302 24.3244 19.2209 24.3258 19.2115 24.3258ZM6.29153 23.3911H19.1995C20.9355 23.2857 22.2929 21.8378 22.2929 20.0871C22.2929 18.2351 20.8555 16.7831 19.0222 16.7831C18.7875 16.7831 18.5849 16.8177 18.3835 16.8524C18.2355 16.8791 18.0889 16.8298 17.9809 16.7271C17.8742 16.6231 17.8235 16.4764 17.8435 16.3284L17.8622 16.1951C17.8902 16.0097 17.9155 15.8431 17.9155 15.6764C17.9155 12.8364 15.6169 10.5257 12.7929 10.5257C9.9462 10.5257 7.63153 12.8364 7.63153 15.6764C7.63153 15.7044 7.6462 15.7898 7.68486 15.9097C7.7342 16.0618 7.7022 16.2284 7.60086 16.3511C7.4982 16.4751 7.3342 16.5404 7.18353 16.5164L7.03153 16.4964C6.81953 16.4684 6.6382 16.4444 6.4102 16.4444C4.50353 16.4444 2.95153 17.9938 2.95153 19.8978C2.95153 21.6991 4.32753 23.1858 6.1502 23.3538C6.19953 23.3604 6.24886 23.3724 6.29153 23.3911Z" fill="#639080"/>
</svg>
