<svg viewBox="0 0 16 16" xmlns="http://www.w3.org/2000/svg">
<g>
<path d="M15.3322 0.167469C15.4602 0.167469 15.5882 0.216136 15.6855 0.314136C15.8809 0.509469 15.8809 0.826136 15.6855 1.02147L10.1855 6.52147C9.99021 6.7168 9.67354 6.7168 9.47821 6.52147C9.28288 6.32614 9.28288 6.00947 9.47821 5.81414L14.9782 0.314136C15.0762 0.216136 15.2042 0.167469 15.3322 0.167469Z"/>
<path d="M11.8333 0.00130213L15.5 0.00130181C15.776 0.00130179 16 0.225302 16 0.501302L16 4.16797C16 4.44397 15.776 4.66797 15.5 4.66797C15.224 4.66797 15 4.44397 15 4.16797L15 1.0013L11.8333 1.0013C11.5573 1.0013 11.3333 0.777302 11.3333 0.501302C11.3333 0.225302 11.5573 0.00130215 11.8333 0.00130213Z"/>
<path d="M11.5 15.9988H1.83333C0.822 15.9988 0 15.1768 0 14.1654V6.49878C0 5.84478 0.352667 5.23878 0.92 4.91678C1.16067 4.78011 1.46533 4.86545 1.60133 5.10545C1.738 5.34545 1.65333 5.65078 1.41333 5.78678C1.15467 5.93345 1 6.20011 1 6.49878V14.1654C1 14.6248 1.374 14.9988 1.83333 14.9988H11.5C11.9593 14.9988 12.3333 14.6248 12.3333 14.1654V12.8321C12.3333 12.5561 12.5573 12.3321 12.8333 12.3321C13.1093 12.3321 13.3333 12.5561 13.3333 12.8321V14.1654C13.3333 15.1768 12.5113 15.9988 11.5 15.9988Z"/>
<path d="M14.168 11.3333H4.5013C3.48997 11.3333 2.66797 10.5113 2.66797 9.5V1.83333C2.66797 0.822 3.48997 0 4.5013 0H8.16797C8.44397 0 8.66797 0.224 8.66797 0.5C8.66797 0.776 8.44397 1 8.16797 1H4.5013C4.04197 1 3.66797 1.374 3.66797 1.83333V9.5C3.66797 9.95933 4.04197 10.3333 4.5013 10.3333H14.168C14.6273 10.3333 15.0013 9.95933 15.0013 9.5V7.83333C15.0013 7.55733 15.2253 7.33333 15.5013 7.33333C15.7773 7.33333 16.0013 7.55733 16.0013 7.83333V9.5C16.0013 10.5113 15.1793 11.3333 14.168 11.3333Z"/>
</g>
</svg>
