<?xml version="1.0" standalone="no"?>
<!DOCTYPE svg PUBLIC "-//W3C//DTD SVG 20010904//EN"
 "http://www.w3.org/TR/2001/REC-SVG-20010904/DTD/svg10.dtd">
<svg version="1.0" xmlns="http://www.w3.org/2000/svg"
 width="1184.000000pt" height="1184.000000pt" viewBox="0 0 1184.000000 1184.000000"
 preserveAspectRatio="xMidYMid meet">
<metadata>
Created by potrace 1.11, written by Peter Selinger 2001-2013
</metadata>
<g transform="translate(0.000000,1184.000000) scale(0.100000,-0.100000)"
fill="#000000" stroke="none">
<path d="M5708 11735 c-1 -1 -43 -5 -93 -9 -49 -3 -101 -8 -115 -10 -14 -2
-49 -7 -78 -10 -46 -5 -93 -12 -208 -31 -11 -1 -47 -9 -80 -16 -32 -7 -61 -13
-64 -14 -30 -6 -81 -16 -85 -16 -2 0 -23 -6 -45 -14 -22 -8 -40 -12 -40 -8 0
3 -7 -1 -17 -8 -9 -8 -18 -13 -20 -11 -1 1 -4 2 -5 1 -2 0 -13 -2 -25 -5 -28
-5 -288 -92 -328 -109 -16 -7 -79 -35 -140 -60 -300 -129 -589 -300 -855 -507
-218 -171 -454 -401 -616 -603 -27 -33 -52 -64 -57 -70 -4 -5 -35 -46 -68 -90
-33 -44 -67 -89 -77 -100 -9 -11 -14 -20 -12 -20 2 0 -23 -40 -55 -90 -118
-184 -287 -507 -330 -635 -6 -18 -18 -48 -26 -65 -16 -34 -70 -189 -75 -214
-3 -13 -10 -33 -15 -44 -6 -11 -12 -29 -14 -41 -1 -11 -12 -53 -24 -92 -11
-39 -22 -83 -23 -98 -1 -14 -5 -26 -9 -26 -3 0 -6 -6 -6 -12 0 -7 -8 -49 -17
-93 -9 -44 -18 -94 -21 -110 -2 -17 -6 -39 -8 -50 -6 -25 -12 -73 -32 -240
-24 -203 -24 -619 0 -794 2 -18 5 -51 7 -73 1 -21 6 -42 10 -44 5 -3 6 -9 4
-13 -3 -4 2 -45 10 -92 8 -46 15 -91 16 -99 4 -66 109 -468 148 -565 60 -151
62 -157 44 -231 -7 -32 -16 -75 -18 -94 -3 -19 -7 -44 -10 -56 -2 -12 -7 -45
-11 -75 -3 -30 -8 -61 -10 -69 -2 -8 -7 -53 -11 -100 -3 -47 -8 -103 -10 -125
-5 -53 -4 -418 1 -475 11 -139 15 -187 19 -205 2 -11 7 -45 10 -76 4 -31 9
-67 11 -80 11 -53 17 -85 19 -104 6 -44 40 -186 68 -285 16 -58 31 -109 32
-115 2 -5 5 -17 9 -25 3 -8 15 -46 28 -85 13 -38 26 -74 31 -79 4 -6 8 -18 8
-28 0 -10 4 -26 9 -36 34 -67 51 -105 51 -112 0 -15 129 -280 151 -311 11 -16
18 -29 14 -29 -3 0 7 -19 22 -43 44 -67 52 -80 65 -107 7 -14 15 -27 18 -30 3
-3 25 -36 49 -73 24 -37 59 -87 77 -109 18 -23 30 -46 28 -50 -3 -4 -1 -8 4
-8 5 0 35 -34 66 -75 31 -41 62 -75 68 -75 6 0 9 -3 5 -6 -16 -16 277 -315
470 -479 48 -41 173 -138 210 -162 103 -70 108 -76 106 -123 -1 -25 -2 -45 -3
-45 -1 0 -3 -53 -3 -118 -1 -64 0 -117 3 -117 3 0 5 -24 5 -53 -1 -28 2 -70 6
-92 4 -22 10 -60 14 -85 11 -79 50 -242 72 -300 3 -8 7 -19 7 -25 1 -5 9 -27
19 -49 9 -21 17 -42 17 -47 0 -12 102 -223 140 -287 85 -148 208 -306 333
-428 99 -97 201 -184 215 -184 6 0 12 -4 14 -9 4 -12 173 -124 218 -145 19 -9
64 -32 100 -51 55 -29 79 -40 110 -49 3 -1 10 -4 15 -8 6 -4 47 -19 90 -33 44
-15 87 -29 95 -32 17 -7 15 -6 85 -23 28 -7 57 -15 65 -18 16 -5 21 -6 123
-23 108 -18 152 -20 322 -21 179 0 319 10 375 27 8 2 31 7 50 10 77 13 238 61
350 105 59 23 238 111 282 138 14 9 48 30 74 46 46 28 94 62 179 130 47 36
169 150 201 186 12 14 35 39 50 55 16 17 43 48 59 69 17 21 35 44 40 50 53 56
197 306 263 456 22 51 79 219 86 252 2 13 7 30 10 38 3 8 8 26 10 40 3 14 9
48 15 77 6 29 13 74 16 100 4 26 10 74 14 105 9 65 7 375 -2 384 -8 9 6 21
101 88 46 31 91 64 100 71 9 8 35 29 58 47 22 18 55 44 73 58 37 29 75 64 191
175 158 153 283 294 406 460 32 44 63 83 69 87 7 5 7 8 0 8 -6 0 -6 3 1 8 6 4
32 41 59 82 26 41 56 87 66 102 11 15 19 29 19 32 0 2 23 43 50 91 28 48 50
91 50 96 0 5 5 9 12 9 6 0 9 3 5 6 -3 3 10 36 29 72 19 37 34 73 34 80 0 6 5
12 10 12 6 0 10 8 10 18 0 10 3 22 8 26 4 4 7 11 8 14 0 4 10 29 22 55 12 27
22 54 22 61 0 7 4 16 8 22 5 5 19 38 31 74 13 36 27 73 32 83 5 10 7 22 4 27
-4 6 -2 10 3 10 5 0 9 6 9 13 0 6 12 50 26 97 14 47 28 96 31 110 3 14 14 61
24 105 11 44 22 96 26 115 3 19 8 46 11 60 3 13 7 42 10 65 4 22 8 54 11 70 3
17 7 46 9 65 2 19 7 60 10 90 4 30 8 105 10 165 2 61 5 112 6 115 5 17 3 70
-4 70 -5 0 -5 5 -2 11 18 28 -10 435 -40 579 -2 13 -7 42 -11 65 -5 38 -20
120 -25 141 -3 12 12 67 20 74 3 3 17 37 29 75 32 96 34 100 31 100 -1 0 3 10
10 23 7 13 14 31 16 41 2 10 13 48 24 86 12 37 23 77 25 89 3 11 7 30 10 41 5
17 17 74 52 235 3 14 7 36 9 50 1 14 8 54 13 90 9 58 17 118 27 215 16 146 20
393 10 580 -6 122 -7 133 -20 240 -4 33 -8 74 -10 90 -6 46 -35 208 -41 224
-2 8 -7 30 -10 50 -12 81 -94 380 -120 438 -8 17 -14 37 -14 45 0 8 -3 18 -7
22 -5 4 -9 12 -9 17 -1 5 -3 11 -4 14 -1 3 -3 8 -5 13 -1 4 -5 16 -10 27 -4
11 -17 43 -27 70 -22 56 -28 70 -93 210 -25 55 -46 102 -46 105 0 3 -6 12 -13
20 -11 13 -60 104 -90 167 -6 13 -14 23 -18 23 -5 0 -8 5 -8 11 0 5 -18 37
-40 69 -22 32 -40 62 -40 65 0 3 -5 11 -10 18 -12 14 -130 181 -145 205 -5 9
-17 24 -25 32 -8 8 -31 36 -50 62 -69 89 -126 153 -275 303 -169 171 -281 269
-446 391 -63 46 -118 87 -124 92 -5 4 -29 19 -52 32 -24 13 -43 27 -43 32 0 4
-5 8 -11 8 -6 0 -23 8 -37 19 -89 62 -412 229 -567 291 -44 17 -89 36 -100 41
-12 6 -27 11 -35 13 -8 2 -28 9 -45 15 -24 10 -81 30 -135 46 -3 1 -12 5 -20
8 -13 5 -93 27 -150 42 -8 2 -15 4 -15 5 0 1 -7 3 -15 5 -8 2 -26 6 -40 9 -14
3 -35 7 -47 10 -77 19 -215 47 -253 52 -19 2 -46 6 -60 9 -30 6 -97 15 -160
20 -25 3 -58 7 -75 10 -32 6 -561 15 -567 10z m522 -410 c30 -4 66 -8 80 -10
14 -1 52 -6 85 -10 73 -8 94 -11 159 -25 71 -14 96 -19 131 -25 17 -3 38 -8
47 -11 9 -3 25 -7 35 -9 21 -4 105 -27 183 -50 30 -8 63 -20 72 -25 10 -6 24
-10 32 -10 7 0 31 -8 52 -17 22 -9 44 -18 49 -19 27 -6 182 -72 282 -120 62
-30 117 -54 122 -54 6 0 11 -4 11 -9 0 -5 20 -17 45 -27 25 -9 45 -21 45 -25
0 -5 5 -9 10 -9 11 0 41 -18 195 -119 136 -89 325 -234 411 -316 221 -210 308
-305 433 -470 17 -22 37 -47 44 -55 26 -29 195 -288 191 -293 -2 -2 2 -10 11
-17 8 -7 15 -18 15 -25 0 -8 3 -15 8 -17 4 -1 21 -30 38 -63 17 -33 36 -69 42
-80 20 -35 112 -235 112 -243 0 -5 8 -26 19 -48 17 -37 109 -301 116 -334 2
-8 15 -62 30 -120 30 -118 30 -119 41 -187 9 -54 11 -62 14 -65 1 -2 3 -14 5
-28 2 -14 6 -43 9 -65 6 -39 15 -114 22 -185 2 -19 6 -91 9 -159 3 -68 8 -127
11 -132 3 -5 1 -9 -5 -9 -6 0 -6 -11 -1 -29 4 -16 6 -31 4 -34 -2 -2 -7 -57
-10 -123 -3 -65 -7 -135 -9 -154 -11 -126 -16 -170 -21 -191 -2 -13 -7 -40 -9
-59 -3 -19 -8 -46 -11 -60 -3 -14 -8 -35 -10 -47 -6 -33 -14 -76 -19 -93 -2
-8 -4 -22 -5 -30 0 -8 -9 1 -19 20 -11 19 -17 38 -14 42 2 5 -1 8 -6 8 -6 0
-11 5 -11 12 0 11 -70 158 -80 168 -3 3 -14 23 -25 45 -86 174 -313 509 -422
622 -13 13 -23 27 -23 30 0 9 -33 43 -195 207 -157 158 -186 184 -300 275 -44
34 -90 71 -102 81 -12 10 -34 27 -50 37 -15 9 -30 20 -33 23 -3 3 -26 19 -52
35 -27 17 -48 33 -48 38 0 4 -4 7 -9 7 -5 0 -53 28 -107 62 -183 115 -586 304
-711 334 -15 4 -32 10 -38 14 -5 5 -30 13 -55 19 -25 7 -54 16 -65 21 -21 9
-202 57 -245 64 -14 3 -36 8 -50 11 -33 8 -188 36 -220 40 -224 30 -358 39
-555 39 -150 0 -342 -9 -410 -19 -16 -2 -52 -7 -80 -10 -51 -5 -90 -12 -90
-15 0 -1 -11 -3 -25 -4 -85 -10 -270 -49 -365 -77 -119 -35 -272 -82 -280 -87
-5 -4 -14 -7 -20 -8 -32 -5 -222 -87 -363 -155 -192 -93 -469 -256 -480 -282
-2 -4 -8 -5 -13 -1 -5 3 -9 1 -9 -4 0 -6 -22 -24 -50 -42 -27 -18 -50 -36 -50
-42 0 -5 -4 -7 -8 -4 -4 3 -25 -11 -46 -30 -20 -19 -39 -34 -42 -34 -3 0 -11
-6 -18 -12 -7 -7 -39 -35 -72 -63 -117 -100 -243 -222 -350 -341 -87 -96 -243
-292 -257 -321 -6 -13 -14 -23 -18 -23 -4 0 -10 -8 -13 -18 -4 -10 -14 -27
-24 -38 -15 -17 -43 -58 -77 -116 -5 -9 -32 -54 -60 -100 -27 -46 -84 -153
-127 -238 -42 -85 -78 -148 -78 -140 -1 8 -3 22 -5 30 -2 8 -7 31 -10 50 -3
19 -10 55 -15 80 -12 57 -21 124 -25 175 -2 22 -5 40 -6 40 -15 0 -27 510 -15
645 11 114 17 167 21 190 2 14 7 50 10 80 3 30 9 64 12 75 3 11 7 31 8 46 2
28 15 82 46 204 11 44 22 87 23 95 2 8 6 22 9 30 3 8 16 49 28 90 33 118 124
342 195 485 75 152 134 259 152 277 6 6 12 16 12 20 0 14 181 277 215 314 5 6
19 23 30 38 11 15 29 38 40 50 11 12 41 48 68 78 109 128 333 342 442 423 22
17 42 33 45 36 9 11 240 173 292 204 64 39 158 92 183 105 17 8 32 17 35 20 9
10 136 70 148 70 7 0 12 5 12 10 0 6 6 10 12 10 7 0 53 17 103 39 81 34 120
51 135 56 3 1 12 5 20 8 48 20 311 100 368 112 9 2 40 9 67 15 28 6 59 13 70
16 129 25 171 31 178 27 4 -2 7 -1 7 4 0 4 15 8 33 9 17 1 55 4 82 8 28 3 88
9 135 12 47 4 86 7 88 9 5 4 440 -4 492 -10z m-1872 -9164 c87 -40 260 -111
282 -116 3 -1 18 -7 33 -13 16 -7 34 -12 42 -12 8 0 17 -5 20 -10 4 -6 11 -8
16 -4 5 3 15 1 22 -5 7 -5 25 -12 40 -15 15 -2 31 -7 37 -11 5 -3 18 -8 27
-10 10 -2 43 -11 75 -19 31 -8 67 -17 80 -20 12 -2 43 -9 68 -16 25 -6 56 -13
70 -15 14 -2 74 -13 135 -25 60 -11 116 -18 122 -15 7 2 13 1 13 -3 0 -4 12
-7 28 -8 15 0 65 -4 112 -9 47 -4 124 -8 172 -9 49 0 88 -4 88 -8 0 -4 11 -3
25 2 15 6 26 6 30 -1 4 -5 9 -8 13 -5 4 2 77 7 162 10 161 7 220 12 280 22 19
3 49 7 65 8 17 2 50 6 75 10 25 4 59 10 75 12 17 3 37 7 45 9 8 2 31 7 50 10
19 3 53 10 75 16 22 5 50 12 62 14 12 3 34 10 48 15 14 5 25 7 25 5 0 -2 11 0
25 5 14 5 36 12 48 14 68 14 378 126 442 160 17 9 34 16 38 16 4 0 40 16 80
35 39 19 75 35 79 35 9 0 -5 -221 -17 -260 -2 -8 -7 -31 -10 -50 -5 -28 -23
-100 -39 -155 -2 -5 -7 -23 -11 -39 -4 -16 -14 -41 -21 -55 -8 -14 -14 -32
-14 -39 0 -7 -4 -20 -9 -30 -6 -9 -28 -55 -51 -101 -48 -97 -63 -124 -71 -131
-3 -3 -12 -16 -19 -29 -43 -82 -217 -281 -325 -371 -65 -54 -125 -100 -130
-100 -4 0 -21 -11 -39 -25 -18 -14 -38 -25 -44 -25 -7 0 -12 -4 -12 -8 0 -12
-220 -115 -310 -146 -125 -42 -293 -79 -367 -80 -18 0 -33 -3 -33 -6 0 -7
-261 -3 -325 4 -59 8 -98 14 -105 16 -3 1 -9 2 -13 1 -14 -2 -170 40 -255 69
-126 44 -362 164 -392 199 -3 3 -25 20 -49 36 -81 54 -223 189 -296 280 -22
28 -42 52 -45 55 -3 3 -9 12 -15 22 -5 9 -31 47 -56 85 -39 57 -67 111 -151
288 -5 12 -10 27 -12 35 -2 8 -6 24 -10 35 -21 54 -27 75 -41 135 -22 92 -31
142 -40 225 -9 89 -13 165 -9 165 3 0 53 -22 112 -49z"/>
</g>
</svg>
