<svg width="416" height="89" viewBox="0 0 416 89" fill="none" xmlns="http://www.w3.org/2000/svg">
<path d="M401.633 57.7925C400.3 56.1274 398.936 54.4925 397.664 52.7668L398.633 53.0393C396.712 54.0379 394.677 54.8003 392.573 55.3099C392.476 55.3501 392.368 55.3503 392.271 55.3106C392.175 55.2708 392.098 55.1944 392.058 55.098C392.018 55.0017 392.017 54.8933 392.057 54.7968C392.097 54.7003 392.173 54.6235 392.27 54.5833C394.023 53.4303 395.904 52.4854 397.876 51.7677C398.046 51.6777 398.244 51.6557 398.43 51.7064C398.615 51.757 398.775 51.8763 398.876 52.0402C400.088 53.7356 401.209 55.4916 402.391 57.2173C402.694 57.6714 401.967 58.2466 401.603 57.7925H401.633Z" fill="#BBD0C9"/>
<path d="M390.966 54.2525C389.663 48.1975 377.997 50.1654 373.906 46.6232C364.331 38.2066 354.21 38.1764 343.028 43.5956C342.574 43.8378 342.028 43.2323 342.453 42.869C349.877 36.814 359.452 37.2076 367.846 40.9617C374.293 44.1511 380.98 46.8336 387.845 48.9846C388.973 49.2872 389.957 49.9793 390.623 50.9382C391.289 51.8971 391.593 53.0606 391.481 54.2223C391.481 54.525 391.027 54.5856 390.966 54.2223V54.2525Z" fill="#BBD0C9"/>
<path d="M402.027 58.793C405.057 58.793 408.087 58.793 411.118 58.793C411.217 58.7949 411.315 58.819 411.403 58.8634C411.492 58.9079 411.57 58.9716 411.631 59.05C411.692 59.1283 411.735 59.2193 411.756 59.3163C411.777 59.4133 411.777 59.5137 411.754 59.6104C410.451 63.2737 405.118 65.6655 402.027 62.6379C401.754 62.3655 402.027 61.8205 402.421 61.9719C403.857 62.6645 405.509 62.7638 407.017 62.248C408.526 61.7323 409.771 60.6432 410.481 59.2168L411.118 60.0343C408.087 60.0343 405.057 60.0343 402.027 59.8526C401.908 59.824 401.802 59.7561 401.726 59.66C401.651 59.5639 401.609 59.4451 401.609 59.3228C401.609 59.2004 401.651 59.0817 401.726 58.9855C401.802 58.8894 401.908 58.8216 402.027 58.793Z" fill="#BBD0C9"/>
<path d="M405.602 65.9083C399.195 67.5171 392.601 68.2604 385.997 68.1183C385.957 68.1026 385.924 68.0755 385.9 68.0404C385.876 68.0053 385.863 67.9639 385.863 67.9216C385.863 67.8792 385.876 67.8378 385.9 67.8027C385.924 67.7676 385.957 67.7405 385.997 67.7248C392.359 65.9408 398.934 65.0243 405.542 65C405.662 65 405.778 65.0478 405.863 65.133C405.948 65.2182 405.996 65.3337 405.996 65.4541C405.996 65.5746 405.948 65.6901 405.863 65.7752C405.778 65.8604 405.662 65.9083 405.542 65.9083H405.602Z" fill="#BBD0C9"/>
<path d="M384.391 67.1447C380.391 69.6273 373.907 69.2034 371.392 64.7227C371.367 64.6906 371.357 64.6502 371.363 64.6104C371.368 64.5707 371.39 64.5348 371.422 64.5107C371.454 64.4867 371.494 64.4763 371.534 64.482C371.574 64.4877 371.61 64.5089 371.634 64.541C373.175 66.1994 375.233 67.2875 377.473 67.6283C379.712 67.9692 382.001 67.5426 383.967 66.4181C384.452 66.1153 384.846 66.8419 384.391 67.1447Z" fill="#BBD0C9"/>
<path d="M370.117 64.1202C362.178 66.7844 350.36 70.1752 344.088 62.455C344.035 62.3896 344.01 62.3068 344.016 62.2233C344.022 62.1397 344.059 62.0614 344.12 62.0041C344.181 61.9468 344.262 61.9147 344.346 61.9141C344.43 61.9135 344.511 61.9445 344.573 62.0009C352.118 68.056 361.39 66.3606 370.057 63.8477V64.1202H370.117Z" fill="#BBD0C9"/>
<path d="M344.393 66.1467C335.323 67.0816 326.177 67.0207 317.121 65.965C316.575 65.965 316.757 65.1476 317.121 65.087C326.125 64.4005 335.177 64.6847 344.12 65.9347V66.1467H344.393Z" fill="#BBD0C9"/>
<path d="M342.876 45.955C340.664 45.4403 334.816 42.9275 333.028 45.7431C331.574 48.044 329.998 50.2844 328.483 52.5853C328.372 52.7462 328.207 52.8622 328.018 52.9122C327.829 52.9621 327.629 52.9429 327.453 52.8578C322.907 50.7991 324.423 52.8578 320.938 54.6138C319.896 54.9623 318.768 54.9623 317.726 54.6138C314.459 53.8091 311.057 53.7254 307.754 54.3685C304.452 55.0116 301.33 56.3661 298.605 58.3376C298.561 58.3734 298.511 58.4002 298.457 58.4165C298.403 58.4329 298.346 58.4384 298.29 58.4327C298.233 58.4271 298.179 58.4105 298.129 58.3838C298.079 58.3571 298.035 58.3208 297.999 58.2771C297.963 58.2333 297.937 58.183 297.92 58.1289C297.904 58.0748 297.898 58.018 297.904 57.9618C297.91 57.9055 297.926 57.851 297.953 57.8012C297.98 57.7514 298.016 57.7073 298.06 57.6716C300.68 55.221 303.916 53.526 307.423 52.767C309.726 52.1312 322.574 53.5844 322.332 49.9816C322.332 49.3459 323.029 49.1037 323.513 49.3156C329.089 51.889 330.695 46.8027 333.604 42.8669C333.67 42.762 333.766 42.6797 333.879 42.631C333.993 42.5823 334.119 42.5695 334.24 42.5945C337.25 43.5027 340.22 44.4413 343.149 45.4101C343.185 45.4101 343.22 45.4171 343.254 45.4308C343.287 45.4445 343.317 45.4646 343.342 45.4899C343.367 45.5152 343.387 45.5452 343.401 45.5783C343.415 45.6113 343.422 45.6468 343.422 45.6826C343.422 45.7183 343.415 45.7538 343.401 45.7868C343.387 45.8199 343.367 45.8499 343.342 45.8752C343.317 45.9005 343.287 45.9206 343.254 45.9343C343.22 45.948 343.185 45.955 343.149 45.955H342.876Z" fill="#BBD0C9"/>
<path d="M319.394 66.1505C313.939 65.1515 308.637 63.6982 303.182 62.7597C295.961 61.9385 288.689 61.645 281.425 61.8817C281.001 61.8817 280.88 61.2157 281.425 61.0946C294.336 58.4298 307.765 60.0897 319.636 65.8175C319.848 65.8175 319.636 66.1808 319.636 66.1505H319.394Z" fill="#BBD0C9"/>
<path d="M281.395 59.0598C286.819 58.6057 292.212 58.6662 297.636 58.6965C298.333 58.6965 298.727 59.7561 298.03 60.0892C293.91 62.0139 289.285 62.5862 284.819 61.724L285.425 60.3011C291.25 63.475 297.952 64.6654 304.515 63.6919C304.647 63.6585 304.784 63.6533 304.918 63.6764C305.052 63.6996 305.18 63.7506 305.293 63.8263C305.406 63.9019 305.502 64.0005 305.574 64.1155C305.646 64.2306 305.694 64.3595 305.713 64.494C305.732 64.6286 305.723 64.7656 305.686 64.8963C305.648 65.027 305.584 65.1484 305.497 65.2527C305.409 65.3569 305.301 65.4416 305.179 65.5013C305.057 65.561 304.924 65.5944 304.788 65.5993C300.36 66.3029 295.823 65.7468 291.697 63.9947C291.152 63.7222 291.697 62.9956 292.091 63.0864C296.272 63.898 300.55 64.0918 304.788 63.6616V65.5993C297.83 66.2856 290.824 64.9171 284.637 61.6635C283.819 61.2093 284.425 60.0891 285.243 60.2405C289.335 61.0446 293.578 60.536 297.364 58.7873L297.727 60.18C292.303 60.18 286.909 60.18 281.485 59.5745C281.432 59.5559 281.386 59.5211 281.353 59.475C281.32 59.4289 281.302 59.3737 281.302 59.3171C281.302 59.2606 281.32 59.2054 281.353 59.1593C281.386 59.1132 281.432 59.0784 281.485 59.0598H281.395Z" fill="#BBD0C9"/>
<path d="M288.334 63.9073C289.606 63.3926 290.94 62.0605 292.364 62.4843C292.455 62.5097 292.539 62.5585 292.606 62.626C292.673 62.6935 292.721 62.7773 292.745 62.8691C292.77 62.9609 292.77 63.0575 292.745 63.1493C292.721 63.2412 292.673 63.325 292.606 63.3926C291.697 64.5431 289.788 64.21 288.515 64.5128C288.476 64.5247 288.434 64.5287 288.393 64.5245C288.351 64.5203 288.311 64.508 288.274 64.4883C288.238 64.4687 288.206 64.442 288.179 64.4098C288.153 64.3776 288.133 64.3406 288.121 64.3009C288.11 64.2611 288.106 64.2194 288.11 64.1781C288.114 64.1368 288.126 64.0967 288.146 64.0602C288.166 64.0236 288.192 63.9913 288.225 63.9651C288.257 63.9389 288.294 63.9192 288.334 63.9073Z" fill="#BBD0C9"/>
<path d="M409.208 60.6385C410.996 60.4871 412.754 60.3055 414.542 60.2146C414.705 60.2179 414.864 60.2683 415 60.3598C415.135 60.4513 415.241 60.5799 415.305 60.7302C415.369 60.8806 415.389 61.0462 415.361 61.2072C415.333 61.3681 415.259 61.5176 415.148 61.6376C412.269 64.1504 405.845 65.0284 403.815 60.9412C403.702 60.8288 403.639 60.6764 403.639 60.5174C403.639 60.3584 403.702 60.2059 403.815 60.0935C403.927 59.9811 404.08 59.918 404.239 59.918C404.398 59.918 404.551 59.9811 404.663 60.0935C406.063 60.9053 407.589 61.4783 409.178 61.7889C410.932 61.9618 412.684 61.44 414.057 60.3357L414.663 61.7587C412.875 61.7587 411.117 61.577 409.33 61.4862C409.201 61.4862 409.078 61.4352 408.987 61.3443C408.896 61.2535 408.845 61.1303 408.845 61.0018C408.845 60.8733 408.896 60.7501 408.987 60.6593C409.078 60.5684 409.201 60.5174 409.33 60.5174L409.208 60.6385Z" fill="#BBD0C9"/>
<path d="M398.45 55.6719C400.638 56.7661 402.718 58.0635 404.662 59.5471C405.692 60.4856 405.117 61.6361 403.723 61.3031C403.511 61.3031 403.723 61.0003 403.723 60.9398C404.359 60.6976 404.783 60.6673 404.177 60.0315C403.591 59.4975 402.963 59.0116 402.299 58.5783C400.996 57.6095 399.662 56.7315 398.329 55.793C398.329 55.793 398.329 55.6113 398.329 55.793L398.45 55.6719Z" fill="#BBD0C9"/>
<path d="M394.965 55.5521C397.72 57.5344 400.314 59.7312 402.723 62.1218C402.787 62.17 402.829 62.2417 402.841 62.3212C402.852 62.4007 402.831 62.4814 402.783 62.5457C402.735 62.6099 402.663 62.6524 402.584 62.6637C402.504 62.6751 402.423 62.6544 402.359 62.6062C399.638 60.5398 397.085 58.262 394.723 55.7943C394.571 55.7943 394.723 55.431 394.965 55.5521Z" fill="#BBD0C9"/>
<path d="M386.33 49.4683C391.087 52.4959 396.905 57.3702 397.996 63.1831C397.996 63.4253 397.693 63.728 397.481 63.4555C395.663 61.306 394.451 58.7629 392.633 56.583C390.639 54.2491 388.323 52.2103 385.754 50.528C385.178 50.1041 385.754 49.1656 386.33 49.5592V49.4683Z" fill="#BBD0C9"/>
<path d="M382.117 50.4066C385.905 54.4332 389.723 58.4296 393.359 62.5167C389.481 58.6112 385.754 54.524 381.966 50.4066C381.814 50.225 381.966 49.9525 382.239 50.1341L382.117 50.4066Z" fill="#BBD0C9"/>
<path d="M377.209 53.4974C381.497 56.9353 385.604 60.5934 389.512 64.457C389.512 64.457 389.512 64.7598 389.36 64.669C384.984 61.2549 380.796 57.6065 376.815 53.7396C376.633 53.7396 376.815 53.3763 377.058 53.4974H377.209Z" fill="#BBD0C9"/>
<path d="M378.359 59.6065L381.389 62.2707C382.351 62.995 383.225 63.8281 383.995 64.7533C384.147 64.9652 383.995 65.1771 383.692 65.0863C382.685 64.4077 381.76 63.6154 380.935 62.7248L377.905 59.9395C377.692 59.7276 377.905 59.4248 378.238 59.6065H378.359Z" fill="#BBD0C9"/>
<path d="M271.788 31.2432C264.091 27.9735 255.334 28.0038 247.183 26.7625C239.031 25.5212 223.214 12.1395 217.911 25.4304C217.887 25.5187 217.828 25.5939 217.749 25.6393C217.669 25.6847 217.575 25.6967 217.487 25.6726C217.398 25.6485 217.323 25.5903 217.278 25.5108C217.232 25.4313 217.22 25.3371 217.244 25.2487C218.577 18.1643 225.274 17.5891 231.304 19.1937C239.486 21.4038 245.849 24.9763 254.607 26.0056C260.635 26.6423 266.508 28.3116 271.97 30.9405C272.151 30.9405 271.97 31.3038 271.788 31.213V31.2432Z" fill="#BBD0C9"/>
<path d="M214.547 19.8894C213.077 17.3581 211.023 15.2136 208.557 13.634C206.09 12.0544 203.282 11.0852 200.366 10.8068C200.31 10.8068 200.256 10.7845 200.216 10.7448C200.176 10.705 200.154 10.6511 200.154 10.5949C200.154 10.5387 200.176 10.4848 200.216 10.4451C200.256 10.4053 200.31 10.383 200.366 10.383C203.45 10.2833 206.493 11.1176 209.094 12.7763C211.695 14.435 213.733 16.8406 214.941 19.6775C214.941 19.95 214.699 20.1922 214.547 19.9197V19.8894Z" fill="#BBD0C9"/>
<path d="M191.366 5.08304C185.305 5.93074 179.245 6.77845 173.185 7.05093C172.912 7.05093 172.851 6.62708 173.185 6.5968C179.245 5.56744 185.305 5.08304 191.366 4.62891C191.639 4.62891 191.699 5.05276 191.366 5.08304Z" fill="#BBD0C9"/>
<path d="M268.577 36.5669C262.517 34.8412 256.456 34.1449 250.729 32.4495C250.669 32.4296 250.616 32.3911 250.578 32.3394C250.541 32.2878 250.521 32.2256 250.521 32.1619C250.521 32.0981 250.541 32.036 250.578 31.9843C250.616 31.9327 250.669 31.8942 250.729 31.8743C257.061 31.4005 263.391 32.8235 268.91 35.9614C269.244 36.1431 268.91 36.688 268.668 36.5669H268.577Z" fill="#BBD0C9"/>
<path d="M245.456 34.2092C244.527 36.4874 243.057 38.5051 241.172 40.0877C239.287 41.6702 237.044 42.77 234.638 43.2918C234.396 43.2918 234.184 42.9588 234.457 42.8377C238.77 40.8818 242.43 37.7293 245.002 33.7551C245.183 33.4523 245.608 33.7551 245.456 34.0276V34.2092Z" fill="#BBD0C9"/>
<path d="M270.698 32.5424C265.408 34.1501 259.893 34.8964 254.365 34.7525C254.209 34.7425 254.062 34.6782 253.949 34.5708C253.836 34.4633 253.764 34.3197 253.746 34.1647C253.728 34.0098 253.765 33.8535 253.85 33.723C253.936 33.5925 254.064 33.4961 254.214 33.4506C259.511 31.8907 265.029 31.2155 270.546 31.4525C270.691 31.4525 270.83 31.5099 270.932 31.6121C271.034 31.7143 271.092 31.8529 271.092 31.9974C271.092 32.142 271.034 32.2806 270.932 32.3828C270.83 32.485 270.691 32.5424 270.546 32.5424H270.698Z" fill="#BBD0C9"/>
<path d="M229.366 47.9834C226.033 58.1862 213.791 54.2504 207.216 50.0422C207.003 49.8908 207.216 49.4972 207.428 49.588C213.973 52.3128 224.639 56.7633 228.639 47.6201C228.851 47.1055 229.669 47.4688 229.488 47.9834H229.366Z" fill="#BBD0C9"/>
<path d="M201.639 53.5254C196.154 59.0961 187.518 61.9722 180.427 57.7337C180.331 57.6935 180.254 57.6167 180.215 57.5202C180.175 57.4237 180.175 57.3153 180.215 57.219C180.255 57.1226 180.332 57.0462 180.429 57.0064C180.525 56.9667 180.634 56.9669 180.73 57.0071C187.972 58.8236 195.699 58.5511 201.578 53.3438L201.76 53.5254H201.639Z" fill="#BBD0C9"/>
<path d="M162.247 5.60068C156.823 0.514435 150.127 2.0282 144.581 5.78234C144.476 5.85345 144.35 5.8858 144.224 5.87381C144.097 5.86181 143.979 5.80624 143.89 5.71664C143.8 5.62704 143.744 5.50901 143.732 5.38286C143.72 5.25671 143.753 5.13033 143.824 5.02545C148.127 -1.0296 158.036 0.302509 162.551 5.29793C162.732 5.50986 162.55 5.78233 162.247 5.60068Z" fill="#BBD0C9"/>
<path d="M133.794 9.01858C126.612 10.5625 119.857 13.6631 114.007 18.1012C113.794 18.1012 113.522 17.8892 113.734 17.7076C119.207 12.5465 126.243 9.35122 133.733 8.625C134.006 8.625 134.066 9.04885 133.733 9.1094L133.794 9.01858Z" fill="#BBD0C9"/>
<path d="M176.458 58.8222C169.61 63.3937 155.823 67.6323 148.429 61.4561C145.732 59.1855 142.793 54.2203 138.217 57.0662C135.138 59.078 131.631 60.3429 127.975 60.7598C121.488 61.1031 115.008 59.9534 109.036 57.3992C108.896 57.3591 108.777 57.2648 108.706 57.137C108.635 57.0093 108.617 56.8585 108.658 56.718C108.698 56.5775 108.792 56.4587 108.92 56.3877C109.048 56.3168 109.199 56.2994 109.339 56.3396C116.612 57.7625 123.339 59.3671 130.823 57.7625C132.702 57.3689 138.217 52.313 140.793 52.7671C142.211 53.0072 143.564 53.5405 144.764 54.333C145.964 55.1254 146.985 56.1594 147.762 57.3689C155.338 65.9066 167.489 59.7001 176.246 58.3378C176.306 58.3276 176.368 58.3378 176.421 58.3667C176.475 58.3956 176.517 58.4415 176.542 58.4972C176.566 58.5529 176.571 58.6151 176.556 58.674C176.541 58.7329 176.506 58.785 176.458 58.8222Z" fill="#BBD0C9"/>
<path d="M113.492 16.739C108.068 9.53351 98.7043 10.2601 91.6136 14.2565C85.7047 17.617 81.8866 23.9748 77.5838 29.0005C77.3716 29.273 76.9777 29.0005 77.1292 28.6372C83.4321 17.1023 102.825 -0.305963 113.946 16.5271C114.128 16.8299 113.673 17.0721 113.492 16.7996V16.739Z" fill="#BBD0C9"/>
<path d="M107.703 57.0658C107.04 57.8745 106.202 58.5229 105.253 58.9623C104.303 59.4018 103.266 59.621 102.22 59.6035C101.174 59.586 100.145 59.3324 99.2105 58.8614C98.2762 58.3905 97.4606 57.7146 96.8247 56.8842C96.1477 55.622 95.7062 54.2473 95.5217 52.8273C94.7338 48.619 90.6128 52.3732 88.9461 52.464C87.2795 52.5548 85.9159 52.2823 85.7341 50.4961H85.9463C86.4008 53.5236 93.1278 49.164 95.7338 51.4952C97.1277 52.7365 96.9459 55.431 98.2489 56.9145C99.4973 58.1187 101.165 58.7917 102.9 58.7917C104.636 58.7917 106.303 58.1187 107.552 56.9145C107.552 56.9145 107.824 56.9145 107.552 57.0961L107.703 57.0658Z" fill="#BBD0C9"/>
<path d="M79.9453 48.8965L76.4001 50.8038L79.915 48.8359V49.0176L79.9453 48.8965Z" fill="#BBD0C9"/>
<path d="M76.7048 33.2708C75.3491 34.3171 74.3169 35.7249 73.7272 37.3318C73.1374 38.9387 73.0142 40.6795 73.3716 42.3534C73.4024 42.4708 73.3972 42.5949 73.3565 42.7094C73.3159 42.8238 73.2418 42.9234 73.1437 42.9953C73.0457 43.0671 72.9283 43.1078 72.8069 43.1121C72.6854 43.1164 72.5654 43.0841 72.4625 43.0194C68.0384 40.6579 63.0083 42.8378 58.6752 44.2607C58.2813 44.2607 58.0994 43.8369 58.4024 43.6249C62.8265 40.3855 67.7657 41.5965 72.7958 41.8992L72.1898 42.6561C71.6365 40.7869 71.7547 38.7833 72.5239 36.992C73.2931 35.2007 74.6648 33.7344 76.4017 32.8469C76.7654 32.635 77.0381 33.1497 76.7048 33.3919V33.2708Z" fill="#BBD0C9"/>
<path d="M52.7342 46.9536C52.2767 46.7788 51.7976 46.6668 51.31 46.6206C51.0725 46.5851 50.8299 46.6174 50.61 46.7138C50.3902 46.8102 50.2021 46.9668 50.0676 47.1655C50.0676 47.7105 50.0676 48.0435 50.704 48.104C51.3403 48.1646 51.1282 48.3765 50.9464 48.5279C50.007 49.3151 49.2494 48.1949 49.1585 47.3169C48.9767 45.2884 51.9767 46.1059 52.8857 46.4692C53.1888 46.4692 53.0676 47.0747 52.8857 46.9536H52.7342Z" fill="#BBD0C9"/>
<path d="M59.4018 49.3129C63.0135 47.7362 67.0247 47.3132 70.8862 48.1018C71.4317 48.1018 71.2499 49.0404 70.8862 49.0404C69.0864 49.1311 67.2821 49.0703 65.4925 48.8587C65.4247 48.8376 65.3654 48.7953 65.3233 48.7381C65.2812 48.6809 65.2585 48.6118 65.2585 48.5408C65.2585 48.4698 65.2812 48.4007 65.3233 48.3435C65.3654 48.2863 65.4247 48.2441 65.4925 48.2229C67.2872 48.0717 69.0915 48.0717 70.8862 48.2229V49.1917C67.2558 48.8226 63.5896 49.3207 60.1897 50.645C59.4927 50.8872 59.0078 49.767 59.6745 49.4642L59.4018 49.3129Z" fill="#BBD0C9"/>
<path d="M49.4028 50.5861C49.2603 50.7699 49.0802 50.9213 48.8745 51.0301C48.6688 51.1389 48.4422 51.2025 48.2099 51.2169C47.9776 51.2312 47.7448 51.1958 47.5273 51.1132C47.3098 51.0305 47.1124 50.9024 46.9483 50.7374C46.8461 50.6258 46.7894 50.48 46.7894 50.3287C46.7894 50.1774 46.8461 50.0316 46.9483 49.92C47.1124 49.7551 47.3098 49.627 47.5273 49.5443C47.7448 49.4616 47.9776 49.4263 48.2099 49.4406C48.4422 49.4549 48.6688 49.5186 48.8745 49.6274C49.0802 49.7362 49.2603 49.8875 49.4028 50.0714C49.4367 50.1051 49.4636 50.1452 49.482 50.1894C49.5003 50.2336 49.5098 50.2809 49.5098 50.3287C49.5098 50.3765 49.5003 50.4239 49.482 50.4681C49.4636 50.5122 49.4367 50.5523 49.4028 50.5861Z" fill="#BBD0C9"/>
<path d="M234.002 21.0395C241.123 24.4909 248.274 18.1634 255.759 19.9496C259.365 20.7973 262.577 23.9762 260.94 27.7001C260.698 28.2451 259.971 27.8818 259.94 27.4276C258.971 19.4955 249.759 21.645 244.547 22.9469C242.74 23.6529 240.798 23.9459 238.863 23.8044C236.929 23.663 235.05 23.0907 233.365 22.1295C233.242 22.0354 233.157 21.8996 233.127 21.7475C233.097 21.5955 233.124 21.4377 233.202 21.3038C233.28 21.1699 233.404 21.0692 233.552 21.0205C233.699 20.9718 233.859 20.9786 234.002 21.0395Z" fill="#BBD0C9"/>
<path d="M173.882 35.3867C180.217 40.4168 186.286 45.7726 192.064 51.4326C192.367 51.7354 192.064 52.1592 191.609 51.917C185.549 46.7702 179.488 41.2299 173.792 35.5078H173.943L173.882 35.3867Z" fill="#BBD0C9"/>
<path d="M168.005 37.7221C174.341 43.3946 180.313 49.4617 185.883 55.8873C185.883 56.0992 185.883 56.3717 185.58 56.19C179.241 50.51 173.26 44.4434 167.671 38.0248C167.631 37.9807 167.61 37.9224 167.613 37.8628C167.616 37.8032 167.642 37.7471 167.686 37.707C167.731 37.6668 167.789 37.6459 167.849 37.6487C167.908 37.6515 167.964 37.6779 168.005 37.7221Z" fill="#BBD0C9"/>
<path d="M169.792 46.709C172.822 50.2209 175.852 53.7026 179.064 57.2751C176.034 53.7631 173.004 50.1906 169.974 46.6484L169.792 46.709Z" fill="#BBD0C9"/>
<path d="M159.217 46.5593C163.114 49.857 166.769 53.4285 170.156 57.2465C170.156 57.4282 170.156 57.7612 169.884 57.6098C166.005 54.2697 162.37 50.6578 159.005 46.8015C158.973 46.7734 158.953 46.7337 158.95 46.6911C158.948 46.6486 158.962 46.6066 158.99 46.5745C159.018 46.5424 159.058 46.5227 159.1 46.5199C159.143 46.517 159.185 46.5312 159.217 46.5593Z" fill="#BBD0C9"/>
<path d="M153.854 50.0109C158.219 53.4241 162.368 57.1046 166.277 61.0311C166.277 61.1825 166.277 61.4549 166.035 61.3338C161.692 57.8728 157.554 54.1629 153.641 50.2228C153.641 50.2228 153.641 49.8898 153.854 50.0109Z" fill="#BBD0C9"/>
<path d="M154.611 55.3106C154.339 57.7023 157.217 58.3381 158.672 59.5794C159.369 60.1546 160.581 61.517 159.854 62.6069C159.126 63.6968 156.248 63.3335 157.187 61.85C157.187 61.85 157.52 61.85 157.46 61.85C157.187 62.4858 157.914 62.6977 158.369 62.728C158.823 62.7583 159.581 62.2133 159.49 61.3656C159.399 60.5179 157.854 59.3674 156.914 58.8225C155.975 58.2775 154.157 56.9454 154.399 55.25C154.399 55.25 154.642 55.25 154.611 55.25V55.3106Z" fill="#BBD0C9"/>
<path d="M150.127 59.1853C150.744 59.7711 151.33 60.3874 151.885 61.0321L151.703 61.2138C151.067 60.6688 150.461 60.0633 149.855 59.4578C149.837 59.4399 149.822 59.4187 149.813 59.3953C149.803 59.3719 149.798 59.3469 149.798 59.3216C149.798 59.2963 149.803 59.2712 149.813 59.2478C149.822 59.2245 149.837 59.2032 149.855 59.1853C149.872 59.1674 149.894 59.1533 149.917 59.1436C149.94 59.1339 149.966 59.1289 149.991 59.1289C150.016 59.1289 150.041 59.1339 150.065 59.1436C150.088 59.1533 150.109 59.1674 150.127 59.1853Z" fill="#BBD0C9"/>
<path d="M189.517 44.1089C195.49 43.5496 201.488 43.307 207.486 43.3823C207.519 43.3695 207.553 43.3647 207.588 43.3684C207.622 43.3721 207.655 43.3842 207.684 43.4036C207.713 43.4231 207.736 43.4492 207.753 43.4798C207.769 43.5104 207.777 43.5445 207.777 43.5791C207.777 43.6137 207.769 43.6478 207.753 43.6784C207.736 43.709 207.713 43.7352 207.684 43.7546C207.655 43.774 207.622 43.7861 207.588 43.7898C207.553 43.7935 207.519 43.7888 207.486 43.7759C201.426 44.442 195.366 44.2603 189.517 44.3511V44.1089Z" fill="#BBD0C9"/>
<path d="M247.275 36.0272C246.911 39.0547 246.426 42.0823 245.941 45.1098C245.898 45.246 245.813 45.3656 245.7 45.4523C245.586 45.539 245.448 45.5885 245.305 45.5942C241.099 46.0495 236.852 45.9579 232.669 45.3217C232.587 45.2982 232.514 45.2486 232.463 45.1803C232.411 45.112 232.383 45.0288 232.383 44.9433C232.383 44.8577 232.411 44.7745 232.463 44.7063C232.514 44.638 232.587 44.5883 232.669 44.5648C235.809 44.0043 239.011 43.8821 242.184 44.2015C244.547 44.2015 244.76 44.2015 245.214 41.8098C245.669 39.418 246.002 37.874 246.456 35.9364C246.456 35.4823 247.305 35.5731 247.275 35.9364V36.0272Z" fill="#BBD0C9"/>
<path d="M232.607 46.3483C235.638 44.441 239.092 43.3208 242.122 41.5648C245.152 39.8089 247.486 35.7217 250.789 33.7538C250.913 33.6837 251.055 33.6518 251.198 33.662C251.341 33.6723 251.477 33.7242 251.59 33.8114C251.703 33.8986 251.788 34.0172 251.834 34.1523C251.88 34.2875 251.886 34.4332 251.849 34.5712C251.304 38.3254 247.274 41.2318 244.365 43.2905C241.059 45.9222 236.885 47.2186 232.668 46.9236C232.395 46.9236 232.395 46.4997 232.668 46.3483H232.607Z" fill="#BBD0C9"/>
<path d="M74.3711 37.9271C73.7634 38.1207 73.1178 38.164 72.4897 38.0533C71.8616 37.9425 71.2697 37.6811 70.7651 37.2913C70.5838 37.173 70.4348 37.0114 70.3318 36.8211C70.2287 36.6308 70.1747 36.4178 70.1747 36.2014C70.1747 35.9851 70.2287 35.7721 70.3318 35.5818C70.4348 35.3915 70.5838 35.2299 70.7651 35.1115C70.864 35.0464 70.9799 35.0117 71.0984 35.0117C71.2169 35.0117 71.3328 35.0464 71.4318 35.1115L74.2196 37.8666C74.2638 37.9027 74.2918 37.9549 74.2975 38.0117C74.3032 38.0685 74.2861 38.1252 74.2499 38.1693C74.2137 38.2135 74.1615 38.2415 74.1046 38.2472C74.0478 38.2528 73.9911 38.2357 73.9469 38.1996L70.7651 35.9592L71.3408 35.8684C70.3712 36.6858 73.4923 37.14 74.0075 37.0491C74.112 37.021 74.2233 37.0356 74.3171 37.0895C74.4109 37.1434 74.4793 37.2324 74.5075 37.3368C74.5356 37.4411 74.5211 37.5524 74.4671 37.6461C74.4131 37.7398 74.3241 37.8082 74.2196 37.8363L74.3711 37.9271Z" fill="#BBD0C9"/>
<path d="M75.6724 35.4482C76.8845 33.8739 74.9148 32.0271 73.7028 33.6014C72.8374 34.6676 71.9064 35.6787 70.915 36.629C69.4488 38.1765 67.7004 39.4301 65.7636 40.3225C65.4606 40.3225 65.2788 40.0198 65.4606 39.8381C67.0969 38.2335 69.0059 36.962 70.7028 35.4179C71.5513 34.6611 72.3392 33.8436 73.127 32.9959C73.3694 32.7537 73.8543 31.8455 74.2785 31.8757C74.7208 31.8986 75.1481 32.0436 75.5129 32.2946C75.8777 32.5456 76.1656 32.8929 76.3446 33.2976C76.5236 33.7024 76.5867 34.1489 76.5269 34.5873C76.4671 35.0258 76.2866 35.4391 76.0057 35.7812C75.7936 36.0235 75.4906 35.7813 75.6724 35.4482Z" fill="#BBD0C9"/>
<path d="M67.158 39.7178H65.3399C65.1581 39.7178 65.1581 39.4453 65.3399 39.4453C65.5217 39.4453 66.552 39.4453 67.158 39.4453C67.2063 39.4453 67.2525 39.4644 67.2866 39.4985C67.3207 39.5326 67.3398 39.5788 67.3398 39.627C67.3398 39.6751 67.3207 39.7214 67.2866 39.7554C67.2525 39.7895 67.2063 39.8086 67.158 39.8086V39.7178Z" fill="#BBD0C9"/>
<path d="M70.734 79.5273C65.9463 79.5273 61.1585 79.2245 56.3405 79.164C61.1585 79.164 65.9463 78.6796 70.734 78.8007C70.8465 78.8007 70.9544 78.8453 71.034 78.9248C71.1135 79.0043 71.1582 79.1121 71.1582 79.2245C71.1582 79.3369 71.1135 79.4448 71.034 79.5242C70.9544 79.6037 70.8465 79.6484 70.734 79.6484V79.5273Z" fill="#BBD0C9"/>
<path d="M40.3103 73.8103C39.7141 74.7039 38.8309 75.3678 37.8063 75.6925C36.7817 76.0173 35.6769 75.9834 34.6741 75.5965C34.4317 75.5965 34.6742 75.1424 34.856 75.1727C35.7762 75.4143 36.7456 75.395 37.6555 75.1169C38.5654 74.8389 39.3798 74.313 40.0073 73.5983C40.0354 73.5582 40.0783 73.5309 40.1266 73.5223C40.1749 73.5138 40.2247 73.5248 40.2648 73.5529C40.305 73.581 40.3324 73.6239 40.3409 73.6722C40.3495 73.7205 40.3384 73.7701 40.3103 73.8103Z" fill="#BBD0C9"/>
<path d="M38.6457 75.8058C39.5217 74.9843 40.5652 74.3618 41.7045 73.9809C42.8439 73.6001 44.0523 73.4699 45.2467 73.5993C46.4412 73.7287 47.5935 74.1146 48.6246 74.7306C49.6558 75.3467 50.5415 76.1782 51.2209 77.1682C51.4633 77.5012 50.8876 77.8342 50.6452 77.4709C49.9903 76.5671 49.1565 75.8073 48.1955 75.2388C47.2345 74.6703 46.1668 74.3051 45.0587 74.166C43.9505 74.0269 42.8256 74.1168 41.7537 74.4302C40.6818 74.7435 39.6858 75.2735 38.8275 75.9874L38.6457 75.8058Z" fill="#BBD0C9"/>
<path d="M50.8569 77.2026C53.8871 75.4466 59.9475 75.4769 61.9777 79.0191C62.1292 79.2916 61.7959 79.5641 61.5231 79.443C60.0595 78.4799 58.4685 77.7258 56.796 77.2026C54.8858 76.8516 52.9143 77.0728 51.1296 77.8384C50.7659 77.9898 50.5235 77.3843 50.8569 77.2026Z" fill="#BBD0C9"/>
<path d="M69.0374 82.315C65.4498 83.1823 61.7509 83.4988 58.068 83.2536C57.6741 83.2536 57.765 82.6783 58.068 82.5572C61.6601 81.7189 65.3622 81.4532 69.0374 81.7701C69.401 81.7701 69.3707 82.2847 69.0374 82.315Z" fill="#BBD0C9"/>
<path d="M58.4922 82.9193C54.7347 88.278 45.4926 91.2147 40.1292 86.2799V86.0982C46.6138 88.4294 53.159 88.3083 57.8862 82.556C58.1286 82.2835 58.5831 82.556 58.371 82.9193H58.4922Z" fill="#BBD0C9"/>
<path d="M34.7352 88.251C32.3414 88.251 29.9475 88.251 27.5537 88.251V88.0391C29.9475 88.0391 32.3414 88.0391 34.7352 88.0391C34.7754 88.0391 34.8139 88.055 34.8423 88.0834C34.8707 88.1118 34.8867 88.1503 34.8867 88.1904C34.8867 88.2306 34.8707 88.2691 34.8423 88.2975C34.8139 88.3259 34.7754 88.3418 34.7352 88.3418V88.251Z" fill="#BBD0C9"/>
<path d="M32.6758 79.4705C30.8712 78.2801 28.7495 77.6607 26.5873 77.6931C24.4251 77.7255 22.323 78.4082 20.555 79.6521C20.2822 79.8338 19.9186 79.3797 20.1913 79.1677C21.9756 77.795 24.1736 77.0684 26.4252 77.1069C28.6768 77.1454 30.8487 77.9468 32.5849 79.3797L32.6758 79.4705Z" fill="#BBD0C9"/>
<path d="M18.039 81.285C17.4686 80.6563 16.7429 80.1884 15.9346 79.928C15.1262 79.6677 14.2637 79.624 13.4332 79.8015C12.6017 79.9758 11.8216 80.3398 11.1541 80.865C10.4866 81.3901 9.94952 82.0623 9.58483 82.829C9.58483 82.829 9.28183 82.829 9.31213 82.829C9.49394 80.9519 11.6454 79.8015 13.312 79.5593C14.1999 79.3993 15.1146 79.4839 15.958 79.8039C16.8015 80.1239 17.5418 80.6673 18.0996 81.3758C18.0996 81.3758 18.0996 81.3758 18.0996 81.3758L18.039 81.285Z" fill="#BBD0C9"/>
<path d="M27.5547 88.7336C19.1913 89.3391 7.1916 88.34 0.282713 83.2235C-0.17182 82.8905 0.0706425 82.0428 0.706987 82.2244C4.88868 83.4052 8.61585 85.7061 12.8278 86.796C17.6449 87.9289 22.5757 88.5078 27.5244 88.5217V88.7336H27.5547Z" fill="#BBD0C9"/>
<path d="M0.525649 83.8628C2.46496 83.8628 4.40423 83.8628 6.34354 83.8628C8.05453 83.6948 9.78111 83.7867 11.4646 84.1353C11.5615 84.1609 11.6472 84.2179 11.7084 84.2973C11.7696 84.3767 11.8027 84.4741 11.8027 84.5743C11.8027 84.6744 11.7696 84.7718 11.7084 84.8512C11.6472 84.9306 11.5615 84.9876 11.4646 85.0132C9.77901 85.3454 8.05486 85.4371 6.34354 85.2857C4.40423 85.2857 2.46496 85.2857 0.525649 85.2857C0.376853 85.2535 0.243557 85.1713 0.147986 85.0529C0.0524149 84.9345 0.000305176 84.7869 0.000305176 84.6348C0.000305176 84.4827 0.0524149 84.3352 0.147986 84.2167C0.243557 84.0983 0.376853 84.0161 0.525649 83.9839V83.8628Z" fill="#BBD0C9"/>
</svg>
